<ttFont>
    <TTGlyph name=".notdef" xMin="129" yMin="0" xMax="897" yMax="1638">
      <contour>
        <pt x="129" y="1638" on="1"/>
        <pt x="897" y="1638" on="1"/>
        <pt x="897" y="0" on="1"/>
        <pt x="129" y="0" on="1"/>
      </contour>
      <contour>
        <pt x="768" y="129" on="1"/>
        <pt x="768" y="1511" on="1"/>
        <pt x="256" y="1511" on="1"/>
        <pt x="256" y="129" on="1"/>
      </contour>
    </TTGlyph>
    <TTGlyph name="glyph00004" xMin="20" yMin="984" xMax="274" yMax="1262">
      <contour>
        <pt x="20" y="1123" on="1"/>
        <pt x="20" y="1189" on="0"/>
        <pt x="83" y="1262" on="0"/>
        <pt x="145" y="1262" on="1"/>
        <pt x="208" y="1262" on="0"/>
        <pt x="274" y="1190" on="0"/>
        <pt x="274" y="1123" on="1"/>
        <pt x="274" y="1059" on="0"/>
        <pt x="206" y="984" on="0"/>
        <pt x="145" y="984" on="1"/>
        <pt x="86" y="984" on="0"/>
        <pt x="20" y="1058" on="0"/>
      </contour>
    </TTGlyph>
    <TTGlyph name="glyph00005" xMin="20" yMin="1620" xMax="274" yMax="1898">
      <contour>
        <pt x="20" y="1759" on="1"/>
        <pt x="20" y="1825" on="0"/>
        <pt x="83" y="1898" on="0"/>
        <pt x="145" y="1898" on="1"/>
        <pt x="208" y="1898" on="0"/>
        <pt x="274" y="1826" on="0"/>
        <pt x="274" y="1759" on="1"/>
        <pt x="274" y="1695" on="0"/>
        <pt x="206" y="1620" on="0"/>
        <pt x="145" y="1620" on="1"/>
        <pt x="86" y="1620" on="0"/>
        <pt x="20" y="1694" on="0"/>
      </contour>
    </TTGlyph>
    <TTGlyph name="glyph00006" xMin="20" yMin="-29" xMax="274" yMax="1262">
      <contour>
        <pt x="20" y="111" on="1"/>
        <pt x="20" y="177" on="0"/>
        <pt x="85" y="248" on="0"/>
        <pt x="145" y="248" on="1"/>
        <pt x="206" y="248" on="0"/>
        <pt x="274" y="177" on="0"/>
        <pt x="274" y="111" on="1"/>
        <pt x="274" y="46" on="0"/>
        <pt x="206" y="-29" on="0"/>
        <pt x="145" y="-29" on="1"/>
        <pt x="86" y="-29" on="0"/>
        <pt x="20" y="45" on="0"/>
      </contour>
      <contour>
        <pt x="20" y="1123" on="1"/>
        <pt x="20" y="1189" on="0"/>
        <pt x="83" y="1262" on="0"/>
        <pt x="145" y="1262" on="1"/>
        <pt x="208" y="1262" on="0"/>
        <pt x="274" y="1190" on="0"/>
        <pt x="274" y="1123" on="1"/>
        <pt x="274" y="1059" on="0"/>
        <pt x="206" y="984" on="0"/>
        <pt x="145" y="984" on="1"/>
        <pt x="86" y="984" on="0"/>
        <pt x="20" y="1058" on="0"/>
      </contour>
    </TTGlyph>
    <TTGlyph name="glyph00007" xMin="60" yMin="0" xMax="1070" yMax="1172">
      <contour>
        <pt x="457" y="599" on="1"/>
        <pt x="78" y="1172" on="1"/>
        <pt x="1049" y="1172" on="1"/>
        <pt x="670" y="599" on="1"/>
        <pt x="1070" y="0" on="1"/>
        <pt x="60" y="0" on="1"/>
      </contour>
      <contour>
        <pt x="362" y="156" on="1"/>
        <pt x="767" y="156" on="1"/>
        <pt x="566" y="476" on="1"/>
      </contour>
      <contour>
        <pt x="566" y="722" on="1"/>
        <pt x="749" y="1016" on="1"/>
        <pt x="381" y="1016" on="1"/>
      </contour>
    </TTGlyph>
    <TTGlyph name="glyph00008" xMin="160" yMin="-24" xMax="1248" yMax="1196">
      <contour>
        <pt x="1248" y="588" on="1"/>
        <pt x="1248" y="301" on="0"/>
        <pt x="959" y="-24" on="0"/>
        <pt x="699" y="-24" on="1"/>
        <pt x="539" y="-24" on="0"/>
        <pt x="294" y="125" on="0"/>
        <pt x="160" y="401" on="0"/>
        <pt x="160" y="588" on="1"/>
        <pt x="160" y="874" on="0"/>
        <pt x="449" y="1196" on="0"/>
        <pt x="707" y="1196" on="1"/>
        <pt x="869" y="1196" on="0"/>
        <pt x="1115" y="1049" on="0"/>
        <pt x="1248" y="772" on="0"/>
      </contour>
      <contour>
        <pt x="344" y="588" on="1"/>
        <pt x="344" y="416" on="0"/>
        <pt x="402" y="307" on="1"/>
        <pt x="597" y="583" on="1"/>
        <pt x="399" y="863" on="1"/>
        <pt x="344" y="757" on="0"/>
      </contour>
      <contour>
        <pt x="1064" y="588" on="1"/>
        <pt x="1064" y="754" on="0"/>
        <pt x="1007" y="862" on="1"/>
        <pt x="810" y="583" on="1"/>
        <pt x="1005" y="309" on="1"/>
        <pt x="1064" y="419" on="0"/>
      </contour>
      <contour>
        <pt x="706" y="706" on="1"/>
        <pt x="895" y="984" on="1"/>
        <pt x="815" y="1034" on="0"/>
        <pt x="701" y="1034" on="1"/>
        <pt x="591" y="1034" on="0"/>
        <pt x="513" y="987" on="1"/>
      </contour>
      <contour>
        <pt x="517" y="185" on="1"/>
        <pt x="594" y="138" on="0"/>
        <pt x="705" y="138" on="1"/>
        <pt x="811" y="138" on="0"/>
        <pt x="892" y="186" on="1"/>
        <pt x="706" y="460" on="1"/>
      </contour>
    </TTGlyph>
    <TTGlyph name="glyph00009" xMin="160" yMin="0" xMax="1014" yMax="1462">
      <contour>
        <pt x="830" y="659" on="1"/>
        <pt x="813" y="659" on="1"/>
        <pt x="682" y="659" on="0"/>
        <pt x="465" y="518" on="0"/>
        <pt x="344" y="272" on="0"/>
        <pt x="344" y="128" on="1"/>
        <pt x="344" y="0" on="1"/>
        <pt x="160" y="0" on="1"/>
        <pt x="160" y="132" on="1"/>
        <pt x="160" y="315" on="0"/>
        <pt x="328" y="632" on="0"/>
        <pt x="470" y="721" on="1"/>
        <pt x="333" y="788" on="0"/>
        <pt x="180" y="1047" on="0"/>
        <pt x="180" y="1210" on="1"/>
        <pt x="180" y="1462" on="1"/>
        <pt x="364" y="1462" on="1"/>
        <pt x="364" y="1214" on="1"/>
        <pt x="364" y="1032" on="0"/>
        <pt x="598" y="815" on="0"/>
        <pt x="793" y="815" on="1"/>
        <pt x="830" y="815" on="1"/>
        <pt x="830" y="1462" on="1"/>
        <pt x="1014" y="1462" on="1"/>
        <pt x="1014" y="0" on="1"/>
        <pt x="830" y="0" on="1"/>
      </contour>
    </TTGlyph>
    <TTGlyph name="glyph00010" xMin="160" yMin="0" xMax="1264" yMax="1462">
      <contour>
        <pt x="1264" y="659" on="1"/>
        <pt x="1014" y="659" on="1"/>
        <pt x="1014" y="0" on="1"/>
        <pt x="830" y="0" on="1"/>
        <pt x="830" y="659" on="1"/>
        <pt x="813" y="659" on="1"/>
        <pt x="682" y="659" on="0"/>
        <pt x="465" y="518" on="0"/>
        <pt x="344" y="272" on="0"/>
        <pt x="344" y="128" on="1"/>
        <pt x="344" y="0" on="1"/>
        <pt x="160" y="0" on="1"/>
        <pt x="160" y="132" on="1"/>
        <pt x="160" y="315" on="0"/>
        <pt x="328" y="632" on="0"/>
        <pt x="470" y="721" on="1"/>
        <pt x="333" y="788" on="0"/>
        <pt x="180" y="1047" on="0"/>
        <pt x="180" y="1210" on="1"/>
        <pt x="180" y="1462" on="1"/>
        <pt x="364" y="1462" on="1"/>
        <pt x="364" y="1214" on="1"/>
        <pt x="364" y="1032" on="0"/>
        <pt x="598" y="815" on="0"/>
        <pt x="793" y="815" on="1"/>
        <pt x="830" y="815" on="1"/>
        <pt x="830" y="1462" on="1"/>
        <pt x="1014" y="1462" on="1"/>
        <pt x="1014" y="815" on="1"/>
        <pt x="1264" y="815" on="1"/>
      </contour>
    </TTGlyph>
    <TTGlyph name="glyph00011" xMin="200" yMin="-29" xMax="914" yMax="1262">
      <contour>
        <pt x="200" y="111" on="1"/>
        <pt x="200" y="177" on="0"/>
        <pt x="265" y="248" on="0"/>
        <pt x="325" y="248" on="1"/>
        <pt x="386" y="248" on="0"/>
        <pt x="454" y="177" on="0"/>
        <pt x="454" y="111" on="1"/>
        <pt x="454" y="46" on="0"/>
        <pt x="386" y="-29" on="0"/>
        <pt x="325" y="-29" on="1"/>
        <pt x="266" y="-29" on="0"/>
        <pt x="200" y="45" on="0"/>
      </contour>
      <contour>
        <pt x="200" y="1123" on="1"/>
        <pt x="200" y="1189" on="0"/>
        <pt x="263" y="1262" on="0"/>
        <pt x="325" y="1262" on="1"/>
        <pt x="388" y="1262" on="0"/>
        <pt x="454" y="1190" on="0"/>
        <pt x="454" y="1123" on="1"/>
        <pt x="454" y="1059" on="0"/>
        <pt x="386" y="984" on="0"/>
        <pt x="325" y="984" on="1"/>
        <pt x="266" y="984" on="0"/>
        <pt x="200" y="1058" on="0"/>
      </contour>
      <contour>
        <pt x="660" y="616" on="1"/>
        <pt x="660" y="682" on="0"/>
        <pt x="723" y="755" on="0"/>
        <pt x="785" y="755" on="1"/>
        <pt x="848" y="755" on="0"/>
        <pt x="914" y="683" on="0"/>
        <pt x="914" y="616" on="1"/>
        <pt x="914" y="552" on="0"/>
        <pt x="846" y="477" on="0"/>
        <pt x="785" y="477" on="1"/>
        <pt x="726" y="477" on="0"/>
        <pt x="660" y="551" on="0"/>
      </contour>
    </TTGlyph>
    <TTGlyph name="glyph00012" xMin="200" yMin="-29" xMax="1104" yMax="1282">
      <contour>
        <pt x="200" y="111" on="1"/>
        <pt x="200" y="177" on="0"/>
        <pt x="265" y="248" on="0"/>
        <pt x="325" y="248" on="1"/>
        <pt x="386" y="248" on="0"/>
        <pt x="454" y="177" on="0"/>
        <pt x="454" y="111" on="1"/>
        <pt x="454" y="46" on="0"/>
        <pt x="386" y="-29" on="0"/>
        <pt x="325" y="-29" on="1"/>
        <pt x="266" y="-29" on="0"/>
        <pt x="200" y="45" on="0"/>
      </contour>
      <contour>
        <pt x="200" y="1143" on="1"/>
        <pt x="200" y="1209" on="0"/>
        <pt x="263" y="1282" on="0"/>
        <pt x="325" y="1282" on="1"/>
        <pt x="388" y="1282" on="0"/>
        <pt x="454" y="1210" on="0"/>
        <pt x="454" y="1143" on="1"/>
        <pt x="454" y="1079" on="0"/>
        <pt x="386" y="1004" on="0"/>
        <pt x="325" y="1004" on="1"/>
        <pt x="266" y="1004" on="0"/>
        <pt x="200" y="1078" on="0"/>
      </contour>
      <contour>
        <pt x="850" y="111" on="1"/>
        <pt x="850" y="177" on="0"/>
        <pt x="915" y="248" on="0"/>
        <pt x="975" y="248" on="1"/>
        <pt x="1036" y="248" on="0"/>
        <pt x="1104" y="177" on="0"/>
        <pt x="1104" y="111" on="1"/>
        <pt x="1104" y="46" on="0"/>
        <pt x="1036" y="-29" on="0"/>
        <pt x="975" y="-29" on="1"/>
        <pt x="916" y="-29" on="0"/>
        <pt x="850" y="45" on="0"/>
      </contour>
      <contour>
        <pt x="850" y="1143" on="1"/>
        <pt x="850" y="1209" on="0"/>
        <pt x="913" y="1282" on="0"/>
        <pt x="975" y="1282" on="1"/>
        <pt x="1038" y="1282" on="0"/>
        <pt x="1104" y="1210" on="0"/>
        <pt x="1104" y="1143" on="1"/>
        <pt x="1104" y="1079" on="0"/>
        <pt x="1036" y="1004" on="0"/>
        <pt x="975" y="1004" on="1"/>
        <pt x="916" y="1004" on="0"/>
        <pt x="850" y="1078" on="0"/>
      </contour>
    </TTGlyph>
    <TTGlyph name="glyph00013" xMin="200" yMin="0" xMax="923" yMax="1462">
      <contour>
        <pt x="200" y="0" on="1"/>
        <pt x="200" y="1462" on="1"/>
        <pt x="384" y="1462" on="1"/>
        <pt x="384" y="164" on="1"/>
        <pt x="923" y="164" on="1"/>
        <pt x="923" y="0" on="1"/>
      </contour>
    </TTGlyph>
    <TTGlyph name="glyph00014" xMin="200" yMin="0" xMax="923" yMax="1462">
      <contour>
        <pt x="384" y="390" on="1"/>
        <pt x="384" y="164" on="1"/>
        <pt x="923" y="164" on="1"/>
        <pt x="923" y="0" on="1"/>
        <pt x="200" y="0" on="1"/>
        <pt x="200" y="1462" on="1"/>
        <pt x="384" y="1462" on="1"/>
        <pt x="384" y="554" on="1"/>
        <pt x="923" y="554" on="1"/>
        <pt x="923" y="390" on="1"/>
      </contour>
    </TTGlyph>
    <TTGlyph name="glyph00015" xMin="120" yMin="0" xMax="1130" yMax="1172">
      <contour>
        <pt x="517" y="599" on="1"/>
        <pt x="138" y="1172" on="1"/>
        <pt x="343" y="1172" on="1"/>
        <pt x="626" y="722" on="1"/>
        <pt x="906" y="1172" on="1"/>
        <pt x="1109" y="1172" on="1"/>
        <pt x="730" y="599" on="1"/>
        <pt x="1130" y="0" on="1"/>
        <pt x="925" y="0" on="1"/>
        <pt x="626" y="476" on="1"/>
        <pt x="323" y="0" on="1"/>
        <pt x="120" y="0" on="1"/>
      </contour>
    </TTGlyph>
    <TTGlyph name="glyph00016" xMin="120" yMin="-24" xMax="1362" yMax="1172">
      <contour>
        <pt x="1362" y="110" on="1"/>
        <pt x="1245" y="-24" on="0"/>
        <pt x="1111" y="-24" on="1"/>
        <pt x="1027" y="-24" on="0"/>
        <pt x="898" y="54" on="0"/>
        <pt x="839" y="145" on="1"/>
        <pt x="626" y="476" on="1"/>
        <pt x="323" y="0" on="1"/>
        <pt x="120" y="0" on="1"/>
        <pt x="517" y="599" on="1"/>
        <pt x="138" y="1172" on="1"/>
        <pt x="343" y="1172" on="1"/>
        <pt x="626" y="722" on="1"/>
        <pt x="906" y="1172" on="1"/>
        <pt x="1109" y="1172" on="1"/>
        <pt x="730" y="599" on="1"/>
        <pt x="933" y="288" on="1"/>
        <pt x="990" y="201" on="0"/>
        <pt x="1072" y="138" on="0"/>
        <pt x="1115" y="138" on="1"/>
        <pt x="1162" y="138" on="0"/>
        <pt x="1230" y="191" on="0"/>
        <pt x="1259" y="224" on="1"/>
      </contour>
    </TTGlyph>
    <TTGlyph name="glyph00017" xMin="160" yMin="-30" xMax="1017" yMax="1486">
      <contour>
        <pt x="1015" y="212" on="1"/>
        <pt x="933" y="79" on="0"/>
        <pt x="769" y="-30" on="0"/>
        <pt x="657" y="-30" on="1"/>
        <pt x="570" y="-30" on="0"/>
        <pt x="458" y="39" on="0"/>
        <pt x="398" y="150" on="0"/>
        <pt x="398" y="213" on="1"/>
        <pt x="398" y="280" on="0"/>
        <pt x="483" y="428" on="0"/>
        <pt x="610" y="578" on="1"/>
        <pt x="714" y="701" on="0"/>
        <pt x="822" y="942" on="0"/>
        <pt x="822" y="1066" on="1"/>
        <pt x="822" y="1178" on="0"/>
        <pt x="701" y="1314" on="0"/>
        <pt x="597" y="1314" on="1"/>
        <pt x="474" y="1314" on="0"/>
        <pt x="344" y="1194" on="0"/>
        <pt x="344" y="1078" on="1"/>
        <pt x="344" y="1016" on="0"/>
        <pt x="359" y="959" on="1"/>
        <pt x="178" y="935" on="1"/>
        <pt x="160" y="998" on="0"/>
        <pt x="160" y="1072" on="1"/>
        <pt x="160" y="1260" on="0"/>
        <pt x="404" y="1486" on="0"/>
        <pt x="600" y="1486" on="1"/>
        <pt x="792" y="1486" on="0"/>
        <pt x="1017" y="1267" on="0"/>
        <pt x="1017" y="1081" on="1"/>
        <pt x="1017" y="818" on="0"/>
        <pt x="800" y="555" on="1"/>
        <pt x="743" y="486" on="0"/>
        <pt x="646" y="367" on="0"/>
        <pt x="582" y="263" on="0"/>
        <pt x="582" y="216" on="1"/>
        <pt x="582" y="174" on="0"/>
        <pt x="620" y="132" on="0"/>
        <pt x="664" y="132" on="1"/>
        <pt x="758" y="132" on="0"/>
        <pt x="832" y="243" on="1"/>
        <pt x="868" y="293" on="1"/>
      </contour>
    </TTGlyph>
    <TTGlyph name="glyph00018" xMin="160" yMin="-30" xMax="1174" yMax="1486">
      <contour>
        <pt x="1015" y="212" on="1"/>
        <pt x="933" y="79" on="0"/>
        <pt x="769" y="-30" on="0"/>
        <pt x="657" y="-30" on="1"/>
        <pt x="570" y="-30" on="0"/>
        <pt x="458" y="39" on="0"/>
        <pt x="398" y="150" on="0"/>
        <pt x="398" y="213" on="1"/>
        <pt x="398" y="280" on="0"/>
        <pt x="483" y="428" on="0"/>
        <pt x="610" y="578" on="1"/>
        <pt x="714" y="701" on="0"/>
        <pt x="822" y="942" on="0"/>
        <pt x="822" y="1066" on="1"/>
        <pt x="822" y="1178" on="0"/>
        <pt x="701" y="1314" on="0"/>
        <pt x="597" y="1314" on="1"/>
        <pt x="474" y="1314" on="0"/>
        <pt x="344" y="1194" on="0"/>
        <pt x="344" y="1078" on="1"/>
        <pt x="344" y="1016" on="0"/>
        <pt x="359" y="959" on="1"/>
        <pt x="178" y="935" on="1"/>
        <pt x="160" y="998" on="0"/>
        <pt x="160" y="1072" on="1"/>
        <pt x="160" y="1260" on="0"/>
        <pt x="404" y="1486" on="0"/>
        <pt x="600" y="1486" on="1"/>
        <pt x="792" y="1486" on="0"/>
        <pt x="1017" y="1267" on="0"/>
        <pt x="1017" y="1081" on="1"/>
        <pt x="1017" y="918" on="0"/>
        <pt x="934" y="756" on="1"/>
        <pt x="1174" y="592" on="1"/>
        <pt x="1079" y="458" on="1"/>
        <pt x="851" y="623" on="1"/>
        <pt x="805" y="558" on="0"/>
        <pt x="709" y="446" on="0"/>
        <pt x="631" y="346" on="0"/>
        <pt x="582" y="257" on="0"/>
        <pt x="582" y="216" on="1"/>
        <pt x="582" y="174" on="0"/>
        <pt x="620" y="132" on="0"/>
        <pt x="664" y="132" on="1"/>
        <pt x="758" y="132" on="0"/>
        <pt x="832" y="243" on="1"/>
        <pt x="868" y="293" on="1"/>
      </contour>
    </TTGlyph>
    <TTGlyph name="glyph00019" xMin="100" yMin="0" xMax="1249" yMax="1472">
      <contour>
        <pt x="582" y="1472" on="1"/>
        <pt x="767" y="1472" on="1"/>
        <pt x="1249" y="0" on="1"/>
        <pt x="100" y="0" on="1"/>
      </contour>
      <contour>
        <pt x="352" y="164" on="1"/>
        <pt x="994" y="164" on="1"/>
        <pt x="674" y="1237" on="1"/>
      </contour>
    </TTGlyph>
    <TTGlyph name="glyph00020" xMin="100" yMin="0" xMax="1249" yMax="1462">
      <contour>
        <pt x="213" y="1462" on="1"/>
        <pt x="767" y="1462" on="1"/>
        <pt x="1249" y="0" on="1"/>
        <pt x="100" y="0" on="1"/>
        <pt x="528" y="1298" on="1"/>
        <pt x="213" y="1298" on="1"/>
      </contour>
      <contour>
        <pt x="352" y="164" on="1"/>
        <pt x="994" y="164" on="1"/>
        <pt x="674" y="1227" on="1"/>
      </contour>
    </TTGlyph>
    <TTGlyph name="glyph00021" xMin="100" yMin="0" xMax="1142" yMax="1462">
      <contour>
        <pt x="603" y="1462" on="1"/>
        <pt x="603" y="164" on="1"/>
        <pt x="1142" y="164" on="1"/>
        <pt x="1142" y="0" on="1"/>
        <pt x="419" y="0" on="1"/>
        <pt x="419" y="1298" on="1"/>
        <pt x="100" y="1298" on="1"/>
        <pt x="100" y="1462" on="1"/>
      </contour>
    </TTGlyph>
    <TTGlyph name="glyph00022" xMin="100" yMin="0" xMax="1142" yMax="1462">
      <contour>
        <pt x="603" y="1462" on="1"/>
        <pt x="603" y="554" on="1"/>
        <pt x="1142" y="554" on="1"/>
        <pt x="1142" y="390" on="1"/>
        <pt x="603" y="390" on="1"/>
        <pt x="603" y="164" on="1"/>
        <pt x="1142" y="164" on="1"/>
        <pt x="1142" y="0" on="1"/>
        <pt x="419" y="0" on="1"/>
        <pt x="419" y="1298" on="1"/>
        <pt x="100" y="1298" on="1"/>
        <pt x="100" y="1462" on="1"/>
      </contour>
    </TTGlyph>
    <TTGlyph name="glyph00023" xMin="160" yMin="0" xMax="1384" yMax="1462">
      <contour>
        <pt x="680" y="0" on="1"/>
        <pt x="680" y="682" on="1"/>
        <pt x="160" y="682" on="1"/>
        <pt x="160" y="844" on="1"/>
        <pt x="680" y="844" on="1"/>
        <pt x="680" y="1462" on="1"/>
        <pt x="864" y="1462" on="1"/>
        <pt x="864" y="844" on="1"/>
        <pt x="1384" y="844" on="1"/>
        <pt x="1384" y="682" on="1"/>
        <pt x="864" y="682" on="1"/>
        <pt x="864" y="0" on="1"/>
      </contour>
    </TTGlyph>
    <TTGlyph name="glyph00024" xMin="160" yMin="0" xMax="1047" yMax="1486">
      <contour>
        <pt x="160" y="945" on="1"/>
        <pt x="160" y="951" on="1"/>
        <pt x="160" y="1159" on="0"/>
        <pt x="251" y="1376" on="0"/>
        <pt x="447" y="1486" on="0"/>
        <pt x="610" y="1486" on="1"/>
        <pt x="768" y="1486" on="0"/>
        <pt x="959" y="1377" on="0"/>
        <pt x="1047" y="1155" on="0"/>
        <pt x="1047" y="946" on="1"/>
        <pt x="1047" y="0" on="1"/>
        <pt x="863" y="0" on="1"/>
        <pt x="863" y="952" on="1"/>
        <pt x="863" y="1112" on="0"/>
        <pt x="816" y="1250" on="0"/>
        <pt x="707" y="1314" on="0"/>
        <pt x="609" y="1314" on="1"/>
        <pt x="510" y="1314" on="0"/>
        <pt x="395" y="1246" on="0"/>
        <pt x="344" y="1104" on="0"/>
        <pt x="344" y="951" on="1"/>
        <pt x="344" y="945" on="1"/>
      </contour>
    </TTGlyph>
    <TTGlyph name="glyph00025" xMin="100" yMin="0" xMax="1249" yMax="1462">
      <contour>
        <pt x="582" y="1462" on="1"/>
        <pt x="767" y="1462" on="1"/>
        <pt x="1249" y="0" on="1"/>
        <pt x="1044" y="0" on="1"/>
        <pt x="674" y="1227" on="1"/>
        <pt x="303" y="0" on="1"/>
        <pt x="100" y="0" on="1"/>
      </contour>
    </TTGlyph>
    <TTGlyph name="glyph00026" xMin="200" yMin="-24" xMax="1278" yMax="1462">
      <contour>
        <pt x="1278" y="567" on="1"/>
        <pt x="1278" y="511" on="1"/>
        <pt x="1278" y="299" on="0"/>
        <pt x="1162" y="79" on="0"/>
        <pt x="920" y="-24" on="0"/>
        <pt x="727" y="-24" on="1"/>
        <pt x="540" y="-24" on="0"/>
        <pt x="309" y="89" on="0"/>
        <pt x="200" y="314" on="0"/>
        <pt x="200" y="516" on="1"/>
        <pt x="200" y="1462" on="1"/>
        <pt x="384" y="1462" on="1"/>
        <pt x="384" y="510" on="1"/>
        <pt x="384" y="376" on="0"/>
        <pt x="435" y="234" on="0"/>
        <pt x="550" y="159" on="0"/>
        <pt x="647" y="151" on="1"/>
        <pt x="647" y="561" on="1"/>
        <pt x="831" y="561" on="1"/>
        <pt x="831" y="153" on="1"/>
        <pt x="933" y="164" on="0"/>
        <pt x="1044" y="237" on="0"/>
        <pt x="1094" y="378" on="0"/>
        <pt x="1094" y="511" on="1"/>
        <pt x="1094" y="567" on="1"/>
      </contour>
    </TTGlyph>
    <TTGlyph name="glyph00027" xMin="200" yMin="0" xMax="923" yMax="1462">
      <contour>
        <pt x="200" y="0" on="1"/>
        <pt x="200" y="1462" on="1"/>
        <pt x="923" y="1462" on="1"/>
        <pt x="923" y="1298" on="1"/>
        <pt x="384" y="1298" on="1"/>
        <pt x="384" y="164" on="1"/>
        <pt x="923" y="164" on="1"/>
        <pt x="923" y="0" on="1"/>
      </contour>
    </TTGlyph>
    <TTGlyph name="glyph00028" xMin="160" yMin="0" xMax="910" yMax="1462">
      <contour>
        <pt x="910" y="0" on="1"/>
        <pt x="646" y="0" on="1"/>
        <pt x="415" y="0" on="0"/>
        <pt x="160" y="179" on="0"/>
        <pt x="160" y="337" on="1"/>
        <pt x="160" y="527" on="0"/>
        <pt x="429" y="706" on="0"/>
        <pt x="708" y="706" on="1"/>
        <pt x="726" y="706" on="1"/>
        <pt x="726" y="1462" on="1"/>
        <pt x="910" y="1462" on="1"/>
      </contour>
      <contour>
        <pt x="726" y="542" on="1"/>
        <pt x="574" y="542" on="0"/>
        <pt x="422" y="507" on="0"/>
        <pt x="355" y="424" on="0"/>
        <pt x="355" y="345" on="1"/>
        <pt x="355" y="249" on="0"/>
        <pt x="541" y="164" on="0"/>
        <pt x="726" y="164" on="1"/>
      </contour>
    </TTGlyph>
    <TTGlyph name="glyph00029" xMin="130" yMin="-24" xMax="1118" yMax="1462">
      <contour>
        <pt x="130" y="454" on="1"/>
        <pt x="130" y="632" on="0"/>
        <pt x="359" y="894" on="0"/>
        <pt x="532" y="924" on="1"/>
        <pt x="532" y="1462" on="1"/>
        <pt x="716" y="1462" on="1"/>
        <pt x="716" y="924" on="1"/>
        <pt x="889" y="894" on="0"/>
        <pt x="1118" y="631" on="0"/>
        <pt x="1118" y="454" on="1"/>
        <pt x="1118" y="324" on="0"/>
        <pt x="986" y="102" on="0"/>
        <pt x="757" y="-24" on="0"/>
        <pt x="624" y="-24" on="1"/>
        <pt x="490" y="-24" on="0"/>
        <pt x="261" y="104" on="0"/>
        <pt x="130" y="326" on="0"/>
      </contour>
      <contour>
        <pt x="934" y="458" on="1"/>
        <pt x="934" y="562" on="0"/>
        <pt x="812" y="726" on="0"/>
        <pt x="716" y="756" on="1"/>
        <pt x="716" y="152" on="1"/>
        <pt x="813" y="184" on="0"/>
        <pt x="934" y="354" on="0"/>
      </contour>
      <contour>
        <pt x="314" y="458" on="1"/>
        <pt x="314" y="356" on="0"/>
        <pt x="436" y="184" on="0"/>
        <pt x="532" y="153" on="1"/>
        <pt x="532" y="755" on="1"/>
        <pt x="434" y="724" on="0"/>
        <pt x="314" y="559" on="0"/>
      </contour>
    </TTGlyph>
    <TTGlyph name="glyph00030" xMin="160" yMin="0" xMax="902" yMax="1462">
      <contour>
        <pt x="902" y="0" on="1"/>
        <pt x="655" y="0" on="1"/>
        <pt x="502" y="0" on="0"/>
        <pt x="279" y="96" on="0"/>
        <pt x="160" y="271" on="0"/>
        <pt x="160" y="384" on="1"/>
        <pt x="160" y="504" on="0"/>
        <pt x="269" y="686" on="0"/>
        <pt x="366" y="738" on="1"/>
        <pt x="268" y="789" on="0"/>
        <pt x="160" y="962" on="0"/>
        <pt x="160" y="1078" on="1"/>
        <pt x="160" y="1187" on="0"/>
        <pt x="287" y="1364" on="0"/>
        <pt x="520" y="1462" on="0"/>
        <pt x="675" y="1462" on="1"/>
        <pt x="902" y="1462" on="1"/>
        <pt x="902" y="1298" on="1"/>
        <pt x="660" y="1298" on="1"/>
        <pt x="521" y="1298" on="0"/>
        <pt x="355" y="1180" on="0"/>
        <pt x="355" y="1077" on="1"/>
        <pt x="355" y="941" on="0"/>
        <pt x="538" y="820" on="0"/>
        <pt x="734" y="820" on="1"/>
        <pt x="864" y="820" on="1"/>
        <pt x="864" y="656" on="1"/>
        <pt x="734" y="656" on="1"/>
        <pt x="544" y="656" on="0"/>
        <pt x="355" y="525" on="0"/>
        <pt x="355" y="385" on="1"/>
        <pt x="355" y="280" on="0"/>
        <pt x="512" y="164" on="0"/>
        <pt x="649" y="164" on="1"/>
        <pt x="902" y="164" on="1"/>
      </contour>
    </TTGlyph>
    <TTGlyph name="glyph00031" xMin="200" yMin="0" xMax="1056" yMax="1462">
      <contour>
        <pt x="200" y="0" on="1"/>
        <pt x="200" y="1462" on="1"/>
        <pt x="384" y="1462" on="1"/>
        <pt x="384" y="884" on="1"/>
        <pt x="426" y="848" on="0"/>
        <pt x="552" y="798" on="0"/>
        <pt x="626" y="798" on="1"/>
        <pt x="761" y="798" on="0"/>
        <pt x="872" y="924" on="0"/>
        <pt x="872" y="1063" on="1"/>
        <pt x="872" y="1462" on="1"/>
        <pt x="1056" y="1462" on="1"/>
        <pt x="1056" y="1028" on="1"/>
        <pt x="1056" y="818" on="0"/>
        <pt x="848" y="627" on="0"/>
        <pt x="648" y="627" on="1"/>
        <pt x="573" y="627" on="0"/>
        <pt x="433" y="664" on="0"/>
        <pt x="384" y="697" on="1"/>
        <pt x="384" y="0" on="1"/>
      </contour>
    </TTGlyph>
    <TTGlyph name="glyph00032" xMin="100" yMin="0" xMax="1165" yMax="1462">
      <contour>
        <pt x="603" y="1462" on="1"/>
        <pt x="603" y="1012" on="1"/>
        <pt x="678" y="1035" on="0"/>
        <pt x="757" y="1035" on="1"/>
        <pt x="957" y="1035" on="0"/>
        <pt x="1165" y="844" on="0"/>
        <pt x="1165" y="634" on="1"/>
        <pt x="1165" y="349" on="1"/>
        <pt x="981" y="349" on="1"/>
        <pt x="981" y="599" on="1"/>
        <pt x="981" y="738" on="0"/>
        <pt x="869" y="864" on="0"/>
        <pt x="735" y="864" on="1"/>
        <pt x="662" y="864" on="0"/>
        <pt x="603" y="845" on="1"/>
        <pt x="603" y="0" on="1"/>
        <pt x="419" y="0" on="1"/>
        <pt x="419" y="1298" on="1"/>
        <pt x="100" y="1298" on="1"/>
        <pt x="100" y="1462" on="1"/>
      </contour>
    </TTGlyph>
    <TTGlyph name="glyph00033" xMin="160" yMin="0" xMax="895" yMax="1462">
      <contour>
        <pt x="895" y="0" on="1"/>
        <pt x="832" y="0" on="1"/>
        <pt x="504" y="0" on="0"/>
        <pt x="160" y="378" on="0"/>
        <pt x="160" y="733" on="1"/>
        <pt x="160" y="1074" on="0"/>
        <pt x="531" y="1462" on="0"/>
        <pt x="862" y="1462" on="1"/>
        <pt x="895" y="1462" on="1"/>
        <pt x="895" y="1298" on="1"/>
        <pt x="860" y="1298" on="1"/>
        <pt x="620" y="1298" on="0"/>
        <pt x="354" y="1000" on="0"/>
        <pt x="354" y="731" on="1"/>
        <pt x="354" y="459" on="0"/>
        <pt x="613" y="164" on="0"/>
        <pt x="858" y="164" on="1"/>
        <pt x="895" y="164" on="1"/>
      </contour>
    </TTGlyph>
    <TTGlyph name="glyph00034" xMin="160" yMin="56" xMax="1516" yMax="1412">
      <contour>
        <pt x="355" y="735" on="1"/>
        <pt x="355" y="598" on="0"/>
        <pt x="482" y="364" on="0"/>
        <pt x="705" y="228" on="0"/>
        <pt x="838" y="228" on="1"/>
        <pt x="969" y="228" on="0"/>
        <pt x="1194" y="364" on="0"/>
        <pt x="1321" y="597" on="0"/>
        <pt x="1321" y="735" on="1"/>
        <pt x="1321" y="871" on="0"/>
        <pt x="1194" y="1105" on="0"/>
        <pt x="970" y="1240" on="0"/>
        <pt x="838" y="1240" on="1"/>
        <pt x="705" y="1240" on="0"/>
        <pt x="483" y="1106" on="0"/>
        <pt x="355" y="871" on="0"/>
      </contour>
      <contour>
        <pt x="160" y="734" on="1"/>
        <pt x="160" y="921" on="0"/>
        <pt x="334" y="1234" on="0"/>
        <pt x="647" y="1412" on="0"/>
        <pt x="838" y="1412" on="1"/>
        <pt x="1029" y="1412" on="0"/>
        <pt x="1343" y="1234" on="0"/>
        <pt x="1516" y="920" on="0"/>
        <pt x="1516" y="734" on="1"/>
        <pt x="1516" y="547" on="0"/>
        <pt x="1342" y="234" on="0"/>
        <pt x="1030" y="56" on="0"/>
        <pt x="838" y="56" on="1"/>
        <pt x="646" y="56" on="0"/>
        <pt x="334" y="234" on="0"/>
        <pt x="160" y="546" on="0"/>
      </contour>
    </TTGlyph>
    <TTGlyph name="glyph00035" xMin="160" yMin="0" xMax="834" yMax="1462">
      <contour>
        <pt x="344" y="680" on="1"/>
        <pt x="344" y="0" on="1"/>
        <pt x="160" y="0" on="1"/>
        <pt x="160" y="844" on="1"/>
        <pt x="650" y="844" on="1"/>
        <pt x="650" y="1462" on="1"/>
        <pt x="834" y="1462" on="1"/>
        <pt x="834" y="680" on="1"/>
      </contour>
    </TTGlyph>
    <TTGlyph name="glyph00036" xMin="130" yMin="-24" xMax="1099" yMax="1462">
      <contour>
        <pt x="498" y="398" on="1"/>
        <pt x="533" y="494" on="0"/>
        <pt x="685" y="612" on="0"/>
        <pt x="804" y="612" on="1"/>
        <pt x="937" y="612" on="0"/>
        <pt x="1099" y="459" on="0"/>
        <pt x="1099" y="331" on="1"/>
        <pt x="1099" y="162" on="0"/>
        <pt x="843" y="-24" on="0"/>
        <pt x="614" y="-24" on="1"/>
        <pt x="478" y="-24" on="0"/>
        <pt x="254" y="94" on="0"/>
        <pt x="130" y="301" on="0"/>
        <pt x="130" y="429" on="1"/>
        <pt x="130" y="544" on="0"/>
        <pt x="234" y="743" on="0"/>
        <pt x="425" y="876" on="0"/>
        <pt x="543" y="896" on="1"/>
        <pt x="543" y="1462" on="1"/>
        <pt x="727" y="1462" on="1"/>
        <pt x="727" y="742" on="1"/>
        <pt x="635" y="742" on="1"/>
        <pt x="505" y="742" on="0"/>
        <pt x="325" y="561" on="0"/>
        <pt x="325" y="433" on="1"/>
        <pt x="325" y="300" on="0"/>
        <pt x="489" y="148" on="0"/>
        <pt x="635" y="148" on="1"/>
        <pt x="765" y="148" on="0"/>
        <pt x="915" y="241" on="0"/>
        <pt x="915" y="331" on="1"/>
        <pt x="915" y="391" on="0"/>
        <pt x="861" y="450" on="0"/>
        <pt x="818" y="450" on="1"/>
        <pt x="713" y="450" on="0"/>
        <pt x="669" y="318" on="1"/>
      </contour>
    </TTGlyph>
    <TTGlyph name="glyph00037" xMin="100" yMin="0" xMax="1002" yMax="1462">
      <contour>
        <pt x="1002" y="1462" on="1"/>
        <pt x="1002" y="1298" on="1"/>
        <pt x="643" y="1298" on="1"/>
        <pt x="643" y="164" on="1"/>
        <pt x="1002" y="164" on="1"/>
        <pt x="1002" y="0" on="1"/>
        <pt x="100" y="0" on="1"/>
        <pt x="100" y="164" on="1"/>
        <pt x="459" y="164" on="1"/>
        <pt x="459" y="1298" on="1"/>
        <pt x="100" y="1298" on="1"/>
        <pt x="100" y="1462" on="1"/>
      </contour>
    </TTGlyph>
    <TTGlyph name="glyph00038" xMin="60" yMin="0" xMax="1219" yMax="1462">
      <contour>
        <pt x="261" y="0" on="1"/>
        <pt x="60" y="0" on="1"/>
        <pt x="547" y="903" on="1"/>
        <pt x="547" y="1462" on="1"/>
        <pt x="732" y="1462" on="1"/>
        <pt x="732" y="895" on="1"/>
        <pt x="1219" y="0" on="1"/>
        <pt x="1021" y="0" on="1"/>
        <pt x="640" y="719" on="1"/>
      </contour>
    </TTGlyph>
    <TTGlyph name="glyph00039" xMin="160" yMin="56" xMax="1516" yMax="1412">
      <contour>
        <pt x="355" y="735" on="1"/>
        <pt x="355" y="598" on="0"/>
        <pt x="482" y="364" on="0"/>
        <pt x="705" y="228" on="0"/>
        <pt x="838" y="228" on="1"/>
        <pt x="969" y="228" on="0"/>
        <pt x="1194" y="364" on="0"/>
        <pt x="1321" y="597" on="0"/>
        <pt x="1321" y="735" on="1"/>
        <pt x="1321" y="871" on="0"/>
        <pt x="1194" y="1105" on="0"/>
        <pt x="970" y="1240" on="0"/>
        <pt x="838" y="1240" on="1"/>
        <pt x="705" y="1240" on="0"/>
        <pt x="483" y="1106" on="0"/>
        <pt x="355" y="871" on="0"/>
      </contour>
      <contour>
        <pt x="160" y="734" on="1"/>
        <pt x="160" y="921" on="0"/>
        <pt x="334" y="1234" on="0"/>
        <pt x="647" y="1412" on="0"/>
        <pt x="838" y="1412" on="1"/>
        <pt x="1029" y="1412" on="0"/>
        <pt x="1343" y="1234" on="0"/>
        <pt x="1516" y="920" on="0"/>
        <pt x="1516" y="734" on="1"/>
        <pt x="1516" y="547" on="0"/>
        <pt x="1342" y="234" on="0"/>
        <pt x="1030" y="56" on="0"/>
        <pt x="838" y="56" on="1"/>
        <pt x="646" y="56" on="0"/>
        <pt x="334" y="234" on="0"/>
        <pt x="160" y="546" on="0"/>
      </contour>
      <contour>
        <pt x="711" y="741" on="1"/>
        <pt x="711" y="807" on="0"/>
        <pt x="774" y="880" on="0"/>
        <pt x="836" y="880" on="1"/>
        <pt x="899" y="880" on="0"/>
        <pt x="965" y="808" on="0"/>
        <pt x="965" y="741" on="1"/>
        <pt x="965" y="677" on="0"/>
        <pt x="897" y="602" on="0"/>
        <pt x="836" y="602" on="1"/>
        <pt x="777" y="602" on="0"/>
        <pt x="711" y="676" on="0"/>
      </contour>
    </TTGlyph>
    <TTGlyph name="glyph00040" xMin="200" yMin="0" xMax="786" yMax="1462">
      <contour>
        <pt x="384" y="1154" on="1"/>
        <pt x="561" y="1139" on="0"/>
        <pt x="786" y="883" on="0"/>
        <pt x="786" y="694" on="1"/>
        <pt x="786" y="516" on="0"/>
        <pt x="563" y="265" on="0"/>
        <pt x="384" y="243" on="1"/>
        <pt x="384" y="0" on="1"/>
        <pt x="200" y="0" on="1"/>
        <pt x="200" y="387" on="1"/>
        <pt x="264" y="387" on="1"/>
        <pt x="356" y="387" on="0"/>
        <pt x="512" y="465" on="0"/>
        <pt x="602" y="608" on="0"/>
        <pt x="602" y="698" on="1"/>
        <pt x="602" y="835" on="0"/>
        <pt x="413" y="1010" on="0"/>
        <pt x="264" y="1010" on="1"/>
        <pt x="200" y="1010" on="1"/>
        <pt x="200" y="1462" on="1"/>
        <pt x="384" y="1462" on="1"/>
      </contour>
    </TTGlyph>
    <TTGlyph name="glyph00041" xMin="200" yMin="0" xMax="1086" yMax="1462">
      <contour>
        <pt x="200" y="0" on="1"/>
        <pt x="200" y="1462" on="1"/>
        <pt x="384" y="1462" on="1"/>
        <pt x="714" y="1462" on="0"/>
        <pt x="1086" y="1074" on="0"/>
        <pt x="1086" y="733" on="1"/>
        <pt x="1086" y="378" on="0"/>
        <pt x="742" y="0" on="0"/>
        <pt x="414" y="0" on="1"/>
      </contour>
      <contour>
        <pt x="384" y="164" on="1"/>
        <pt x="388" y="164" on="1"/>
        <pt x="632" y="164" on="0"/>
        <pt x="892" y="458" on="0"/>
        <pt x="892" y="731" on="1"/>
        <pt x="892" y="999" on="0"/>
        <pt x="625" y="1298" on="0"/>
        <pt x="384" y="1298" on="1"/>
      </contour>
    </TTGlyph>
    <TTGlyph name="glyph00042" xMin="100" yMin="0" xMax="1002" yMax="1462">
      <contour>
        <pt x="643" y="1462" on="1"/>
        <pt x="643" y="164" on="1"/>
        <pt x="1002" y="164" on="1"/>
        <pt x="1002" y="0" on="1"/>
        <pt x="100" y="0" on="1"/>
        <pt x="100" y="164" on="1"/>
        <pt x="459" y="164" on="1"/>
        <pt x="459" y="1462" on="1"/>
      </contour>
    </TTGlyph>
    <TTGlyph name="glyph00043" xMin="200" yMin="-24" xMax="1087" yMax="1462">
      <contour>
        <pt x="1087" y="517" on="1"/>
        <pt x="1087" y="511" on="1"/>
        <pt x="1087" y="303" on="0"/>
        <pt x="996" y="86" on="0"/>
        <pt x="800" y="-24" on="0"/>
        <pt x="637" y="-24" on="1"/>
        <pt x="478" y="-24" on="0"/>
        <pt x="288" y="85" on="0"/>
        <pt x="200" y="306" on="0"/>
        <pt x="200" y="516" on="1"/>
        <pt x="200" y="1462" on="1"/>
        <pt x="384" y="1462" on="1"/>
        <pt x="384" y="510" on="1"/>
        <pt x="384" y="350" on="0"/>
        <pt x="431" y="212" on="0"/>
        <pt x="540" y="148" on="0"/>
        <pt x="638" y="148" on="1"/>
        <pt x="737" y="148" on="0"/>
        <pt x="851" y="217" on="0"/>
        <pt x="903" y="357" on="0"/>
        <pt x="903" y="511" on="1"/>
        <pt x="903" y="517" on="1"/>
      </contour>
    </TTGlyph>
    <TTGlyph name="glyph00044" xMin="200" yMin="-24" xMax="1050" yMax="1462">
      <contour>
        <pt x="467" y="784" on="1"/>
        <pt x="549" y="819" on="0"/>
        <pt x="638" y="819" on="1"/>
        <pt x="826" y="819" on="0"/>
        <pt x="1050" y="599" on="0"/>
        <pt x="1050" y="420" on="1"/>
        <pt x="1050" y="294" on="0"/>
        <pt x="944" y="92" on="0"/>
        <pt x="747" y="-24" on="0"/>
        <pt x="615" y="-24" on="1"/>
        <pt x="401" y="-24" on="0"/>
        <pt x="200" y="206" on="0"/>
        <pt x="200" y="441" on="1"/>
        <pt x="200" y="1462" on="1"/>
        <pt x="384" y="1462" on="1"/>
        <pt x="384" y="441" on="1"/>
        <pt x="384" y="325" on="0"/>
        <pt x="431" y="206" on="0"/>
        <pt x="532" y="148" on="0"/>
        <pt x="615" y="148" on="1"/>
        <pt x="856" y="148" on="0"/>
        <pt x="856" y="418" on="1"/>
        <pt x="856" y="519" on="0"/>
        <pt x="745" y="647" on="0"/>
        <pt x="657" y="647" on="1"/>
        <pt x="600" y="647" on="0"/>
        <pt x="543" y="630" on="1"/>
      </contour>
    </TTGlyph>
    <TTGlyph name="glyph00045" xMin="200" yMin="144" xMax="1383" yMax="1336">
      <contour>
        <pt x="200" y="144" on="1"/>
        <pt x="200" y="1336" on="1"/>
        <pt x="1383" y="1336" on="1"/>
        <pt x="1383" y="144" on="1"/>
      </contour>
      <contour>
        <pt x="384" y="308" on="1"/>
        <pt x="1199" y="308" on="1"/>
        <pt x="1199" y="1172" on="1"/>
        <pt x="384" y="1172" on="1"/>
      </contour>
    </TTGlyph>
    <TTGlyph name="glyph00046" xMin="200" yMin="0" xMax="1700" yMax="1462">
      <contour>
        <pt x="1159" y="0" on="1"/>
        <pt x="1159" y="861" on="1"/>
        <pt x="384" y="861" on="1"/>
        <pt x="384" y="0" on="1"/>
        <pt x="200" y="0" on="1"/>
        <pt x="200" y="1025" on="1"/>
        <pt x="1516" y="1025" on="1"/>
        <pt x="1516" y="1462" on="1"/>
        <pt x="1700" y="1462" on="1"/>
        <pt x="1700" y="861" on="1"/>
        <pt x="1343" y="861" on="1"/>
        <pt x="1343" y="0" on="1"/>
      </contour>
    </TTGlyph>
    <TTGlyph name="glyph00047" xMin="160" yMin="-24" xMax="1270" yMax="1462">
      <contour>
        <pt x="344" y="1380" on="1"/>
        <pt x="344" y="1285" on="0"/>
        <pt x="406" y="1145" on="0"/>
        <pt x="510" y="1037" on="0"/>
        <pt x="644" y="949" on="0"/>
        <pt x="715" y="905" on="1"/>
        <pt x="786" y="949" on="0"/>
        <pt x="920" y="1037" on="0"/>
        <pt x="1023" y="1145" on="0"/>
        <pt x="1086" y="1285" on="0"/>
        <pt x="1086" y="1380" on="1"/>
        <pt x="1086" y="1462" on="1"/>
        <pt x="1270" y="1462" on="1"/>
        <pt x="1270" y="1380" on="1"/>
        <pt x="1270" y="1291" on="0"/>
        <pt x="1229" y="1142" on="0"/>
        <pt x="1150" y="1017" on="0"/>
        <pt x="1015" y="894" on="0"/>
        <pt x="875" y="809" on="1"/>
        <pt x="1022" y="712" on="0"/>
        <pt x="1152" y="491" on="0"/>
        <pt x="1152" y="357" on="1"/>
        <pt x="1152" y="175" on="0"/>
        <pt x="923" y="-24" on="0"/>
        <pt x="711" y="-24" on="1"/>
        <pt x="503" y="-24" on="0"/>
        <pt x="279" y="176" on="0"/>
        <pt x="279" y="357" on="1"/>
        <pt x="279" y="494" on="0"/>
        <pt x="413" y="713" on="0"/>
        <pt x="557" y="806" on="1"/>
        <pt x="393" y="904" on="0"/>
        <pt x="240" y="1061" on="0"/>
        <pt x="160" y="1254" on="0"/>
        <pt x="160" y="1380" on="1"/>
        <pt x="160" y="1462" on="1"/>
        <pt x="344" y="1462" on="1"/>
      </contour>
      <contour>
        <pt x="718" y="716" on="1"/>
        <pt x="594" y="639" on="0"/>
        <pt x="473" y="469" on="0"/>
        <pt x="473" y="365" on="1"/>
        <pt x="473" y="255" on="0"/>
        <pt x="600" y="148" on="0"/>
        <pt x="711" y="148" on="1"/>
        <pt x="828" y="148" on="0"/>
        <pt x="957" y="254" on="0"/>
        <pt x="957" y="365" on="1"/>
        <pt x="957" y="469" on="0"/>
        <pt x="841" y="638" on="0"/>
      </contour>
    </TTGlyph>
    <TTGlyph name="glyph00048" xMin="130" yMin="-24" xMax="1522" yMax="1462">
      <contour>
        <pt x="314" y="515" on="1"/>
        <pt x="314" y="446" on="1"/>
        <pt x="314" y="280" on="0"/>
        <pt x="404" y="148" on="0"/>
        <pt x="520" y="148" on="1"/>
        <pt x="640" y="148" on="0"/>
        <pt x="734" y="278" on="0"/>
        <pt x="734" y="426" on="1"/>
        <pt x="734" y="1462" on="1"/>
        <pt x="918" y="1462" on="1"/>
        <pt x="918" y="426" on="1"/>
        <pt x="918" y="323" on="0"/>
        <pt x="961" y="202" on="0"/>
        <pt x="1049" y="148" on="0"/>
        <pt x="1132" y="148" on="1"/>
        <pt x="1248" y="148" on="0"/>
        <pt x="1338" y="280" on="0"/>
        <pt x="1338" y="446" on="1"/>
        <pt x="1338" y="515" on="1"/>
        <pt x="1522" y="515" on="1"/>
        <pt x="1522" y="446" on="1"/>
        <pt x="1522" y="194" on="0"/>
        <pt x="1330" y="-24" on="0"/>
        <pt x="1121" y="-24" on="1"/>
        <pt x="916" y="-24" on="0"/>
        <pt x="826" y="85" on="1"/>
        <pt x="735" y="-24" on="0"/>
        <pt x="531" y="-24" on="1"/>
        <pt x="323" y="-24" on="0"/>
        <pt x="130" y="193" on="0"/>
        <pt x="130" y="446" on="1"/>
        <pt x="130" y="515" on="1"/>
      </contour>
    </TTGlyph>
    <TTGlyph name="glyph00049" xMin="240" yMin="0" xMax="424" yMax="1462">
      <contour>
        <pt x="240" y="0" on="1"/>
        <pt x="240" y="1462" on="1"/>
        <pt x="424" y="1462" on="1"/>
        <pt x="424" y="0" on="1"/>
      </contour>
    </TTGlyph>
    <TTGlyph name="glyph00050" xMin="100" yMin="-24" xMax="1300" yMax="1462">
      <contour>
        <pt x="596" y="515" on="1"/>
        <pt x="596" y="361" on="0"/>
        <pt x="648" y="220" on="0"/>
        <pt x="764" y="150" on="0"/>
        <pt x="862" y="150" on="1"/>
        <pt x="958" y="150" on="0"/>
        <pt x="1068" y="218" on="0"/>
        <pt x="1116" y="356" on="0"/>
        <pt x="1116" y="514" on="1"/>
        <pt x="1116" y="1462" on="1"/>
        <pt x="1300" y="1462" on="1"/>
        <pt x="1300" y="520" on="1"/>
        <pt x="1300" y="310" on="0"/>
        <pt x="1211" y="87" on="0"/>
        <pt x="1019" y="-24" on="0"/>
        <pt x="863" y="-24" on="1"/>
        <pt x="724" y="-24" on="0"/>
        <pt x="538" y="59" on="0"/>
        <pt x="437" y="219" on="0"/>
        <pt x="420" y="359" on="1"/>
        <pt x="100" y="359" on="1"/>
        <pt x="100" y="523" on="1"/>
        <pt x="596" y="523" on="1"/>
      </contour>
    </TTGlyph>
    <TTGlyph name="glyph00051" xMin="130" yMin="-24" xMax="912" yMax="1462">
      <contour>
        <pt x="130" y="351" on="1"/>
        <pt x="130" y="481" on="0"/>
        <pt x="295" y="685" on="0"/>
        <pt x="429" y="716" on="1"/>
        <pt x="429" y="1462" on="1"/>
        <pt x="613" y="1462" on="1"/>
        <pt x="613" y="717" on="1"/>
        <pt x="747" y="686" on="0"/>
        <pt x="912" y="482" on="0"/>
        <pt x="912" y="351" on="1"/>
        <pt x="912" y="249" on="0"/>
        <pt x="809" y="77" on="0"/>
        <pt x="625" y="-24" on="0"/>
        <pt x="521" y="-24" on="1"/>
        <pt x="416" y="-24" on="0"/>
        <pt x="233" y="77" on="0"/>
        <pt x="130" y="249" on="0"/>
      </contour>
      <contour>
        <pt x="314" y="351" on="1"/>
        <pt x="314" y="264" on="0"/>
        <pt x="433" y="138" on="0"/>
        <pt x="521" y="138" on="1"/>
        <pt x="608" y="138" on="0"/>
        <pt x="728" y="263" on="0"/>
        <pt x="728" y="351" on="1"/>
        <pt x="728" y="440" on="0"/>
        <pt x="610" y="565" on="0"/>
        <pt x="521" y="565" on="1"/>
        <pt x="432" y="565" on="0"/>
        <pt x="314" y="440" on="0"/>
      </contour>
    </TTGlyph>
    <TTGlyph name="glyph00052" xMin="60" yMin="0" xMax="1289" yMax="1462">
      <contour>
        <pt x="592" y="0" on="1"/>
        <pt x="592" y="1100" on="1"/>
        <pt x="550" y="924" on="1"/>
        <pt x="253" y="0" on="1"/>
        <pt x="60" y="0" on="1"/>
        <pt x="587" y="1462" on="1"/>
        <pt x="762" y="1462" on="1"/>
        <pt x="1289" y="0" on="1"/>
        <pt x="1094" y="0" on="1"/>
        <pt x="801" y="912" on="1"/>
        <pt x="751" y="1121" on="1"/>
        <pt x="751" y="0" on="1"/>
      </contour>
    </TTGlyph>
    <TTGlyph name="glyph00053" xMin="200" yMin="-24" xMax="1087" yMax="1462">
      <contour>
        <pt x="1087" y="517" on="1"/>
        <pt x="1087" y="511" on="1"/>
        <pt x="1087" y="303" on="0"/>
        <pt x="996" y="86" on="0"/>
        <pt x="800" y="-24" on="0"/>
        <pt x="637" y="-24" on="1"/>
        <pt x="478" y="-24" on="0"/>
        <pt x="288" y="85" on="0"/>
        <pt x="200" y="306" on="0"/>
        <pt x="200" y="516" on="1"/>
        <pt x="200" y="1462" on="1"/>
        <pt x="384" y="1462" on="1"/>
        <pt x="384" y="918" on="1"/>
        <pt x="904" y="1088" on="1"/>
        <pt x="954" y="934" on="1"/>
        <pt x="384" y="748" on="1"/>
        <pt x="384" y="510" on="1"/>
        <pt x="384" y="350" on="0"/>
        <pt x="431" y="212" on="0"/>
        <pt x="540" y="148" on="0"/>
        <pt x="638" y="148" on="1"/>
        <pt x="737" y="148" on="0"/>
        <pt x="851" y="217" on="0"/>
        <pt x="903" y="357" on="0"/>
        <pt x="903" y="511" on="1"/>
        <pt x="903" y="517" on="1"/>
      </contour>
    </TTGlyph>
    <TTGlyph name="glyph00054" xMin="160" yMin="-24" xMax="1668" yMax="1462">
      <contour>
        <pt x="1668" y="517" on="1"/>
        <pt x="1668" y="511" on="1"/>
        <pt x="1668" y="319" on="0"/>
        <pt x="1567" y="93" on="0"/>
        <pt x="1356" y="-24" on="0"/>
        <pt x="1188" y="-24" on="1"/>
        <pt x="946" y="-24" on="0"/>
        <pt x="721" y="234" on="0"/>
        <pt x="721" y="516" on="1"/>
        <pt x="721" y="546" on="1"/>
        <pt x="665" y="564" on="0"/>
        <pt x="590" y="564" on="1"/>
        <pt x="455" y="564" on="0"/>
        <pt x="344" y="438" on="0"/>
        <pt x="344" y="299" on="1"/>
        <pt x="344" y="0" on="1"/>
        <pt x="160" y="0" on="1"/>
        <pt x="160" y="334" on="1"/>
        <pt x="160" y="544" on="0"/>
        <pt x="368" y="735" on="0"/>
        <pt x="568" y="735" on="1"/>
        <pt x="646" y="735" on="0"/>
        <pt x="721" y="712" on="1"/>
        <pt x="721" y="1462" on="1"/>
        <pt x="905" y="1462" on="1"/>
        <pt x="905" y="510" on="1"/>
        <pt x="905" y="308" on="0"/>
        <pt x="1037" y="148" on="0"/>
        <pt x="1189" y="148" on="1"/>
        <pt x="1342" y="148" on="0"/>
        <pt x="1484" y="316" on="0"/>
        <pt x="1484" y="511" on="1"/>
        <pt x="1484" y="517" on="1"/>
      </contour>
    </TTGlyph>
    <TTGlyph name="glyph00055" xMin="200" yMin="-24" xMax="1400" yMax="1462">
      <contour>
        <pt x="1400" y="359" on="1"/>
        <pt x="1080" y="359" on="1"/>
        <pt x="1058" y="157" on="0"/>
        <pt x="844" y="-24" on="0"/>
        <pt x="637" y="-24" on="1"/>
        <pt x="478" y="-24" on="0"/>
        <pt x="288" y="85" on="0"/>
        <pt x="200" y="306" on="0"/>
        <pt x="200" y="516" on="1"/>
        <pt x="200" y="1462" on="1"/>
        <pt x="384" y="1462" on="1"/>
        <pt x="384" y="510" on="1"/>
        <pt x="384" y="350" on="0"/>
        <pt x="431" y="212" on="0"/>
        <pt x="540" y="148" on="0"/>
        <pt x="638" y="148" on="1"/>
        <pt x="738" y="148" on="0"/>
        <pt x="852" y="218" on="0"/>
        <pt x="904" y="365" on="0"/>
        <pt x="904" y="523" on="1"/>
        <pt x="1400" y="523" on="1"/>
      </contour>
    </TTGlyph>
    <TTGlyph name="glyph00056" xMin="100" yMin="-24" xMax="1865" yMax="1462">
      <contour>
        <pt x="1300" y="711" on="1"/>
        <pt x="1375" y="735" on="0"/>
        <pt x="1457" y="735" on="1"/>
        <pt x="1657" y="735" on="0"/>
        <pt x="1865" y="544" on="0"/>
        <pt x="1865" y="334" on="1"/>
        <pt x="1865" y="0" on="1"/>
        <pt x="1681" y="0" on="1"/>
        <pt x="1681" y="299" on="1"/>
        <pt x="1681" y="438" on="0"/>
        <pt x="1569" y="564" on="0"/>
        <pt x="1435" y="564" on="1"/>
        <pt x="1357" y="564" on="0"/>
        <pt x="1300" y="544" on="1"/>
        <pt x="1300" y="516" on="1"/>
        <pt x="1300" y="306" on="0"/>
        <pt x="1211" y="85" on="0"/>
        <pt x="1020" y="-24" on="0"/>
        <pt x="863" y="-24" on="1"/>
        <pt x="657" y="-24" on="0"/>
        <pt x="442" y="157" on="0"/>
        <pt x="420" y="359" on="1"/>
        <pt x="100" y="359" on="1"/>
        <pt x="100" y="523" on="1"/>
        <pt x="596" y="523" on="1"/>
        <pt x="596" y="368" on="0"/>
        <pt x="647" y="219" on="0"/>
        <pt x="762" y="148" on="0"/>
        <pt x="862" y="148" on="1"/>
        <pt x="960" y="148" on="0"/>
        <pt x="1069" y="212" on="0"/>
        <pt x="1116" y="350" on="0"/>
        <pt x="1116" y="510" on="1"/>
        <pt x="1116" y="1462" on="1"/>
        <pt x="1300" y="1462" on="1"/>
      </contour>
    </TTGlyph>
    <TTGlyph name="glyph00057" xMin="130" yMin="0" xMax="1092" yMax="1482">
      <contour>
        <pt x="250" y="1077" on="1"/>
        <pt x="250" y="1188" on="0"/>
        <pt x="362" y="1374" on="0"/>
        <pt x="560" y="1482" on="0"/>
        <pt x="671" y="1482" on="1"/>
        <pt x="784" y="1482" on="0"/>
        <pt x="980" y="1374" on="0"/>
        <pt x="1092" y="1188" on="0"/>
        <pt x="1092" y="1077" on="1"/>
        <pt x="1092" y="931" on="0"/>
        <pt x="905" y="712" on="0"/>
        <pt x="763" y="682" on="1"/>
        <pt x="763" y="366" on="1"/>
        <pt x="314" y="366" on="1"/>
        <pt x="314" y="0" on="1"/>
        <pt x="130" y="0" on="1"/>
        <pt x="130" y="530" on="1"/>
        <pt x="579" y="530" on="1"/>
        <pt x="579" y="682" on="1"/>
        <pt x="438" y="712" on="0"/>
        <pt x="250" y="930" on="0"/>
      </contour>
      <contour>
        <pt x="917" y="1076" on="1"/>
        <pt x="917" y="1160" on="0"/>
        <pt x="829" y="1285" on="0"/>
        <pt x="757" y="1311" on="1"/>
        <pt x="757" y="844" on="1"/>
        <pt x="831" y="870" on="0"/>
        <pt x="917" y="995" on="0"/>
      </contour>
      <contour>
        <pt x="425" y="1076" on="1"/>
        <pt x="425" y="995" on="0"/>
        <pt x="511" y="870" on="0"/>
        <pt x="585" y="844" on="1"/>
        <pt x="585" y="1311" on="1"/>
        <pt x="513" y="1286" on="0"/>
        <pt x="425" y="1159" on="0"/>
      </contour>
    </TTGlyph>
    <TTGlyph name="glyph00058" xMin="130" yMin="0" xMax="876" yMax="1462">
      <contour>
        <pt x="876" y="0" on="1"/>
        <pt x="692" y="0" on="1"/>
        <pt x="692" y="485" on="1"/>
        <pt x="633" y="504" on="0"/>
        <pt x="560" y="504" on="1"/>
        <pt x="422" y="504" on="0"/>
        <pt x="314" y="384" on="0"/>
        <pt x="314" y="249" on="1"/>
        <pt x="314" y="0" on="1"/>
        <pt x="130" y="0" on="1"/>
        <pt x="130" y="284" on="1"/>
        <pt x="130" y="484" on="0"/>
        <pt x="327" y="675" on="0"/>
        <pt x="538" y="675" on="1"/>
        <pt x="615" y="675" on="0"/>
        <pt x="692" y="652" on="1"/>
        <pt x="692" y="886" on="1"/>
        <pt x="510" y="888" on="0"/>
        <pt x="314" y="1031" on="0"/>
        <pt x="314" y="1165" on="1"/>
        <pt x="314" y="1315" on="0"/>
        <pt x="517" y="1462" on="0"/>
        <pt x="700" y="1462" on="1"/>
        <pt x="876" y="1462" on="1"/>
        <pt x="876" y="1298" on="1"/>
        <pt x="704" y="1298" on="1"/>
        <pt x="595" y="1298" on="0"/>
        <pt x="498" y="1239" on="0"/>
        <pt x="498" y="1165" on="1"/>
        <pt x="498" y="1050" on="0"/>
        <pt x="704" y="1050" on="1"/>
        <pt x="876" y="1050" on="1"/>
      </contour>
    </TTGlyph>
    <TTGlyph name="glyph00059" xMin="100" yMin="0" xMax="1125" yMax="1486">
      <contour>
        <pt x="941" y="987" on="1"/>
        <pt x="941" y="1016" on="1"/>
        <pt x="941" y="1182" on="0"/>
        <pt x="851" y="1314" on="0"/>
        <pt x="735" y="1314" on="1"/>
        <pt x="615" y="1314" on="0"/>
        <pt x="521" y="1181" on="0"/>
        <pt x="521" y="1018" on="1"/>
        <pt x="521" y="162" on="1"/>
        <pt x="1124" y="162" on="1"/>
        <pt x="1124" y="0" on="1"/>
        <pt x="100" y="0" on="1"/>
        <pt x="100" y="162" on="1"/>
        <pt x="337" y="162" on="1"/>
        <pt x="337" y="1012" on="1"/>
        <pt x="337" y="1266" on="0"/>
        <pt x="520" y="1486" on="0"/>
        <pt x="724" y="1486" on="1"/>
        <pt x="932" y="1486" on="0"/>
        <pt x="1125" y="1269" on="0"/>
        <pt x="1125" y="1016" on="1"/>
        <pt x="1125" y="987" on="1"/>
      </contour>
    </TTGlyph>
    <TTGlyph name="glyph00060" xMin="0" yMin="1298" xMax="570" yMax="1462">
      <contour>
        <pt x="0" y="1462" on="1"/>
        <pt x="570" y="1462" on="1"/>
        <pt x="570" y="1298" on="1"/>
        <pt x="0" y="1298" on="1"/>
      </contour>
    </TTGlyph>
    <TTGlyph name="glyph00061" xMin="0" yMin="1298" xMax="585" yMax="1719">
      <contour>
        <pt x="0" y="1719" on="1"/>
        <pt x="585" y="1719" on="1"/>
        <pt x="585" y="1298" on="1"/>
        <pt x="411" y="1298" on="1"/>
        <pt x="411" y="1555" on="1"/>
        <pt x="0" y="1555" on="1"/>
      </contour>
    </TTGlyph>
    <TTGlyph name="glyph00062" xMin="0" yMin="1298" xMax="585" yMax="1719">
      <contour>
        <pt x="0" y="1462" on="1"/>
        <pt x="411" y="1462" on="1"/>
        <pt x="411" y="1719" on="1"/>
        <pt x="585" y="1719" on="1"/>
        <pt x="585" y="1298" on="1"/>
        <pt x="0" y="1298" on="1"/>
      </contour>
    </TTGlyph>
    <TTGlyph name="glyph00063" xMin="0" yMin="1298" xMax="646" yMax="1719">
      <contour>
        <pt x="0" y="1298" on="1"/>
        <pt x="0" y="1462" on="1"/>
        <pt x="162" y="1462" on="1"/>
        <pt x="162" y="1719" on="1"/>
        <pt x="336" y="1719" on="1"/>
        <pt x="336" y="1462" on="1"/>
        <pt x="472" y="1462" on="1"/>
        <pt x="472" y="1719" on="1"/>
        <pt x="646" y="1719" on="1"/>
        <pt x="646" y="1298" on="1"/>
      </contour>
    </TTGlyph>
    <TTGlyph name="glyph00064" xMin="0" yMin="0" xMax="550" yMax="164">
      <contour>
        <pt x="0" y="164" on="1"/>
        <pt x="550" y="164" on="1"/>
        <pt x="550" y="0" on="1"/>
        <pt x="0" y="0" on="1"/>
      </contour>
    </TTGlyph>
    <TTGlyph name="glyph00065" xMin="0" yMin="-320" xMax="550" yMax="164">
      <contour>
        <pt x="0" y="-156" on="1"/>
        <pt x="550" y="-156" on="1"/>
        <pt x="550" y="-320" on="1"/>
        <pt x="0" y="-320" on="1"/>
      </contour>
      <contour>
        <pt x="0" y="164" on="1"/>
        <pt x="550" y="164" on="1"/>
        <pt x="550" y="0" on="1"/>
        <pt x="0" y="0" on="1"/>
      </contour>
    </TTGlyph>
    <TTGlyph name="glyph00066" xMin="0" yMin="-560" xMax="436" yMax="10">
      <contour>
        <pt x="408" y="-545" on="1"/>
        <pt x="363" y="-560" on="0"/>
        <pt x="312" y="-560" on="1"/>
        <pt x="166" y="-560" on="0"/>
        <pt x="0" y="-407" on="0"/>
        <pt x="0" y="-271" on="1"/>
        <pt x="0" y="-151" on="0"/>
        <pt x="160" y="10" on="0"/>
        <pt x="280" y="10" on="1"/>
        <pt x="378" y="10" on="0"/>
        <pt x="436" y="-16" on="1"/>
        <pt x="436" y="-151" on="1"/>
        <pt x="380" y="-132" on="0"/>
        <pt x="302" y="-132" on="1"/>
        <pt x="240" y="-132" on="0"/>
        <pt x="153" y="-210" on="0"/>
        <pt x="153" y="-271" on="1"/>
        <pt x="153" y="-335" on="0"/>
        <pt x="246" y="-418" on="0"/>
        <pt x="312" y="-418" on="1"/>
        <pt x="358" y="-418" on="0"/>
        <pt x="386" y="-408" on="1"/>
      </contour>
    </TTGlyph>
    <TTGlyph name="glyph00067" xMin="0" yMin="-560" xMax="596" yMax="10">
      <contour>
        <pt x="408" y="-545" on="1"/>
        <pt x="363" y="-560" on="0"/>
        <pt x="312" y="-560" on="1"/>
        <pt x="166" y="-560" on="0"/>
        <pt x="0" y="-407" on="0"/>
        <pt x="0" y="-271" on="1"/>
        <pt x="0" y="-151" on="0"/>
        <pt x="160" y="10" on="0"/>
        <pt x="280" y="10" on="1"/>
        <pt x="378" y="10" on="0"/>
        <pt x="436" y="-16" on="1"/>
        <pt x="436" y="-151" on="1"/>
        <pt x="412" y="-143" on="0"/>
        <pt x="385" y="-138" on="1"/>
        <pt x="390" y="-186" on="0"/>
        <pt x="442" y="-223" on="0"/>
        <pt x="500" y="-223" on="1"/>
        <pt x="546" y="-223" on="0"/>
        <pt x="574" y="-213" on="1"/>
        <pt x="596" y="-350" on="1"/>
        <pt x="551" y="-365" on="0"/>
        <pt x="500" y="-365" on="1"/>
        <pt x="363" y="-365" on="0"/>
        <pt x="238" y="-253" on="0"/>
        <pt x="232" y="-147" on="1"/>
        <pt x="195" y="-164" on="0"/>
        <pt x="153" y="-230" on="0"/>
        <pt x="153" y="-271" on="1"/>
        <pt x="153" y="-335" on="0"/>
        <pt x="246" y="-418" on="0"/>
        <pt x="312" y="-418" on="1"/>
        <pt x="358" y="-418" on="0"/>
        <pt x="386" y="-408" on="1"/>
      </contour>
    </TTGlyph>
    <TTGlyph name="glyph00068" xMin="0" yMin="-560" xMax="1062" yMax="10">
      <contour>
        <pt x="972" y="-68" on="1"/>
        <pt x="1062" y="-129" on="0"/>
        <pt x="1062" y="-269" on="1"/>
        <pt x="1062" y="-359" on="0"/>
        <pt x="947" y="-470" on="0"/>
        <pt x="848" y="-470" on="1"/>
        <pt x="775" y="-470" on="0"/>
        <pt x="641" y="-387" on="0"/>
        <pt x="567" y="-301" on="1"/>
        <pt x="490" y="-212" on="0"/>
        <pt x="367" y="-132" on="0"/>
        <pt x="302" y="-132" on="1"/>
        <pt x="240" y="-132" on="0"/>
        <pt x="153" y="-210" on="0"/>
        <pt x="153" y="-271" on="1"/>
        <pt x="153" y="-335" on="0"/>
        <pt x="246" y="-418" on="0"/>
        <pt x="312" y="-418" on="1"/>
        <pt x="358" y="-418" on="0"/>
        <pt x="386" y="-408" on="1"/>
        <pt x="408" y="-545" on="1"/>
        <pt x="363" y="-560" on="0"/>
        <pt x="312" y="-560" on="1"/>
        <pt x="166" y="-560" on="0"/>
        <pt x="0" y="-407" on="0"/>
        <pt x="0" y="-271" on="1"/>
        <pt x="0" y="-146" on="0"/>
        <pt x="164" y="10" on="0"/>
        <pt x="293" y="10" on="1"/>
        <pt x="483" y="10" on="0"/>
        <pt x="629" y="-159" on="1"/>
        <pt x="719" y="-263" on="0"/>
        <pt x="801" y="-328" on="0"/>
        <pt x="844" y="-328" on="1"/>
        <pt x="873" y="-328" on="0"/>
        <pt x="909" y="-294" on="0"/>
        <pt x="909" y="-259" on="1"/>
        <pt x="909" y="-233" on="0"/>
        <pt x="874" y="-171" on="0"/>
        <pt x="848" y="-151" on="1"/>
      </contour>
    </TTGlyph>
    <TTGlyph name="glyph00069" xMin="0" yMin="-560" xMax="1062" yMax="12">
      <contour>
        <pt x="972" y="-68" on="1"/>
        <pt x="1062" y="-129" on="0"/>
        <pt x="1062" y="-269" on="1"/>
        <pt x="1062" y="-359" on="0"/>
        <pt x="947" y="-470" on="0"/>
        <pt x="848" y="-470" on="1"/>
        <pt x="775" y="-470" on="0"/>
        <pt x="641" y="-387" on="0"/>
        <pt x="567" y="-301" on="1"/>
        <pt x="490" y="-212" on="0"/>
        <pt x="367" y="-132" on="0"/>
        <pt x="302" y="-132" on="1"/>
        <pt x="240" y="-132" on="0"/>
        <pt x="153" y="-210" on="0"/>
        <pt x="153" y="-271" on="1"/>
        <pt x="153" y="-335" on="0"/>
        <pt x="246" y="-418" on="0"/>
        <pt x="312" y="-418" on="1"/>
        <pt x="358" y="-418" on="0"/>
        <pt x="386" y="-408" on="1"/>
        <pt x="408" y="-545" on="1"/>
        <pt x="363" y="-560" on="0"/>
        <pt x="312" y="-560" on="1"/>
        <pt x="166" y="-560" on="0"/>
        <pt x="0" y="-407" on="0"/>
        <pt x="0" y="-271" on="1"/>
        <pt x="0" y="-146" on="0"/>
        <pt x="164" y="10" on="0"/>
        <pt x="293" y="10" on="1"/>
        <pt x="455" y="10" on="0"/>
        <pt x="588" y="-118" on="1"/>
        <pt x="689" y="12" on="1"/>
        <pt x="795" y="-70" on="1"/>
        <pt x="681" y="-218" on="1"/>
        <pt x="721" y="-263" on="0"/>
        <pt x="798" y="-328" on="0"/>
        <pt x="844" y="-328" on="1"/>
        <pt x="873" y="-328" on="0"/>
        <pt x="909" y="-294" on="0"/>
        <pt x="909" y="-259" on="1"/>
        <pt x="909" y="-233" on="0"/>
        <pt x="874" y="-171" on="0"/>
        <pt x="848" y="-151" on="1"/>
      </contour>
    </TTGlyph>
    <TTGlyph name="glyph00070" xMin="-570" yMin="1298" xMax="0" yMax="1462">
      <contour>
        <pt x="-570" y="1462" on="1"/>
        <pt x="0" y="1462" on="1"/>
        <pt x="0" y="1298" on="1"/>
        <pt x="-570" y="1298" on="1"/>
      </contour>
    </TTGlyph>
    <TTGlyph name="glyph00071" xMin="-550" yMin="1298" xMax="0" yMax="1790">
      <contour>
        <pt x="-550" y="1462" on="1"/>
        <pt x="0" y="1462" on="1"/>
        <pt x="0" y="1298" on="1"/>
        <pt x="-550" y="1298" on="1"/>
      </contour>
      <contour>
        <pt x="-550" y="1790" on="1"/>
        <pt x="0" y="1790" on="1"/>
        <pt x="0" y="1626" on="1"/>
        <pt x="-550" y="1626" on="1"/>
      </contour>
    </TTGlyph>
    <TTGlyph name="glyph00072" xMin="0" yMin="1134" xMax="1224" yMax="1462">
      <contour>
        <pt x="0" y="1298" on="1"/>
        <pt x="570" y="1298" on="1"/>
        <pt x="570" y="1134" on="1"/>
        <pt x="0" y="1134" on="1"/>
      </contour>
      <contour>
        <pt x="654" y="1462" on="1"/>
        <pt x="1224" y="1462" on="1"/>
        <pt x="1224" y="1298" on="1"/>
        <pt x="654" y="1298" on="1"/>
      </contour>
    </TTGlyph>
    <TTGlyph name="glyph00073" xMin="0" yMin="970" xMax="1224" yMax="1462">
      <contour>
        <pt x="0" y="1134" on="1"/>
        <pt x="570" y="1134" on="1"/>
        <pt x="570" y="970" on="1"/>
        <pt x="0" y="970" on="1"/>
      </contour>
      <contour>
        <pt x="0" y="1462" on="1"/>
        <pt x="570" y="1462" on="1"/>
        <pt x="570" y="1298" on="1"/>
        <pt x="0" y="1298" on="1"/>
      </contour>
      <contour>
        <pt x="654" y="1298" on="1"/>
        <pt x="1224" y="1298" on="1"/>
        <pt x="1224" y="1134" on="1"/>
        <pt x="654" y="1134" on="1"/>
      </contour>
    </TTGlyph>
    <TTGlyph name="glyph00074" xMin="0" yMin="1640" xMax="594" yMax="1804">
      <contour>
        <pt x="0" y="1804" on="1"/>
        <pt x="594" y="1804" on="1"/>
        <pt x="594" y="1640" on="1"/>
        <pt x="0" y="1640" on="1"/>
      </contour>
    </TTGlyph>
    <TTGlyph name="glyph00075" xMin="280" yMin="0" xMax="426" yMax="1690">
      <contour>
        <pt x="280" y="1690" on="1"/>
        <pt x="426" y="1690" on="1"/>
        <pt x="426" y="0" on="1"/>
        <pt x="280" y="0" on="1"/>
      </contour>
    </TTGlyph>
    <TTGlyph name="glyph00076" xMin="280" yMin="0" xMax="726" yMax="1690">
      <contour>
        <pt x="280" y="1690" on="1"/>
        <pt x="426" y="1690" on="1"/>
        <pt x="426" y="0" on="1"/>
        <pt x="280" y="0" on="1"/>
      </contour>
      <contour>
        <pt x="580" y="1690" on="1"/>
        <pt x="726" y="1690" on="1"/>
        <pt x="726" y="0" on="1"/>
        <pt x="580" y="0" on="1"/>
      </contour>
    </TTGlyph>
    <TTGlyph name="glyph00077" xMin="300" yMin="680" xMax="770" yMax="844">
      <contour>
        <pt x="300" y="844" on="1"/>
        <pt x="770" y="844" on="1"/>
        <pt x="770" y="680" on="1"/>
        <pt x="300" y="680" on="1"/>
      </contour>
    </TTGlyph>
    <TTGlyph name="glyph00078" xMin="300" yMin="516" xMax="770" yMax="1008">
      <contour>
        <pt x="300" y="1008" on="1"/>
        <pt x="770" y="1008" on="1"/>
        <pt x="770" y="844" on="1"/>
        <pt x="300" y="844" on="1"/>
      </contour>
      <contour>
        <pt x="300" y="680" on="1"/>
        <pt x="770" y="680" on="1"/>
        <pt x="770" y="516" on="1"/>
        <pt x="300" y="516" on="1"/>
      </contour>
    </TTGlyph>
    <TTGlyph name="glyph00079" xMin="100" yMin="680" xMax="1870" yMax="844">
      <contour>
        <pt x="100" y="844" on="1"/>
        <pt x="1870" y="844" on="1"/>
        <pt x="1870" y="680" on="1"/>
        <pt x="100" y="680" on="1"/>
      </contour>
    </TTGlyph>
    <TTGlyph name="glyph00080" xMin="100" yMin="-20" xMax="1734" yMax="1485">
      <contour>
        <pt x="320" y="446" on="1"/>
        <pt x="423" y="139" on="0"/>
        <pt x="761" y="139" on="1"/>
        <pt x="986" y="139" on="0"/>
        <pt x="1228" y="413" on="0"/>
        <pt x="1239" y="682" on="1"/>
        <pt x="100" y="682" on="1"/>
        <pt x="100" y="844" on="1"/>
        <pt x="1235" y="844" on="1"/>
        <pt x="1188" y="1323" on="0"/>
        <pt x="763" y="1323" on="1"/>
        <pt x="480" y="1323" on="0"/>
        <pt x="361" y="1114" on="1"/>
        <pt x="182" y="1176" on="1"/>
        <pt x="262" y="1325" on="0"/>
        <pt x="557" y="1485" on="0"/>
        <pt x="763" y="1485" on="1"/>
        <pt x="1053" y="1485" on="0"/>
        <pt x="1401" y="1150" on="0"/>
        <pt x="1430" y="844" on="1"/>
        <pt x="1734" y="844" on="1"/>
        <pt x="1734" y="682" on="1"/>
        <pt x="1433" y="682" on="1"/>
        <pt x="1421" y="352" on="0"/>
        <pt x="1066" y="-20" on="0"/>
        <pt x="761" y="-20" on="1"/>
        <pt x="521" y="-20" on="0"/>
        <pt x="203" y="196" on="0"/>
        <pt x="134" y="403" on="1"/>
      </contour>
    </TTGlyph>
    <TTGlyph name="glyph00081" xMin="60" yMin="-193" xMax="1852" yMax="1608">
      <contour>
        <pt x="469" y="1350" on="1"/>
        <pt x="616" y="1350" on="0"/>
        <pt x="704" y="1327" on="1"/>
        <pt x="730" y="1384" on="0"/>
        <pt x="885" y="1551" on="0"/>
        <pt x="956" y="1608" on="1"/>
        <pt x="997" y="1590" on="0"/>
        <pt x="1170" y="1391" on="0"/>
        <pt x="1209" y="1323" on="1"/>
        <pt x="1290" y="1350" on="0"/>
        <pt x="1442" y="1350" on="1"/>
        <pt x="1468" y="1350" on="0"/>
        <pt x="1518" y="1348" on="0"/>
        <pt x="1559" y="1346" on="0"/>
        <pt x="1588" y="1344" on="0"/>
        <pt x="1593" y="1344" on="1"/>
        <pt x="1598" y="1196" on="1"/>
        <pt x="1598" y="1040" on="0"/>
        <pt x="1568" y="961" on="1"/>
        <pt x="1601" y="947" on="0"/>
        <pt x="1701" y="867" on="0"/>
        <pt x="1825" y="740" on="0"/>
        <pt x="1852" y="707" on="1"/>
        <pt x="1848" y="703" on="0"/>
        <pt x="1818" y="669" on="0"/>
        <pt x="1774" y="622" on="0"/>
        <pt x="1718" y="566" on="0"/>
        <pt x="1658" y="513" on="0"/>
        <pt x="1597" y="468" on="0"/>
        <pt x="1571" y="456" on="1"/>
        <pt x="1598" y="371" on="0"/>
        <pt x="1598" y="219" on="1"/>
        <pt x="1593" y="72" on="1"/>
        <pt x="1583" y="70" on="0"/>
        <pt x="1469" y="65" on="0"/>
        <pt x="1442" y="65" on="1"/>
        <pt x="1290" y="65" on="0"/>
        <pt x="1209" y="92" on="1"/>
        <pt x="1181" y="40" on="0"/>
        <pt x="1002" y="-172" on="0"/>
        <pt x="956" y="-193" on="1"/>
        <pt x="879" y="-132" on="0"/>
        <pt x="723" y="41" on="0"/>
        <pt x="701" y="94" on="1"/>
        <pt x="585" y="65" on="0"/>
        <pt x="469" y="65" on="1"/>
        <pt x="438" y="65" on="0"/>
        <pt x="329" y="70" on="0"/>
        <pt x="319" y="72" on="1"/>
        <pt x="314" y="219" on="1"/>
        <pt x="314" y="371" on="0"/>
        <pt x="341" y="456" on="1"/>
        <pt x="283" y="482" on="0"/>
        <pt x="92" y="664" on="0"/>
        <pt x="60" y="707" on="1"/>
        <pt x="114" y="774" on="0"/>
        <pt x="284" y="934" on="0"/>
        <pt x="344" y="961" on="1"/>
        <pt x="314" y="1040" on="0"/>
        <pt x="314" y="1196" on="1"/>
        <pt x="319" y="1344" on="1"/>
        <pt x="324" y="1344" on="0"/>
        <pt x="353" y="1346" on="0"/>
        <pt x="394" y="1348" on="0"/>
        <pt x="443" y="1350" on="0"/>
      </contour>
      <contour>
        <pt x="1030" y="1014" on="1"/>
        <pt x="1082" y="1104" on="0"/>
        <pt x="1140" y="1247" on="0"/>
        <pt x="1140" y="1284" on="1"/>
        <pt x="1140" y="1317" on="0"/>
        <pt x="1016" y="1470" on="0"/>
        <pt x="956" y="1512" on="1"/>
        <pt x="900" y="1474" on="0"/>
        <pt x="771" y="1316" on="0"/>
        <pt x="771" y="1284" on="1"/>
        <pt x="771" y="1251" on="0"/>
        <pt x="829" y="1103" on="0"/>
        <pt x="881" y="1014" on="1"/>
        <pt x="815" y="969" on="1"/>
        <pt x="732" y="1135" on="0"/>
        <pt x="699" y="1240" on="1"/>
        <pt x="663" y="1258" on="0"/>
        <pt x="525" y="1283" on="0"/>
        <pt x="474" y="1283" on="1"/>
        <pt x="424" y="1283" on="0"/>
        <pt x="387" y="1277" on="1"/>
        <pt x="381" y="1250" on="0"/>
        <pt x="381" y="1195" on="1"/>
        <pt x="381" y="1129" on="0"/>
        <pt x="403" y="1001" on="0"/>
        <pt x="419" y="985" on="1"/>
        <pt x="453" y="954" on="0"/>
        <pt x="618" y="888" on="0"/>
        <pt x="688" y="873" on="1"/>
        <pt x="673" y="791" on="1"/>
        <pt x="503" y="854" on="0"/>
        <pt x="449" y="879" on="1"/>
        <pt x="397" y="892" on="0"/>
        <pt x="384" y="892" on="1"/>
        <pt x="352" y="892" on="0"/>
        <pt x="192" y="760" on="0"/>
        <pt x="156" y="708" on="1"/>
        <pt x="199" y="647" on="0"/>
        <pt x="353" y="524" on="0"/>
        <pt x="384" y="524" on="1"/>
        <pt x="425" y="524" on="0"/>
        <pt x="578" y="588" on="0"/>
        <pt x="654" y="634" on="1"/>
        <pt x="701" y="567" on="1"/>
        <pt x="519" y="476" on="0"/>
        <pt x="433" y="452" on="1"/>
        <pt x="419" y="441" on="1"/>
        <pt x="404" y="426" on="0"/>
        <pt x="381" y="288" on="0"/>
        <pt x="381" y="220" on="1"/>
        <pt x="381" y="166" on="0"/>
        <pt x="387" y="139" on="1"/>
        <pt x="420" y="132" on="0"/>
        <pt x="474" y="132" on="1"/>
        <pt x="532" y="132" on="0"/>
        <pt x="678" y="157" on="0"/>
        <pt x="699" y="172" on="1"/>
        <pt x="720" y="246" on="0"/>
        <pt x="815" y="447" on="1"/>
        <pt x="881" y="402" on="1"/>
        <pt x="829" y="314" on="0"/>
        <pt x="771" y="165" on="0"/>
        <pt x="771" y="131" on="1"/>
        <pt x="771" y="100" on="0"/>
        <pt x="897" y="-57" on="0"/>
        <pt x="956" y="-97" on="1"/>
        <pt x="1017" y="-54" on="0"/>
        <pt x="1140" y="100" on="0"/>
        <pt x="1140" y="131" on="1"/>
        <pt x="1140" y="168" on="0"/>
        <pt x="1081" y="314" on="0"/>
        <pt x="1030" y="402" on="1"/>
        <pt x="1096" y="447" on="1"/>
        <pt x="1133" y="367" on="1"/>
        <pt x="1195" y="228" on="1"/>
        <pt x="1218" y="180" on="0"/>
        <pt x="1256" y="152" on="0"/>
        <pt x="1367" y="132" on="0"/>
        <pt x="1438" y="132" on="1"/>
        <pt x="1492" y="132" on="0"/>
        <pt x="1525" y="139" on="1"/>
        <pt x="1530" y="169" on="0"/>
        <pt x="1530" y="220" on="1"/>
        <pt x="1530" y="296" on="0"/>
        <pt x="1508" y="427" on="0"/>
        <pt x="1493" y="441" on="1"/>
        <pt x="1479" y="452" on="1"/>
        <pt x="1381" y="482" on="0"/>
        <pt x="1211" y="567" on="1"/>
        <pt x="1257" y="634" on="1"/>
        <pt x="1342" y="584" on="0"/>
        <pt x="1489" y="524" on="0"/>
        <pt x="1528" y="524" on="1"/>
        <pt x="1560" y="524" on="0"/>
        <pt x="1715" y="650" on="0"/>
        <pt x="1756" y="708" on="1"/>
        <pt x="1715" y="763" on="0"/>
        <pt x="1560" y="892" on="0"/>
        <pt x="1528" y="892" on="1"/>
        <pt x="1515" y="892" on="0"/>
        <pt x="1463" y="879" on="1"/>
        <pt x="1409" y="854" on="0"/>
        <pt x="1239" y="791" on="1"/>
        <pt x="1223" y="873" on="1"/>
        <pt x="1293" y="887" on="0"/>
        <pt x="1459" y="954" on="0"/>
        <pt x="1493" y="985" on="1"/>
        <pt x="1508" y="1000" on="0"/>
        <pt x="1530" y="1122" on="0"/>
        <pt x="1530" y="1195" on="1"/>
        <pt x="1530" y="1247" on="0"/>
        <pt x="1525" y="1277" on="1"/>
        <pt x="1487" y="1283" on="0"/>
        <pt x="1438" y="1283" on="1"/>
        <pt x="1376" y="1283" on="0"/>
        <pt x="1270" y="1267" on="0"/>
        <pt x="1220" y="1242" on="0"/>
        <pt x="1195" y="1188" on="1"/>
        <pt x="1168" y="1121" on="0"/>
        <pt x="1096" y="969" on="1"/>
      </contour>
      <contour>
        <pt x="925" y="856" on="1"/>
        <pt x="925" y="900" on="0"/>
        <pt x="942" y="971" on="0"/>
        <pt x="956" y="971" on="1"/>
        <pt x="969" y="971" on="0"/>
        <pt x="988" y="902" on="0"/>
        <pt x="988" y="856" on="1"/>
        <pt x="988" y="809" on="0"/>
        <pt x="970" y="743" on="0"/>
        <pt x="956" y="743" on="1"/>
        <pt x="942" y="743" on="0"/>
        <pt x="925" y="809" on="0"/>
      </contour>
      <contour>
        <pt x="925" y="559" on="1"/>
        <pt x="925" y="603" on="0"/>
        <pt x="942" y="674" on="0"/>
        <pt x="956" y="674" on="1"/>
        <pt x="969" y="674" on="0"/>
        <pt x="988" y="605" on="0"/>
        <pt x="988" y="559" on="1"/>
        <pt x="988" y="511" on="0"/>
        <pt x="970" y="446" on="0"/>
        <pt x="956" y="446" on="1"/>
        <pt x="942" y="446" on="0"/>
        <pt x="925" y="511" on="0"/>
      </contour>
      <contour>
        <pt x="1104" y="739" on="1"/>
        <pt x="1148" y="739" on="0"/>
        <pt x="1219" y="722" on="0"/>
        <pt x="1219" y="708" on="1"/>
        <pt x="1219" y="695" on="0"/>
        <pt x="1150" y="676" on="0"/>
        <pt x="1104" y="676" on="1"/>
        <pt x="1057" y="676" on="0"/>
        <pt x="991" y="694" on="0"/>
        <pt x="991" y="708" on="1"/>
        <pt x="991" y="721" on="0"/>
        <pt x="1057" y="739" on="0"/>
      </contour>
      <contour>
        <pt x="807" y="739" on="1"/>
        <pt x="851" y="739" on="0"/>
        <pt x="922" y="722" on="0"/>
        <pt x="922" y="708" on="1"/>
        <pt x="922" y="695" on="0"/>
        <pt x="853" y="676" on="0"/>
        <pt x="807" y="676" on="1"/>
        <pt x="760" y="676" on="0"/>
        <pt x="694" y="694" on="0"/>
        <pt x="694" y="708" on="1"/>
        <pt x="694" y="721" on="0"/>
        <pt x="760" y="739" on="0"/>
      </contour>
      <contour>
        <pt x="1126" y="904" on="1"/>
        <pt x="1131" y="904" on="0"/>
        <pt x="1134" y="900" on="1"/>
        <pt x="1138" y="896" on="0"/>
        <pt x="1138" y="890" on="1"/>
        <pt x="1138" y="869" on="0"/>
        <pt x="1076" y="785" on="0"/>
        <pt x="1007" y="731" on="0"/>
        <pt x="988" y="731" on="1"/>
        <pt x="977" y="731" on="0"/>
        <pt x="977" y="743" on="1"/>
        <pt x="977" y="763" on="0"/>
        <pt x="1033" y="842" on="0"/>
        <pt x="1107" y="904" on="0"/>
      </contour>
      <contour>
        <pt x="924" y="686" on="1"/>
        <pt x="930" y="686" on="0"/>
        <pt x="933" y="682" on="1"/>
        <pt x="936" y="679" on="0"/>
        <pt x="936" y="672" on="1"/>
        <pt x="936" y="650" on="0"/>
        <pt x="875" y="567" on="0"/>
        <pt x="805" y="513" on="0"/>
        <pt x="785" y="513" on="1"/>
        <pt x="778" y="515" on="1"/>
        <pt x="774" y="518" on="0"/>
        <pt x="774" y="525" on="1"/>
        <pt x="774" y="557" on="0"/>
        <pt x="892" y="683" on="0"/>
      </contour>
      <contour>
        <pt x="935" y="743" on="1"/>
        <pt x="935" y="736" on="0"/>
        <pt x="932" y="733" on="1"/>
        <pt x="924" y="731" on="1"/>
        <pt x="905" y="731" on="0"/>
        <pt x="831" y="792" on="0"/>
        <pt x="774" y="871" on="0"/>
        <pt x="774" y="890" on="1"/>
        <pt x="774" y="897" on="0"/>
        <pt x="778" y="900" on="1"/>
        <pt x="785" y="904" on="1"/>
        <pt x="804" y="904" on="0"/>
        <pt x="881" y="839" on="0"/>
        <pt x="935" y="762" on="0"/>
      </contour>
      <contour>
        <pt x="1138" y="525" on="1"/>
        <pt x="1138" y="513" on="0"/>
        <pt x="1126" y="513" on="1"/>
        <pt x="1106" y="513" on="0"/>
        <pt x="1036" y="568" on="0"/>
        <pt x="976" y="651" on="0"/>
        <pt x="976" y="672" on="1"/>
        <pt x="976" y="679" on="0"/>
        <pt x="979" y="682" on="1"/>
        <pt x="982" y="686" on="0"/>
        <pt x="988" y="686" on="1"/>
        <pt x="1006" y="686" on="0"/>
        <pt x="1073" y="630" on="0"/>
        <pt x="1138" y="546" on="0"/>
      </contour>
    </TTGlyph>
    <TTGlyph name="glyph00082" xMin="200" yMin="616" xMax="1374" yMax="780">
      <contour>
        <pt x="1374" y="616" on="1"/>
        <pt x="200" y="616" on="1"/>
        <pt x="200" y="780" on="1"/>
        <pt x="1374" y="780" on="1"/>
      </contour>
    </TTGlyph>
    <TTGlyph name="glyph00083" xMin="200" yMin="415" xMax="1374" yMax="979">
      <contour>
        <pt x="1374" y="815" on="1"/>
        <pt x="200" y="815" on="1"/>
        <pt x="200" y="979" on="1"/>
        <pt x="1374" y="979" on="1"/>
      </contour>
      <contour>
        <pt x="1374" y="415" on="1"/>
        <pt x="200" y="415" on="1"/>
        <pt x="200" y="579" on="1"/>
        <pt x="1374" y="579" on="1"/>
      </contour>
    </TTGlyph>
    <TTGlyph name="glyph00084" xMin="198" yMin="216" xMax="1372" yMax="1180">
      <contour>
        <pt x="1372" y="616" on="1"/>
        <pt x="198" y="616" on="1"/>
        <pt x="198" y="780" on="1"/>
        <pt x="1372" y="780" on="1"/>
      </contour>
      <contour>
        <pt x="1372" y="1016" on="1"/>
        <pt x="198" y="1016" on="1"/>
        <pt x="198" y="1180" on="1"/>
        <pt x="1372" y="1180" on="1"/>
      </contour>
      <contour>
        <pt x="1372" y="216" on="1"/>
        <pt x="198" y="216" on="1"/>
        <pt x="198" y="380" on="1"/>
        <pt x="1372" y="380" on="1"/>
      </contour>
    </TTGlyph>
    <TTGlyph name="glyph00085" xMin="200" yMin="74" xMax="1424" yMax="1298">
      <contour>
        <pt x="720" y="74" on="1"/>
        <pt x="720" y="616" on="1"/>
        <pt x="200" y="616" on="1"/>
        <pt x="200" y="780" on="1"/>
        <pt x="720" y="780" on="1"/>
        <pt x="720" y="1298" on="1"/>
        <pt x="904" y="1298" on="1"/>
        <pt x="904" y="780" on="1"/>
        <pt x="1424" y="780" on="1"/>
        <pt x="1424" y="616" on="1"/>
        <pt x="904" y="616" on="1"/>
        <pt x="904" y="74" on="1"/>
      </contour>
    </TTGlyph>
    <TTGlyph name="glyph00086" xMin="300" yMin="0" xMax="1046" yMax="1462">
      <contour>
        <pt x="484" y="1462" on="1"/>
        <pt x="484" y="1012" on="1"/>
        <pt x="559" y="1035" on="0"/>
        <pt x="638" y="1035" on="1"/>
        <pt x="838" y="1035" on="0"/>
        <pt x="1046" y="844" on="0"/>
        <pt x="1046" y="634" on="1"/>
        <pt x="1046" y="349" on="1"/>
        <pt x="862" y="349" on="1"/>
        <pt x="862" y="599" on="1"/>
        <pt x="862" y="738" on="0"/>
        <pt x="750" y="864" on="0"/>
        <pt x="616" y="864" on="1"/>
        <pt x="543" y="864" on="0"/>
        <pt x="484" y="845" on="1"/>
        <pt x="484" y="0" on="1"/>
        <pt x="300" y="0" on="1"/>
        <pt x="300" y="1462" on="1"/>
      </contour>
    </TTGlyph>
    <TTGlyph name="glyph00087" xMin="180" yMin="-20" xMax="1056" yMax="1481">
      <contour>
        <pt x="893" y="1206" on="1"/>
        <pt x="828" y="1263" on="0"/>
        <pt x="694" y="1317" on="0"/>
        <pt x="609" y="1317" on="1"/>
        <pt x="518" y="1317" on="0"/>
        <pt x="402" y="1212" on="0"/>
        <pt x="402" y="1127" on="1"/>
        <pt x="402" y="1050" on="0"/>
        <pt x="472" y="934" on="0"/>
        <pt x="593" y="856" on="0"/>
        <pt x="668" y="842" on="1"/>
        <pt x="766" y="822" on="1"/>
        <pt x="766" y="658" on="1"/>
        <pt x="668" y="678" on="1"/>
        <pt x="631" y="685" on="0"/>
        <pt x="605" y="685" on="1"/>
        <pt x="506" y="685" on="0"/>
        <pt x="365" y="555" on="0"/>
        <pt x="365" y="460" on="1"/>
        <pt x="365" y="302" on="0"/>
        <pt x="591" y="144" on="0"/>
        <pt x="848" y="144" on="1"/>
        <pt x="950" y="144" on="0"/>
        <pt x="1056" y="158" on="1"/>
        <pt x="1056" y="-8" on="1"/>
        <pt x="943" y="-20" on="0"/>
        <pt x="837" y="-20" on="1"/>
        <pt x="501" y="-20" on="0"/>
        <pt x="180" y="211" on="0"/>
        <pt x="180" y="445" on="1"/>
        <pt x="180" y="549" on="0"/>
        <pt x="298" y="716" on="0"/>
        <pt x="405" y="763" on="1"/>
        <pt x="297" y="843" on="0"/>
        <pt x="216" y="1005" on="0"/>
        <pt x="216" y="1124" on="1"/>
        <pt x="216" y="1213" on="0"/>
        <pt x="315" y="1381" on="0"/>
        <pt x="491" y="1481" on="0"/>
        <pt x="609" y="1481" on="1"/>
        <pt x="705" y="1481" on="0"/>
        <pt x="851" y="1441" on="0"/>
        <pt x="963" y="1375" on="0"/>
        <pt x="1044" y="1294" on="1"/>
      </contour>
    </TTGlyph>
    <TTGlyph name="glyph00088" xMin="180" yMin="0" xMax="1040" yMax="1486">
      <contour>
        <pt x="184" y="0" on="1"/>
        <pt x="442" y="319" on="1"/>
        <pt x="666" y="588" on="0"/>
        <pt x="854" y="937" on="0"/>
        <pt x="854" y="1076" on="1"/>
        <pt x="854" y="1186" on="0"/>
        <pt x="726" y="1322" on="0"/>
        <pt x="622" y="1322" on="1"/>
        <pt x="499" y="1322" on="0"/>
        <pt x="366" y="1204" on="0"/>
        <pt x="366" y="1088" on="1"/>
        <pt x="366" y="1026" on="0"/>
        <pt x="381" y="969" on="1"/>
        <pt x="198" y="945" on="1"/>
        <pt x="180" y="1008" on="0"/>
        <pt x="180" y="1082" on="1"/>
        <pt x="180" y="1267" on="0"/>
        <pt x="424" y="1486" on="0"/>
        <pt x="622" y="1486" on="1"/>
        <pt x="815" y="1486" on="0"/>
        <pt x="1040" y="1264" on="0"/>
        <pt x="1040" y="1081" on="1"/>
        <pt x="1040" y="968" on="0"/>
        <pt x="953" y="737" on="0"/>
        <pt x="803" y="496" on="0"/>
        <pt x="620" y="269" on="1"/>
        <pt x="404" y="0" on="1"/>
      </contour>
    </TTGlyph>
    <TTGlyph name="glyph00089" xMin="180" yMin="0" xMax="1054" yMax="1462">
      <contour>
        <pt x="364" y="1212" on="1"/>
        <pt x="364" y="1069" on="0"/>
        <pt x="469" y="950" on="0"/>
        <pt x="600" y="950" on="1"/>
        <pt x="799" y="950" on="1"/>
        <pt x="916" y="950" on="0"/>
        <pt x="1054" y="820" on="0"/>
        <pt x="1054" y="713" on="1"/>
        <pt x="1054" y="624" on="0"/>
        <pt x="960" y="447" on="0"/>
        <pt x="817" y="269" on="1"/>
        <pt x="600" y="0" on="1"/>
        <pt x="381" y="0" on="1"/>
        <pt x="669" y="357" on="1"/>
        <pt x="781" y="494" on="0"/>
        <pt x="868" y="643" on="0"/>
        <pt x="868" y="695" on="1"/>
        <pt x="868" y="738" on="0"/>
        <pt x="811" y="788" on="0"/>
        <pt x="766" y="788" on="1"/>
        <pt x="578" y="788" on="1"/>
        <pt x="370" y="788" on="0"/>
        <pt x="180" y="974" on="0"/>
        <pt x="180" y="1177" on="1"/>
        <pt x="180" y="1462" on="1"/>
        <pt x="364" y="1462" on="1"/>
      </contour>
    </TTGlyph>
    <TTGlyph name="glyph00090" xMin="200" yMin="0" xMax="829" yMax="1462">
      <contour>
        <pt x="200" y="1462" on="1"/>
        <pt x="416" y="1462" on="1"/>
        <pt x="618" y="1462" on="0"/>
        <pt x="829" y="1315" on="0"/>
        <pt x="829" y="1169" on="1"/>
        <pt x="829" y="1084" on="0"/>
        <pt x="792" y="964" on="0"/>
        <pt x="730" y="878" on="0"/>
        <pt x="641" y="814" on="0"/>
        <pt x="541" y="760" on="1"/>
        <pt x="472" y="723" on="0"/>
        <pt x="407" y="630" on="0"/>
        <pt x="407" y="565" on="1"/>
        <pt x="407" y="0" on="1"/>
        <pt x="223" y="0" on="1"/>
        <pt x="223" y="630" on="1"/>
        <pt x="223" y="685" on="0"/>
        <pt x="264" y="769" on="0"/>
        <pt x="340" y="836" on="0"/>
        <pt x="434" y="887" on="1"/>
        <pt x="526" y="937" on="0"/>
        <pt x="602" y="1006" on="0"/>
        <pt x="644" y="1091" on="0"/>
        <pt x="644" y="1148" on="1"/>
        <pt x="644" y="1230" on="0"/>
        <pt x="522" y="1298" on="0"/>
        <pt x="393" y="1298" on="1"/>
        <pt x="200" y="1298" on="1"/>
      </contour>
    </TTGlyph>
    <TTGlyph name="glyph00091" xMin="180" yMin="-30" xMax="1936" yMax="1130">
      <contour>
        <pt x="1936" y="50" on="1"/>
        <pt x="1776" y="50" on="0"/>
        <pt x="1541" y="150" on="0"/>
        <pt x="1469" y="240" on="1"/>
        <pt x="1384" y="109" on="0"/>
        <pt x="1071" y="-30" on="0"/>
        <pt x="863" y="-30" on="1"/>
        <pt x="664" y="-30" on="0"/>
        <pt x="351" y="114" on="0"/>
        <pt x="180" y="379" on="0"/>
        <pt x="180" y="551" on="1"/>
        <pt x="180" y="726" on="0"/>
        <pt x="348" y="990" on="0"/>
        <pt x="661" y="1130" on="0"/>
        <pt x="870" y="1130" on="1"/>
        <pt x="1076" y="1130" on="0"/>
        <pt x="1389" y="983" on="0"/>
        <pt x="1470" y="855" on="1"/>
        <pt x="1543" y="947" on="0"/>
        <pt x="1779" y="1048" on="0"/>
        <pt x="1935" y="1048" on="1"/>
        <pt x="1935" y="886" on="1"/>
        <pt x="1758" y="886" on="0"/>
        <pt x="1555" y="704" on="0"/>
        <pt x="1555" y="545" on="1"/>
        <pt x="1555" y="447" on="0"/>
        <pt x="1646" y="296" on="0"/>
        <pt x="1816" y="212" on="0"/>
        <pt x="1935" y="212" on="1"/>
      </contour>
      <contour>
        <pt x="366" y="551" on="1"/>
        <pt x="366" y="354" on="0"/>
        <pt x="628" y="134" on="0"/>
        <pt x="868" y="134" on="1"/>
        <pt x="1106" y="134" on="0"/>
        <pt x="1369" y="353" on="0"/>
        <pt x="1369" y="551" on="1"/>
        <pt x="1369" y="751" on="0"/>
        <pt x="1102" y="966" on="0"/>
        <pt x="865" y="966" on="1"/>
        <pt x="629" y="966" on="0"/>
        <pt x="366" y="751" on="0"/>
      </contour>
    </TTGlyph>
    <TTGlyph name="glyph00092" xMin="180" yMin="-20" xMax="1514" yMax="1485">
      <contour>
        <pt x="1514" y="733" on="1"/>
        <pt x="1514" y="377" on="0"/>
        <pt x="1164" y="-20" on="0"/>
        <pt x="848" y="-20" on="1"/>
        <pt x="527" y="-20" on="0"/>
        <pt x="180" y="370" on="0"/>
        <pt x="180" y="735" on="1"/>
        <pt x="180" y="1097" on="0"/>
        <pt x="527" y="1485" on="0"/>
        <pt x="850" y="1485" on="1"/>
        <pt x="1166" y="1485" on="0"/>
        <pt x="1514" y="1089" on="0"/>
      </contour>
      <contour>
        <pt x="848" y="139" on="1"/>
        <pt x="1073" y="139" on="0"/>
        <pt x="1315" y="413" on="0"/>
        <pt x="1326" y="682" on="1"/>
        <pt x="367" y="682" on="1"/>
        <pt x="378" y="415" on="0"/>
        <pt x="624" y="139" on="0"/>
      </contour>
      <contour>
        <pt x="850" y="1323" on="1"/>
        <pt x="636" y="1323" on="0"/>
        <pt x="393" y="1079" on="0"/>
        <pt x="371" y="844" on="1"/>
        <pt x="1322" y="844" on="1"/>
        <pt x="1275" y="1323" on="0"/>
      </contour>
    </TTGlyph>
    <TTGlyph name="glyph00093" xMin="0" yMin="-220" xMax="1583" yMax="1298">
      <contour>
        <pt x="1583" y="1134" on="1"/>
        <pt x="1050" y="1134" on="1"/>
        <pt x="1254" y="974" on="0"/>
        <pt x="1254" y="722" on="1"/>
        <pt x="1254" y="605" on="0"/>
        <pt x="1136" y="416" on="0"/>
        <pt x="904" y="273" on="0"/>
        <pt x="720" y="202" on="1"/>
        <pt x="452" y="97" on="0"/>
        <pt x="277" y="-10" on="0"/>
        <pt x="186" y="-140" on="0"/>
        <pt x="186" y="-220" on="1"/>
        <pt x="0" y="-220" on="1"/>
        <pt x="0" y="-102" on="0"/>
        <pt x="115" y="84" on="0"/>
        <pt x="336" y="220" on="0"/>
        <pt x="534" y="295" on="1"/>
        <pt x="766" y="382" on="0"/>
        <pt x="967" y="502" on="0"/>
        <pt x="1068" y="654" on="0"/>
        <pt x="1068" y="751" on="1"/>
        <pt x="1068" y="820" on="0"/>
        <pt x="996" y="972" on="0"/>
        <pt x="867" y="1099" on="0"/>
        <pt x="785" y="1134" on="1"/>
        <pt x="520" y="1134" on="1"/>
        <pt x="520" y="1298" on="1"/>
        <pt x="1583" y="1298" on="1"/>
      </contour>
    </TTGlyph>
    <TTGlyph name="glyph00094" xMin="140" yMin="-220" xMax="1531" yMax="1298">
      <contour>
        <pt x="1323" y="-220" on="1"/>
        <pt x="1323" y="-103" on="0"/>
        <pt x="1254" y="54" on="0"/>
        <pt x="1113" y="147" on="0"/>
        <pt x="872" y="189" on="0"/>
        <pt x="621" y="189" on="1"/>
        <pt x="500" y="189" on="1"/>
        <pt x="407" y="353" on="1"/>
        <pt x="882" y="845" on="1"/>
        <pt x="785" y="840" on="1"/>
        <pt x="470" y="840" on="0"/>
        <pt x="140" y="1069" on="0"/>
        <pt x="140" y="1298" on="1"/>
        <pt x="326" y="1298" on="1"/>
        <pt x="326" y="1196" on="0"/>
        <pt x="418" y="1066" on="0"/>
        <pt x="621" y="1004" on="0"/>
        <pt x="824" y="1004" on="1"/>
        <pt x="923" y="1004" on="0"/>
        <pt x="1038" y="1026" on="0"/>
        <pt x="1086" y="1055" on="1"/>
        <pt x="1321" y="1298" on="1"/>
        <pt x="1531" y="1298" on="1"/>
        <pt x="632" y="353" on="1"/>
        <pt x="746" y="353" on="1"/>
        <pt x="971" y="353" on="0"/>
        <pt x="1248" y="284" on="0"/>
        <pt x="1421" y="146" on="0"/>
        <pt x="1509" y="-72" on="0"/>
        <pt x="1509" y="-220" on="1"/>
      </contour>
    </TTGlyph>
    <TTGlyph name="glyph00095" xMin="109" yMin="-240" xMax="1210" yMax="1298">
      <contour>
        <pt x="1210" y="1157" on="1"/>
        <pt x="1204" y="1044" on="0"/>
        <pt x="1190" y="804" on="0"/>
        <pt x="1165" y="565" on="0"/>
        <pt x="1126" y="335" on="0"/>
        <pt x="1061" y="130" on="0"/>
        <pt x="968" y="-44" on="0"/>
        <pt x="837" y="-169" on="0"/>
        <pt x="664" y="-240" on="0"/>
        <pt x="551" y="-240" on="1"/>
        <pt x="352" y="-240" on="0"/>
        <pt x="109" y="-21" on="0"/>
        <pt x="109" y="164" on="1"/>
        <pt x="109" y="238" on="0"/>
        <pt x="127" y="301" on="1"/>
        <pt x="310" y="277" on="1"/>
        <pt x="295" y="220" on="0"/>
        <pt x="295" y="158" on="1"/>
        <pt x="295" y="-68" on="0"/>
        <pt x="551" y="-68" on="1"/>
        <pt x="716" y="-68" on="0"/>
        <pt x="905" y="150" on="0"/>
        <pt x="1009" y="639" on="0"/>
        <pt x="1035" y="1134" on="1"/>
        <pt x="277" y="1134" on="1"/>
        <pt x="277" y="1298" on="1"/>
        <pt x="1210" y="1298" on="1"/>
      </contour>
    </TTGlyph>
    <TTGlyph name="glyph00096" xMin="180" yMin="74" xMax="884" yMax="1298">
      <contour>
        <pt x="700" y="74" on="1"/>
        <pt x="700" y="616" on="1"/>
        <pt x="180" y="616" on="1"/>
        <pt x="180" y="780" on="1"/>
        <pt x="700" y="780" on="1"/>
        <pt x="700" y="1298" on="1"/>
        <pt x="884" y="1298" on="1"/>
        <pt x="884" y="74" on="1"/>
      </contour>
    </TTGlyph>
    <TTGlyph name="glyph00097" xMin="180" yMin="-240" xMax="1096" yMax="1298">
      <contour>
        <pt x="1096" y="1211" on="1"/>
        <pt x="741" y="637" on="1"/>
        <pt x="861" y="588" on="0"/>
        <pt x="1006" y="378" on="0"/>
        <pt x="1006" y="260" on="1"/>
        <pt x="1006" y="131" on="0"/>
        <pt x="880" y="-125" on="0"/>
        <pt x="759" y="-240" on="1"/>
        <pt x="612" y="-153" on="1"/>
        <pt x="821" y="62" on="0"/>
        <pt x="821" y="249" on="1"/>
        <pt x="821" y="412" on="0"/>
        <pt x="649" y="488" on="1"/>
        <pt x="330" y="-29" on="1"/>
        <pt x="180" y="59" on="1"/>
        <pt x="701" y="903" on="1"/>
        <pt x="338" y="934" on="0"/>
        <pt x="305" y="1298" on="1"/>
        <pt x="492" y="1298" on="1"/>
        <pt x="504" y="1193" on="0"/>
        <pt x="640" y="1066" on="0"/>
        <pt x="741" y="1066" on="1"/>
        <pt x="763" y="1066" on="0"/>
        <pt x="805" y="1075" on="0"/>
        <pt x="811" y="1082" on="1"/>
        <pt x="945" y="1298" on="1"/>
      </contour>
    </TTGlyph>
    <TTGlyph name="glyph00098" xMin="180" yMin="-20" xMax="1866" yMax="1130">
      <contour>
        <pt x="1866" y="551" on="1"/>
        <pt x="1866" y="381" on="0"/>
        <pt x="1672" y="126" on="0"/>
        <pt x="1276" y="-20" on="0"/>
        <pt x="1022" y="-20" on="1"/>
        <pt x="770" y="-20" on="0"/>
        <pt x="379" y="126" on="0"/>
        <pt x="180" y="382" on="0"/>
        <pt x="180" y="551" on="1"/>
        <pt x="180" y="725" on="0"/>
        <pt x="387" y="985" on="0"/>
        <pt x="779" y="1130" on="0"/>
        <pt x="1024" y="1130" on="1"/>
        <pt x="1267" y="1130" on="0"/>
        <pt x="1660" y="985" on="0"/>
        <pt x="1866" y="725" on="0"/>
      </contour>
      <contour>
        <pt x="366" y="551" on="1"/>
        <pt x="366" y="377" on="0"/>
        <pt x="666" y="164" on="0"/>
        <pt x="931" y="147" on="1"/>
        <pt x="931" y="963" on="1"/>
        <pt x="661" y="946" on="0"/>
        <pt x="366" y="732" on="0"/>
      </contour>
      <contour>
        <pt x="1680" y="551" on="1"/>
        <pt x="1680" y="729" on="0"/>
        <pt x="1386" y="943" on="0"/>
        <pt x="1115" y="963" on="1"/>
        <pt x="1115" y="147" on="1"/>
        <pt x="1378" y="164" on="0"/>
        <pt x="1680" y="379" on="0"/>
      </contour>
    </TTGlyph>
    <TTGlyph name="glyph00099" xMin="180" yMin="-20" xMax="1530" yMax="1485">
      <contour>
        <pt x="1530" y="733" on="1"/>
        <pt x="1530" y="382" on="0"/>
        <pt x="1175" y="-20" on="0"/>
        <pt x="856" y="-20" on="1"/>
        <pt x="533" y="-20" on="0"/>
        <pt x="180" y="375" on="0"/>
        <pt x="180" y="735" on="1"/>
        <pt x="180" y="1092" on="0"/>
        <pt x="531" y="1485" on="0"/>
        <pt x="858" y="1485" on="1"/>
        <pt x="1176" y="1485" on="0"/>
        <pt x="1530" y="1086" on="0"/>
      </contour>
      <contour>
        <pt x="947" y="145" on="1"/>
        <pt x="1130" y="170" on="0"/>
        <pt x="1332" y="442" on="0"/>
        <pt x="1343" y="682" on="1"/>
        <pt x="947" y="682" on="1"/>
      </contour>
      <contour>
        <pt x="366" y="682" on="1"/>
        <pt x="376" y="448" on="0"/>
        <pt x="578" y="173" on="0"/>
        <pt x="763" y="145" on="1"/>
        <pt x="763" y="682" on="1"/>
      </contour>
      <contour>
        <pt x="1339" y="844" on="1"/>
        <pt x="1318" y="1054" on="0"/>
        <pt x="1118" y="1294" on="0"/>
        <pt x="947" y="1317" on="1"/>
        <pt x="947" y="844" on="1"/>
      </contour>
      <contour>
        <pt x="763" y="1316" on="1"/>
        <pt x="585" y="1290" on="0"/>
        <pt x="390" y="1045" on="0"/>
        <pt x="370" y="844" on="1"/>
        <pt x="763" y="844" on="1"/>
      </contour>
    </TTGlyph>
    <TTGlyph name="glyph00100" xMin="60" yMin="0" xMax="1384" yMax="1486">
      <contour>
        <pt x="60" y="1244" on="1"/>
        <pt x="123" y="1314" on="0"/>
        <pt x="292" y="1400" on="0"/>
        <pt x="387" y="1400" on="1"/>
        <pt x="547" y="1400" on="0"/>
        <pt x="623" y="1330" on="1"/>
        <pt x="680" y="1402" on="0"/>
        <pt x="859" y="1486" on="0"/>
        <pt x="966" y="1486" on="1"/>
        <pt x="1159" y="1486" on="0"/>
        <pt x="1384" y="1264" on="0"/>
        <pt x="1384" y="1081" on="1"/>
        <pt x="1384" y="968" on="0"/>
        <pt x="1297" y="737" on="0"/>
        <pt x="1147" y="496" on="0"/>
        <pt x="964" y="269" on="1"/>
        <pt x="748" y="0" on="1"/>
        <pt x="528" y="0" on="1"/>
        <pt x="786" y="319" on="1"/>
        <pt x="1010" y="588" on="0"/>
        <pt x="1198" y="937" on="0"/>
        <pt x="1198" y="1076" on="1"/>
        <pt x="1198" y="1186" on="0"/>
        <pt x="1070" y="1322" on="0"/>
        <pt x="966" y="1322" on="1"/>
        <pt x="842" y="1322" on="0"/>
        <pt x="694" y="1158" on="0"/>
        <pt x="691" y="1028" on="1"/>
        <pt x="506" y="1009" on="1"/>
        <pt x="508" y="1043" on="0"/>
        <pt x="514" y="1079" on="1"/>
        <pt x="519" y="1112" on="0"/>
        <pt x="519" y="1147" on="1"/>
        <pt x="519" y="1186" on="0"/>
        <pt x="437" y="1236" on="0"/>
        <pt x="377" y="1236" on="1"/>
        <pt x="267" y="1236" on="0"/>
        <pt x="188" y="1140" on="1"/>
      </contour>
    </TTGlyph>
    <TTGlyph name="glyph00101" xMin="180" yMin="-20" xMax="996" yMax="1482">
      <contour>
        <pt x="180" y="131" on="1"/>
        <pt x="431" y="287" on="0"/>
        <pt x="714" y="618" on="0"/>
        <pt x="768" y="813" on="1"/>
        <pt x="677" y="797" on="0"/>
        <pt x="633" y="797" on="1"/>
        <pt x="473" y="797" on="0"/>
        <pt x="323" y="938" on="0"/>
        <pt x="323" y="1107" on="1"/>
        <pt x="323" y="1206" on="0"/>
        <pt x="414" y="1382" on="0"/>
        <pt x="576" y="1482" on="0"/>
        <pt x="684" y="1482" on="1"/>
        <pt x="841" y="1482" on="0"/>
        <pt x="996" y="1303" on="0"/>
        <pt x="996" y="1114" on="1"/>
        <pt x="996" y="892" on="0"/>
        <pt x="815" y="469" on="0"/>
        <pt x="466" y="107" on="0"/>
        <pt x="223" y="-20" on="1"/>
      </contour>
      <contour>
        <pt x="810" y="1143" on="1"/>
        <pt x="810" y="1233" on="0"/>
        <pt x="745" y="1316" on="0"/>
        <pt x="670" y="1316" on="1"/>
        <pt x="588" y="1316" on="0"/>
        <pt x="503" y="1203" on="0"/>
        <pt x="503" y="1092" on="1"/>
        <pt x="503" y="1023" on="0"/>
        <pt x="560" y="963" on="0"/>
        <pt x="630" y="963" on="1"/>
        <pt x="685" y="963" on="0"/>
        <pt x="802" y="984" on="1"/>
        <pt x="810" y="1060" on="0"/>
      </contour>
    </TTGlyph>
    <TTGlyph name="glyph00102" xMin="260" yMin="620" xMax="514" yMax="897">
      <contour>
        <pt x="260" y="760" on="1"/>
        <pt x="260" y="826" on="0"/>
        <pt x="325" y="897" on="0"/>
        <pt x="385" y="897" on="1"/>
        <pt x="446" y="897" on="0"/>
        <pt x="514" y="826" on="0"/>
        <pt x="514" y="760" on="1"/>
        <pt x="514" y="695" on="0"/>
        <pt x="446" y="620" on="0"/>
        <pt x="385" y="620" on="1"/>
        <pt x="326" y="620" on="0"/>
        <pt x="260" y="694" on="0"/>
      </contour>
    </TTGlyph>
    <TTGlyph name="glyph00103" xMin="100" yMin="-9" xMax="1463" yMax="1483">
      <contour>
        <pt x="243" y="1483" on="1"/>
        <pt x="262" y="1409" on="0"/>
        <pt x="377" y="1252" on="0"/>
        <pt x="543" y="1087" on="0"/>
        <pt x="743" y="914" on="0"/>
        <pt x="952" y="735" on="0"/>
        <pt x="1154" y="549" on="0"/>
        <pt x="1322" y="358" on="0"/>
        <pt x="1441" y="161" on="0"/>
        <pt x="1463" y="61" on="1"/>
        <pt x="1292" y="-9" on="1"/>
        <pt x="1270" y="96" on="0"/>
        <pt x="1135" y="309" on="0"/>
        <pt x="926" y="532" on="0"/>
        <pt x="670" y="753" on="1"/>
        <pt x="466" y="928" on="1"/>
        <pt x="290" y="1078" on="0"/>
        <pt x="110" y="1313" on="0"/>
        <pt x="100" y="1406" on="1"/>
      </contour>
    </TTGlyph>
    <TTGlyph name="glyph00104" xMin="180" yMin="-10" xMax="1195" yMax="1483">
      <contour>
        <pt x="180" y="1320" on="1"/>
        <pt x="228" y="1396" on="0"/>
        <pt x="385" y="1483" on="0"/>
        <pt x="478" y="1483" on="1"/>
        <pt x="640" y="1483" on="0"/>
        <pt x="821" y="1323" on="0"/>
        <pt x="821" y="1180" on="1"/>
        <pt x="821" y="921" on="0"/>
        <pt x="584" y="761" on="1"/>
        <pt x="823" y="657" on="0"/>
        <pt x="1144" y="280" on="0"/>
        <pt x="1195" y="50" on="1"/>
        <pt x="1044" y="-10" on="1"/>
        <pt x="1015" y="141" on="0"/>
        <pt x="790" y="451" on="0"/>
        <pt x="467" y="657" on="0"/>
        <pt x="298" y="683" on="1"/>
        <pt x="298" y="778" on="1"/>
        <pt x="455" y="830" on="0"/>
        <pt x="636" y="1048" on="0"/>
        <pt x="636" y="1183" on="1"/>
        <pt x="636" y="1246" on="0"/>
        <pt x="542" y="1329" on="0"/>
        <pt x="472" y="1329" on="1"/>
        <pt x="362" y="1329" on="0"/>
        <pt x="301" y="1210" on="1"/>
      </contour>
    </TTGlyph>
    <TTGlyph name="glyph00105" xMin="180" yMin="-20" xMax="1072" yMax="1483">
      <contour>
        <pt x="180" y="1360" on="1"/>
        <pt x="231" y="1411" on="0"/>
        <pt x="306" y="1456" on="0"/>
        <pt x="400" y="1483" on="0"/>
        <pt x="466" y="1483" on="1"/>
        <pt x="560" y="1483" on="0"/>
        <pt x="693" y="1419" on="0"/>
        <pt x="764" y="1310" on="0"/>
        <pt x="764" y="1248" on="1"/>
        <pt x="764" y="1175" on="0"/>
        <pt x="717" y="1071" on="0"/>
        <pt x="660" y="1029" on="1"/>
        <pt x="796" y="957" on="0"/>
        <pt x="796" y="807" on="1"/>
        <pt x="796" y="622" on="0"/>
        <pt x="617" y="542" on="1"/>
        <pt x="784" y="464" on="0"/>
        <pt x="1009" y="218" on="0"/>
        <pt x="1072" y="40" on="1"/>
        <pt x="918" y="-20" on="1"/>
        <pt x="843" y="188" on="0"/>
        <pt x="494" y="461" on="0"/>
        <pt x="271" y="485" on="1"/>
        <pt x="271" y="591" on="1"/>
        <pt x="611" y="634" on="0"/>
        <pt x="611" y="796" on="1"/>
        <pt x="611" y="859" on="0"/>
        <pt x="518" y="926" on="0"/>
        <pt x="427" y="926" on="1"/>
        <pt x="363" y="926" on="1"/>
        <pt x="363" y="1076" on="1"/>
        <pt x="427" y="1076" on="1"/>
        <pt x="496" y="1076" on="0"/>
        <pt x="579" y="1154" on="0"/>
        <pt x="579" y="1218" on="1"/>
        <pt x="579" y="1329" on="0"/>
        <pt x="460" y="1329" on="1"/>
        <pt x="404" y="1329" on="0"/>
        <pt x="328" y="1291" on="0"/>
        <pt x="295" y="1253" on="1"/>
      </contour>
    </TTGlyph>
    <TTGlyph name="glyph00106" xMin="160" yMin="225" xMax="1533" yMax="1482">
      <contour>
        <pt x="320" y="1482" on="1"/>
        <pt x="325" y="1352" on="0"/>
        <pt x="438" y="1139" on="0"/>
        <pt x="650" y="978" on="0"/>
        <pt x="827" y="893" on="1"/>
        <pt x="1093" y="763" on="0"/>
        <pt x="1315" y="616" on="0"/>
        <pt x="1481" y="437" on="0"/>
        <pt x="1533" y="329" on="1"/>
        <pt x="1377" y="225" on="1"/>
        <pt x="1284" y="431" on="0"/>
        <pt x="1066" y="579" on="1"/>
        <pt x="1052" y="436" on="0"/>
        <pt x="838" y="278" on="0"/>
        <pt x="663" y="278" on="1"/>
        <pt x="532" y="278" on="0"/>
        <pt x="353" y="363" on="0"/>
        <pt x="259" y="514" on="0"/>
        <pt x="259" y="610" on="1"/>
        <pt x="259" y="705" on="0"/>
        <pt x="387" y="849" on="0"/>
        <pt x="501" y="884" on="1"/>
        <pt x="315" y="991" on="0"/>
        <pt x="160" y="1231" on="0"/>
        <pt x="160" y="1384" on="1"/>
        <pt x="163" y="1441" on="1"/>
      </contour>
      <contour>
        <pt x="883" y="599" on="1"/>
        <pt x="883" y="670" on="0"/>
        <pt x="772" y="754" on="0"/>
        <pt x="663" y="754" on="1"/>
        <pt x="554" y="754" on="0"/>
        <pt x="444" y="670" on="0"/>
        <pt x="444" y="599" on="1"/>
        <pt x="444" y="519" on="0"/>
        <pt x="560" y="432" on="0"/>
        <pt x="663" y="432" on="1"/>
        <pt x="767" y="432" on="0"/>
        <pt x="883" y="519" on="0"/>
      </contour>
    </TTGlyph>
    <TTGlyph name="glyph00107" xMin="120" yMin="-7" xMax="1438" yMax="1462">
      <contour>
        <pt x="870" y="1462" on="1"/>
        <pt x="878" y="1376" on="0"/>
        <pt x="939" y="1197" on="0"/>
        <pt x="1031" y="1009" on="0"/>
        <pt x="1171" y="768" on="1"/>
        <pt x="1284" y="573" on="0"/>
        <pt x="1385" y="351" on="0"/>
        <pt x="1438" y="153" on="0"/>
        <pt x="1438" y="59" on="1"/>
        <pt x="1438" y="36" on="1"/>
        <pt x="1437" y="13" on="1"/>
        <pt x="1251" y="-7" on="1"/>
        <pt x="1253" y="39" on="1"/>
        <pt x="1253" y="183" on="0"/>
        <pt x="1127" y="511" on="0"/>
        <pt x="939" y="823" on="1"/>
        <pt x="850" y="977" on="1"/>
        <pt x="795" y="908" on="0"/>
        <pt x="630" y="835" on="0"/>
        <pt x="524" y="835" on="1"/>
        <pt x="331" y="835" on="0"/>
        <pt x="120" y="1011" on="0"/>
        <pt x="120" y="1167" on="1"/>
        <pt x="120" y="1268" on="0"/>
        <pt x="251" y="1427" on="0"/>
        <pt x="354" y="1459" on="1"/>
        <pt x="415" y="1318" on="1"/>
        <pt x="351" y="1287" on="0"/>
        <pt x="305" y="1216" on="0"/>
        <pt x="305" y="1156" on="1"/>
        <pt x="305" y="1076" on="0"/>
        <pt x="421" y="989" on="0"/>
        <pt x="524" y="989" on="1"/>
        <pt x="621" y="989" on="0"/>
        <pt x="744" y="1092" on="0"/>
        <pt x="744" y="1176" on="1"/>
        <pt x="744" y="1208" on="0"/>
        <pt x="713" y="1303" on="1"/>
        <pt x="682" y="1397" on="0"/>
        <pt x="682" y="1461" on="1"/>
      </contour>
    </TTGlyph>
    <TTGlyph name="glyph00108" xMin="180" yMin="-25" xMax="1046" yMax="1462">
      <contour>
        <pt x="465" y="441" on="1"/>
        <pt x="422" y="426" on="0"/>
        <pt x="370" y="358" on="0"/>
        <pt x="370" y="313" on="1"/>
        <pt x="370" y="223" on="0"/>
        <pt x="478" y="129" on="0"/>
        <pt x="604" y="129" on="1"/>
        <pt x="726" y="129" on="0"/>
        <pt x="861" y="264" on="0"/>
        <pt x="861" y="391" on="1"/>
        <pt x="861" y="506" on="0"/>
        <pt x="696" y="844" on="0"/>
        <pt x="365" y="1280" on="0"/>
        <pt x="180" y="1462" on="1"/>
        <pt x="359" y="1462" on="1"/>
        <pt x="688" y="1154" on="0"/>
        <pt x="1046" y="595" on="0"/>
        <pt x="1046" y="385" on="1"/>
        <pt x="1046" y="261" on="0"/>
        <pt x="940" y="75" on="0"/>
        <pt x="735" y="-25" on="0"/>
        <pt x="594" y="-25" on="1"/>
        <pt x="399" y="-25" on="0"/>
        <pt x="185" y="150" on="0"/>
        <pt x="185" y="306" on="1"/>
        <pt x="185" y="407" on="0"/>
        <pt x="301" y="555" on="0"/>
        <pt x="407" y="591" on="1"/>
      </contour>
    </TTGlyph>
    <TTGlyph name="glyph00109" xMin="180" yMin="-5" xMax="1214" yMax="1482">
      <contour>
        <pt x="636" y="796" on="1"/>
        <pt x="614" y="791" on="0"/>
        <pt x="580" y="783" on="0"/>
        <pt x="549" y="779" on="0"/>
        <pt x="516" y="777" on="0"/>
        <pt x="495" y="777" on="1"/>
        <pt x="409" y="777" on="0"/>
        <pt x="262" y="859" on="0"/>
        <pt x="180" y="1005" on="0"/>
        <pt x="180" y="1097" on="1"/>
        <pt x="180" y="1199" on="0"/>
        <pt x="288" y="1378" on="0"/>
        <pt x="482" y="1482" on="0"/>
        <pt x="605" y="1482" on="1"/>
        <pt x="805" y="1482" on="0"/>
        <pt x="1077" y="1230" on="0"/>
        <pt x="1214" y="715" on="0"/>
        <pt x="1214" y="277" on="1"/>
        <pt x="1210" y="29" on="1"/>
        <pt x="1071" y="-5" on="1"/>
        <pt x="1071" y="368" on="0"/>
        <pt x="1025" y="826" on="0"/>
        <pt x="914" y="1163" on="0"/>
        <pt x="737" y="1328" on="0"/>
        <pt x="618" y="1328" on="1"/>
        <pt x="497" y="1328" on="0"/>
        <pt x="365" y="1207" on="0"/>
        <pt x="365" y="1101" on="1"/>
        <pt x="365" y="1027" on="0"/>
        <pt x="440" y="931" on="0"/>
        <pt x="504" y="931" on="1"/>
        <pt x="581" y="936" on="1"/>
      </contour>
    </TTGlyph>
    <TTGlyph name="glyph00110" xMin="130" yMin="452" xMax="882" yMax="1462">
      <contour>
        <pt x="130" y="1462" on="1"/>
        <pt x="842" y="1462" on="1"/>
        <pt x="842" y="1298" on="1"/>
        <pt x="586" y="1298" on="1"/>
        <pt x="509" y="1258" on="0"/>
        <pt x="416" y="1113" on="0"/>
        <pt x="416" y="1028" on="1"/>
        <pt x="416" y="919" on="0"/>
        <pt x="644" y="734" on="0"/>
        <pt x="882" y="655" on="1"/>
        <pt x="882" y="452" on="1"/>
        <pt x="231" y="680" on="0"/>
        <pt x="231" y="1025" on="1"/>
        <pt x="231" y="1183" on="0"/>
        <pt x="357" y="1298" on="1"/>
        <pt x="130" y="1298" on="1"/>
      </contour>
    </TTGlyph>
    <TTGlyph name="glyph00111" xMin="177" yMin="299" xMax="1259" yMax="1482">
      <contour>
        <pt x="1074" y="299" on="1"/>
        <pt x="1075" y="383" on="1"/>
        <pt x="1075" y="445" on="1"/>
        <pt x="1075" y="871" on="0"/>
        <pt x="850" y="1328" on="0"/>
        <pt x="630" y="1328" on="1"/>
        <pt x="507" y="1328" on="0"/>
        <pt x="362" y="1185" on="0"/>
        <pt x="362" y="1068" on="1"/>
        <pt x="362" y="972" on="0"/>
        <pt x="437" y="861" on="0"/>
        <pt x="501" y="861" on="1"/>
        <pt x="565" y="861" on="0"/>
        <pt x="642" y="958" on="0"/>
        <pt x="642" y="1034" on="1"/>
        <pt x="807" y="1011" on="1"/>
        <pt x="802" y="867" on="0"/>
        <pt x="641" y="707" on="0"/>
        <pt x="497" y="707" on="1"/>
        <pt x="360" y="707" on="0"/>
        <pt x="177" y="902" on="0"/>
        <pt x="177" y="1052" on="1"/>
        <pt x="177" y="1171" on="0"/>
        <pt x="289" y="1368" on="0"/>
        <pt x="500" y="1482" on="0"/>
        <pt x="646" y="1482" on="1"/>
        <pt x="838" y="1482" on="0"/>
        <pt x="1111" y="1249" on="0"/>
        <pt x="1259" y="782" on="0"/>
        <pt x="1259" y="465" on="1"/>
        <pt x="1259" y="395" on="1"/>
        <pt x="1258" y="318" on="1"/>
      </contour>
    </TTGlyph>
    <TTGlyph name="glyph00112" xMin="200" yMin="-325" xMax="1278" yMax="1462">
      <contour>
        <pt x="657" y="-325" on="1"/>
        <pt x="657" y="-22" on="1"/>
        <pt x="534" y="-14" on="0"/>
        <pt x="360" y="55" on="0"/>
        <pt x="251" y="185" on="0"/>
        <pt x="200" y="381" on="0"/>
        <pt x="200" y="516" on="1"/>
        <pt x="200" y="1462" on="1"/>
        <pt x="384" y="1462" on="1"/>
        <pt x="384" y="510" on="1"/>
        <pt x="384" y="417" on="0"/>
        <pt x="410" y="286" on="0"/>
        <pt x="472" y="201" on="0"/>
        <pt x="572" y="157" on="0"/>
        <pt x="647" y="151" on="1"/>
        <pt x="647" y="561" on="1"/>
        <pt x="831" y="561" on="1"/>
        <pt x="831" y="153" on="1"/>
        <pt x="909" y="161" on="0"/>
        <pt x="1010" y="206" on="0"/>
        <pt x="1070" y="291" on="0"/>
        <pt x="1094" y="419" on="0"/>
        <pt x="1094" y="511" on="1"/>
        <pt x="1094" y="567" on="1"/>
        <pt x="1278" y="567" on="1"/>
        <pt x="1278" y="511" on="1"/>
        <pt x="1278" y="373" on="0"/>
        <pt x="1226" y="179" on="0"/>
        <pt x="1116" y="53" on="0"/>
        <pt x="942" y="-12" on="0"/>
        <pt x="821" y="-21" on="1"/>
        <pt x="821" y="-325" on="1"/>
      </contour>
    </TTGlyph>
    <TTGlyph name="glyph00113" xMin="200" yMin="-325" xMax="1278" yMax="1462">
      <contour>
        <pt x="802" y="-325" on="1"/>
        <pt x="802" y="-22" on="1"/>
        <pt x="784" y="-23" on="0"/>
        <pt x="747" y="-24" on="0"/>
        <pt x="727" y="-24" on="1"/>
        <pt x="713" y="-24" on="0"/>
        <pt x="688" y="-23" on="0"/>
        <pt x="676" y="-23" on="1"/>
        <pt x="676" y="-325" on="1"/>
        <pt x="512" y="-325" on="1"/>
        <pt x="512" y="0" on="1"/>
        <pt x="431" y="20" on="0"/>
        <pt x="313" y="100" on="0"/>
        <pt x="236" y="225" on="0"/>
        <pt x="200" y="400" on="0"/>
        <pt x="200" y="516" on="1"/>
        <pt x="200" y="1462" on="1"/>
        <pt x="384" y="1462" on="1"/>
        <pt x="384" y="510" on="1"/>
        <pt x="384" y="417" on="0"/>
        <pt x="410" y="286" on="0"/>
        <pt x="472" y="201" on="0"/>
        <pt x="572" y="157" on="0"/>
        <pt x="647" y="151" on="1"/>
        <pt x="647" y="561" on="1"/>
        <pt x="831" y="561" on="1"/>
        <pt x="831" y="153" on="1"/>
        <pt x="909" y="161" on="0"/>
        <pt x="1010" y="206" on="0"/>
        <pt x="1070" y="291" on="0"/>
        <pt x="1094" y="419" on="0"/>
        <pt x="1094" y="511" on="1"/>
        <pt x="1094" y="567" on="1"/>
        <pt x="1278" y="567" on="1"/>
        <pt x="1278" y="511" on="1"/>
        <pt x="1278" y="391" on="0"/>
        <pt x="1241" y="217" on="0"/>
        <pt x="1164" y="97" on="0"/>
        <pt x="1047" y="23" on="0"/>
        <pt x="966" y="2" on="1"/>
        <pt x="966" y="-325" on="1"/>
      </contour>
    </TTGlyph>
    <TTGlyph name="glyph00114" xMin="200" yMin="-325" xMax="923" yMax="1462">
      <contour>
        <pt x="759" y="-325" on="1"/>
        <pt x="759" y="0" on="1"/>
        <pt x="200" y="0" on="1"/>
        <pt x="200" y="1462" on="1"/>
        <pt x="923" y="1462" on="1"/>
        <pt x="923" y="1298" on="1"/>
        <pt x="384" y="1298" on="1"/>
        <pt x="384" y="164" on="1"/>
        <pt x="923" y="164" on="1"/>
        <pt x="923" y="-325" on="1"/>
      </contour>
    </TTGlyph>
    <TTGlyph name="glyph00115" xMin="200" yMin="-325" xMax="923" yMax="1462">
      <contour>
        <pt x="759" y="-325" on="1"/>
        <pt x="759" y="0" on="1"/>
        <pt x="633" y="0" on="1"/>
        <pt x="633" y="-325" on="1"/>
        <pt x="469" y="-325" on="1"/>
        <pt x="469" y="0" on="1"/>
        <pt x="200" y="0" on="1"/>
        <pt x="200" y="1462" on="1"/>
        <pt x="923" y="1462" on="1"/>
        <pt x="923" y="1298" on="1"/>
        <pt x="384" y="1298" on="1"/>
        <pt x="384" y="164" on="1"/>
        <pt x="923" y="164" on="1"/>
        <pt x="923" y="-325" on="1"/>
      </contour>
    </TTGlyph>
    <TTGlyph name="glyph00116" xMin="160" yMin="-325" xMax="910" yMax="1462">
      <contour>
        <pt x="545" y="-325" on="1"/>
        <pt x="545" y="4" on="1"/>
        <pt x="384" y="21" on="0"/>
        <pt x="287" y="89" on="1"/>
        <pt x="160" y="179" on="0"/>
        <pt x="160" y="337" on="1"/>
        <pt x="160" y="527" on="0"/>
        <pt x="429" y="706" on="0"/>
        <pt x="708" y="706" on="1"/>
        <pt x="726" y="706" on="1"/>
        <pt x="726" y="1462" on="1"/>
        <pt x="910" y="1462" on="1"/>
        <pt x="910" y="0" on="1"/>
        <pt x="709" y="0" on="1"/>
        <pt x="709" y="-325" on="1"/>
      </contour>
      <contour>
        <pt x="726" y="542" on="1"/>
        <pt x="574" y="542" on="0"/>
        <pt x="498" y="524" on="1"/>
        <pt x="422" y="507" on="0"/>
        <pt x="355" y="424" on="0"/>
        <pt x="355" y="345" on="1"/>
        <pt x="355" y="249" on="0"/>
        <pt x="541" y="164" on="0"/>
        <pt x="726" y="164" on="1"/>
      </contour>
    </TTGlyph>
    <TTGlyph name="glyph00117" xMin="160" yMin="-325" xMax="910" yMax="1462">
      <contour>
        <pt x="689" y="-325" on="1"/>
        <pt x="689" y="0" on="1"/>
        <pt x="646" y="0" on="1"/>
        <pt x="602" y="0" on="0"/>
        <pt x="563" y="3" on="1"/>
        <pt x="563" y="-325" on="1"/>
        <pt x="399" y="-325" on="1"/>
        <pt x="399" y="34" on="1"/>
        <pt x="334" y="55" on="0"/>
        <pt x="287" y="89" on="1"/>
        <pt x="160" y="179" on="0"/>
        <pt x="160" y="337" on="1"/>
        <pt x="160" y="527" on="0"/>
        <pt x="429" y="706" on="0"/>
        <pt x="708" y="706" on="1"/>
        <pt x="726" y="706" on="1"/>
        <pt x="726" y="1462" on="1"/>
        <pt x="910" y="1462" on="1"/>
        <pt x="910" y="0" on="1"/>
        <pt x="853" y="0" on="1"/>
        <pt x="853" y="-325" on="1"/>
      </contour>
      <contour>
        <pt x="726" y="542" on="1"/>
        <pt x="574" y="542" on="0"/>
        <pt x="498" y="524" on="1"/>
        <pt x="422" y="507" on="0"/>
        <pt x="355" y="424" on="0"/>
        <pt x="355" y="345" on="1"/>
        <pt x="355" y="249" on="0"/>
        <pt x="541" y="164" on="0"/>
        <pt x="726" y="164" on="1"/>
      </contour>
    </TTGlyph>
    <TTGlyph name="glyph00118" xMin="130" yMin="-325" xMax="1118" yMax="1462">
      <contour>
        <pt x="542" y="-325" on="1"/>
        <pt x="542" y="-18" on="1"/>
        <pt x="455" y="-5" on="0"/>
        <pt x="304" y="79" on="0"/>
        <pt x="193" y="205" on="0"/>
        <pt x="130" y="365" on="0"/>
        <pt x="130" y="454" on="1"/>
        <pt x="130" y="543" on="0"/>
        <pt x="191" y="701" on="0"/>
        <pt x="299" y="825" on="0"/>
        <pt x="446" y="909" on="0"/>
        <pt x="532" y="924" on="1"/>
        <pt x="532" y="1462" on="1"/>
        <pt x="716" y="1462" on="1"/>
        <pt x="716" y="924" on="1"/>
        <pt x="800" y="909" on="0"/>
        <pt x="947" y="825" on="0"/>
        <pt x="1056" y="700" on="0"/>
        <pt x="1118" y="542" on="0"/>
        <pt x="1118" y="454" on="1"/>
        <pt x="1118" y="368" on="0"/>
        <pt x="1058" y="209" on="0"/>
        <pt x="949" y="83" on="0"/>
        <pt x="797" y="-4" on="0"/>
        <pt x="706" y="-18" on="1"/>
        <pt x="706" y="-325" on="1"/>
      </contour>
      <contour>
        <pt x="716" y="756" on="1"/>
        <pt x="716" y="152" on="1"/>
        <pt x="768" y="168" on="0"/>
        <pt x="849" y="229" on="0"/>
        <pt x="905" y="311" on="0"/>
        <pt x="934" y="407" on="0"/>
        <pt x="934" y="458" on="1"/>
        <pt x="934" y="509" on="0"/>
        <pt x="902" y="604" on="0"/>
        <pt x="844" y="683" on="0"/>
        <pt x="764" y="741" on="0"/>
      </contour>
      <contour>
        <pt x="532" y="755" on="1"/>
        <pt x="484" y="739" on="0"/>
        <pt x="403" y="680" on="0"/>
        <pt x="346" y="601" on="0"/>
        <pt x="314" y="508" on="0"/>
        <pt x="314" y="458" on="1"/>
        <pt x="314" y="407" on="0"/>
        <pt x="346" y="311" on="0"/>
        <pt x="404" y="230" on="0"/>
        <pt x="484" y="169" on="0"/>
        <pt x="532" y="153" on="1"/>
      </contour>
    </TTGlyph>
    <TTGlyph name="glyph00119" xMin="130" yMin="-325" xMax="1118" yMax="1462">
      <contour>
        <pt x="687" y="-325" on="1"/>
        <pt x="687" y="-20" on="1"/>
        <pt x="671" y="-22" on="0"/>
        <pt x="640" y="-24" on="0"/>
        <pt x="624" y="-24" on="1"/>
        <pt x="607" y="-24" on="0"/>
        <pt x="576" y="-22" on="0"/>
        <pt x="561" y="-20" on="1"/>
        <pt x="561" y="-325" on="1"/>
        <pt x="397" y="-325" on="1"/>
        <pt x="397" y="28" on="1"/>
        <pt x="375" y="40" on="1"/>
        <pt x="318" y="72" on="0"/>
        <pt x="228" y="161" on="0"/>
        <pt x="164" y="268" on="0"/>
        <pt x="130" y="390" on="0"/>
        <pt x="130" y="454" on="1"/>
        <pt x="130" y="543" on="0"/>
        <pt x="191" y="701" on="0"/>
        <pt x="299" y="825" on="0"/>
        <pt x="446" y="909" on="0"/>
        <pt x="532" y="924" on="1"/>
        <pt x="532" y="1462" on="1"/>
        <pt x="716" y="1462" on="1"/>
        <pt x="716" y="924" on="1"/>
        <pt x="800" y="909" on="0"/>
        <pt x="947" y="825" on="0"/>
        <pt x="1056" y="700" on="0"/>
        <pt x="1118" y="542" on="0"/>
        <pt x="1118" y="454" on="1"/>
        <pt x="1118" y="389" on="0"/>
        <pt x="1084" y="267" on="0"/>
        <pt x="1019" y="159" on="0"/>
        <pt x="928" y="70" on="0"/>
        <pt x="871" y="39" on="1"/>
        <pt x="866" y="36" on="0"/>
        <pt x="856" y="31" on="0"/>
        <pt x="851" y="28" on="1"/>
        <pt x="851" y="-325" on="1"/>
      </contour>
      <contour>
        <pt x="716" y="756" on="1"/>
        <pt x="716" y="152" on="1"/>
        <pt x="764" y="168" on="0"/>
        <pt x="845" y="229" on="0"/>
        <pt x="902" y="311" on="0"/>
        <pt x="934" y="407" on="0"/>
        <pt x="934" y="458" on="1"/>
        <pt x="934" y="509" on="0"/>
        <pt x="902" y="604" on="0"/>
        <pt x="844" y="683" on="0"/>
        <pt x="764" y="741" on="0"/>
      </contour>
      <contour>
        <pt x="532" y="755" on="1"/>
        <pt x="484" y="739" on="0"/>
        <pt x="403" y="680" on="0"/>
        <pt x="346" y="601" on="0"/>
        <pt x="314" y="508" on="0"/>
        <pt x="314" y="458" on="1"/>
        <pt x="314" y="407" on="0"/>
        <pt x="346" y="311" on="0"/>
        <pt x="404" y="230" on="0"/>
        <pt x="484" y="169" on="0"/>
        <pt x="532" y="153" on="1"/>
      </contour>
    </TTGlyph>
    <TTGlyph name="glyph00120" xMin="160" yMin="0" xMax="1164" yMax="1462">
      <contour>
        <pt x="721" y="516" on="1"/>
        <pt x="721" y="656" on="1"/>
        <pt x="537" y="654" on="0"/>
        <pt x="355" y="523" on="0"/>
        <pt x="355" y="385" on="1"/>
        <pt x="355" y="279" on="0"/>
        <pt x="511" y="164" on="0"/>
        <pt x="649" y="164" on="1"/>
        <pt x="902" y="164" on="1"/>
        <pt x="902" y="0" on="1"/>
        <pt x="655" y="0" on="1"/>
        <pt x="541" y="0" on="0"/>
        <pt x="357" y="56" on="0"/>
        <pt x="229" y="158" on="0"/>
        <pt x="160" y="299" on="0"/>
        <pt x="160" y="384" on="1"/>
        <pt x="160" y="505" on="0"/>
        <pt x="269" y="686" on="0"/>
        <pt x="366" y="738" on="1"/>
        <pt x="267" y="789" on="0"/>
        <pt x="160" y="961" on="0"/>
        <pt x="160" y="1078" on="1"/>
        <pt x="160" y="1160" on="0"/>
        <pt x="234" y="1300" on="0"/>
        <pt x="369" y="1403" on="0"/>
        <pt x="559" y="1462" on="0"/>
        <pt x="675" y="1462" on="1"/>
        <pt x="902" y="1462" on="1"/>
        <pt x="902" y="1298" on="1"/>
        <pt x="660" y="1298" on="1"/>
        <pt x="521" y="1298" on="0"/>
        <pt x="438" y="1239" on="1"/>
        <pt x="355" y="1180" on="0"/>
        <pt x="355" y="1077" on="1"/>
        <pt x="355" y="1010" on="0"/>
        <pt x="398" y="914" on="0"/>
        <pt x="488" y="851" on="0"/>
        <pt x="626" y="821" on="0"/>
        <pt x="721" y="820" on="1"/>
        <pt x="721" y="950" on="1"/>
        <pt x="885" y="950" on="1"/>
        <pt x="885" y="820" on="1"/>
        <pt x="1164" y="820" on="1"/>
        <pt x="1164" y="656" on="1"/>
        <pt x="885" y="656" on="1"/>
        <pt x="885" y="516" on="1"/>
      </contour>
    </TTGlyph>
    <TTGlyph name="glyph00121" xMin="50" yMin="0" xMax="1421" yMax="1462">
      <contour>
        <pt x="50" y="1212" on="1"/>
        <pt x="445" y="1212" on="1"/>
        <pt x="470" y="1267" on="0"/>
        <pt x="561" y="1359" on="0"/>
        <pt x="685" y="1425" on="0"/>
        <pt x="841" y="1462" on="0"/>
        <pt x="932" y="1462" on="1"/>
        <pt x="1159" y="1462" on="1"/>
        <pt x="1159" y="1298" on="1"/>
        <pt x="917" y="1298" on="1"/>
        <pt x="778" y="1298" on="0"/>
        <pt x="695" y="1239" on="1"/>
        <pt x="612" y="1180" on="0"/>
        <pt x="612" y="1077" on="1"/>
        <pt x="612" y="1010" on="0"/>
        <pt x="655" y="914" on="0"/>
        <pt x="745" y="851" on="0"/>
        <pt x="883" y="821" on="0"/>
        <pt x="978" y="820" on="1"/>
        <pt x="978" y="950" on="1"/>
        <pt x="1142" y="950" on="1"/>
        <pt x="1142" y="820" on="1"/>
        <pt x="1421" y="820" on="1"/>
        <pt x="1421" y="656" on="1"/>
        <pt x="1142" y="656" on="1"/>
        <pt x="1142" y="516" on="1"/>
        <pt x="978" y="516" on="1"/>
        <pt x="978" y="656" on="1"/>
        <pt x="794" y="654" on="0"/>
        <pt x="612" y="523" on="0"/>
        <pt x="612" y="385" on="1"/>
        <pt x="612" y="279" on="0"/>
        <pt x="768" y="164" on="0"/>
        <pt x="906" y="164" on="1"/>
        <pt x="1159" y="164" on="1"/>
        <pt x="1159" y="0" on="1"/>
        <pt x="912" y="0" on="1"/>
        <pt x="798" y="0" on="0"/>
        <pt x="614" y="56" on="0"/>
        <pt x="486" y="158" on="0"/>
        <pt x="417" y="299" on="0"/>
        <pt x="417" y="384" on="1"/>
        <pt x="417" y="505" on="0"/>
        <pt x="526" y="686" on="0"/>
        <pt x="623" y="738" on="1"/>
        <pt x="530" y="786" on="0"/>
        <pt x="425" y="942" on="0"/>
        <pt x="418" y="1048" on="1"/>
        <pt x="50" y="1048" on="1"/>
      </contour>
    </TTGlyph>
    <TTGlyph name="glyph00122" xMin="50" yMin="0" xMax="1421" yMax="1462">
      <contour>
        <pt x="50" y="1049" on="1"/>
        <pt x="418" y="1049" on="1"/>
        <pt x="417" y="1056" on="0"/>
        <pt x="417" y="1070" on="0"/>
        <pt x="417" y="1078" on="1"/>
        <pt x="417" y="1149" on="0"/>
        <pt x="446" y="1213" on="1"/>
        <pt x="50" y="1213" on="1"/>
        <pt x="50" y="1377" on="1"/>
        <pt x="595" y="1377" on="1"/>
        <pt x="661" y="1417" on="0"/>
        <pt x="830" y="1462" on="0"/>
        <pt x="932" y="1462" on="1"/>
        <pt x="1159" y="1462" on="1"/>
        <pt x="1159" y="1298" on="1"/>
        <pt x="917" y="1298" on="1"/>
        <pt x="778" y="1298" on="0"/>
        <pt x="695" y="1239" on="1"/>
        <pt x="612" y="1180" on="0"/>
        <pt x="612" y="1077" on="1"/>
        <pt x="612" y="1010" on="0"/>
        <pt x="655" y="914" on="0"/>
        <pt x="745" y="851" on="0"/>
        <pt x="883" y="821" on="0"/>
        <pt x="978" y="820" on="1"/>
        <pt x="978" y="950" on="1"/>
        <pt x="1142" y="950" on="1"/>
        <pt x="1142" y="820" on="1"/>
        <pt x="1421" y="820" on="1"/>
        <pt x="1421" y="656" on="1"/>
        <pt x="1142" y="656" on="1"/>
        <pt x="1142" y="516" on="1"/>
        <pt x="978" y="516" on="1"/>
        <pt x="978" y="656" on="1"/>
        <pt x="794" y="654" on="0"/>
        <pt x="612" y="523" on="0"/>
        <pt x="612" y="385" on="1"/>
        <pt x="612" y="279" on="0"/>
        <pt x="768" y="164" on="0"/>
        <pt x="906" y="164" on="1"/>
        <pt x="1159" y="164" on="1"/>
        <pt x="1159" y="0" on="1"/>
        <pt x="912" y="0" on="1"/>
        <pt x="798" y="0" on="0"/>
        <pt x="614" y="56" on="0"/>
        <pt x="486" y="158" on="0"/>
        <pt x="417" y="299" on="0"/>
        <pt x="417" y="384" on="1"/>
        <pt x="417" y="505" on="0"/>
        <pt x="526" y="686" on="0"/>
        <pt x="623" y="738" on="1"/>
        <pt x="517" y="793" on="0"/>
        <pt x="465" y="885" on="1"/>
        <pt x="50" y="885" on="1"/>
      </contour>
    </TTGlyph>
    <TTGlyph name="glyph00123" xMin="160" yMin="-325" xMax="902" yMax="1462">
      <contour>
        <pt x="738" y="-325" on="1"/>
        <pt x="738" y="0" on="1"/>
        <pt x="655" y="0" on="1"/>
        <pt x="541" y="0" on="0"/>
        <pt x="357" y="56" on="0"/>
        <pt x="229" y="158" on="0"/>
        <pt x="160" y="299" on="0"/>
        <pt x="160" y="384" on="1"/>
        <pt x="160" y="505" on="0"/>
        <pt x="269" y="686" on="0"/>
        <pt x="366" y="738" on="1"/>
        <pt x="267" y="789" on="0"/>
        <pt x="160" y="961" on="0"/>
        <pt x="160" y="1078" on="1"/>
        <pt x="160" y="1160" on="0"/>
        <pt x="234" y="1300" on="0"/>
        <pt x="369" y="1403" on="0"/>
        <pt x="559" y="1462" on="0"/>
        <pt x="675" y="1462" on="1"/>
        <pt x="902" y="1462" on="1"/>
        <pt x="902" y="1298" on="1"/>
        <pt x="660" y="1298" on="1"/>
        <pt x="521" y="1298" on="0"/>
        <pt x="438" y="1239" on="1"/>
        <pt x="355" y="1180" on="0"/>
        <pt x="355" y="1077" on="1"/>
        <pt x="355" y="941" on="0"/>
        <pt x="538" y="820" on="0"/>
        <pt x="734" y="820" on="1"/>
        <pt x="864" y="820" on="1"/>
        <pt x="864" y="656" on="1"/>
        <pt x="734" y="656" on="1"/>
        <pt x="543" y="656" on="0"/>
        <pt x="355" y="526" on="0"/>
        <pt x="355" y="385" on="1"/>
        <pt x="355" y="279" on="0"/>
        <pt x="511" y="164" on="0"/>
        <pt x="649" y="164" on="1"/>
        <pt x="902" y="164" on="1"/>
        <pt x="902" y="-325" on="1"/>
      </contour>
    </TTGlyph>
    <TTGlyph name="glyph00124" xMin="160" yMin="-325" xMax="902" yMax="1462">
      <contour>
        <pt x="448" y="-325" on="1"/>
        <pt x="448" y="28" on="1"/>
        <pt x="311" y="70" on="0"/>
        <pt x="160" y="256" on="0"/>
        <pt x="160" y="384" on="1"/>
        <pt x="160" y="505" on="0"/>
        <pt x="269" y="686" on="0"/>
        <pt x="366" y="738" on="1"/>
        <pt x="267" y="789" on="0"/>
        <pt x="160" y="961" on="0"/>
        <pt x="160" y="1078" on="1"/>
        <pt x="160" y="1160" on="0"/>
        <pt x="234" y="1300" on="0"/>
        <pt x="369" y="1403" on="0"/>
        <pt x="559" y="1462" on="0"/>
        <pt x="675" y="1462" on="1"/>
        <pt x="902" y="1462" on="1"/>
        <pt x="902" y="1298" on="1"/>
        <pt x="660" y="1298" on="1"/>
        <pt x="521" y="1298" on="0"/>
        <pt x="438" y="1239" on="1"/>
        <pt x="355" y="1180" on="0"/>
        <pt x="355" y="1077" on="1"/>
        <pt x="355" y="941" on="0"/>
        <pt x="538" y="820" on="0"/>
        <pt x="734" y="820" on="1"/>
        <pt x="864" y="820" on="1"/>
        <pt x="864" y="656" on="1"/>
        <pt x="734" y="656" on="1"/>
        <pt x="543" y="656" on="0"/>
        <pt x="355" y="526" on="0"/>
        <pt x="355" y="385" on="1"/>
        <pt x="355" y="279" on="0"/>
        <pt x="511" y="164" on="0"/>
        <pt x="649" y="164" on="1"/>
        <pt x="902" y="164" on="1"/>
        <pt x="902" y="-325" on="1"/>
        <pt x="738" y="-325" on="1"/>
        <pt x="738" y="0" on="1"/>
        <pt x="655" y="0" on="1"/>
        <pt x="644" y="0" on="0"/>
        <pt x="623" y="0" on="0"/>
        <pt x="612" y="1" on="1"/>
        <pt x="612" y="-325" on="1"/>
      </contour>
    </TTGlyph>
    <TTGlyph name="glyph00125" xMin="50" yMin="0" xMax="1678" yMax="1462">
      <contour>
        <pt x="436" y="0" on="1"/>
        <pt x="436" y="1298" on="1"/>
        <pt x="50" y="1298" on="1"/>
        <pt x="50" y="1462" on="1"/>
        <pt x="620" y="1462" on="1"/>
        <pt x="620" y="884" on="1"/>
        <pt x="662" y="848" on="0"/>
        <pt x="787" y="798" on="0"/>
        <pt x="862" y="798" on="1"/>
        <pt x="996" y="798" on="0"/>
        <pt x="1052" y="861" on="1"/>
        <pt x="1108" y="925" on="0"/>
        <pt x="1108" y="1063" on="1"/>
        <pt x="1108" y="1462" on="1"/>
        <pt x="1678" y="1462" on="1"/>
        <pt x="1678" y="1298" on="1"/>
        <pt x="1292" y="1298" on="1"/>
        <pt x="1292" y="1028" on="1"/>
        <pt x="1292" y="818" on="0"/>
        <pt x="1084" y="627" on="0"/>
        <pt x="884" y="627" on="1"/>
        <pt x="809" y="627" on="0"/>
        <pt x="669" y="664" on="0"/>
        <pt x="620" y="697" on="1"/>
        <pt x="620" y="0" on="1"/>
      </contour>
    </TTGlyph>
    <TTGlyph name="glyph00126" xMin="50" yMin="0" xMax="1678" yMax="1462">
      <contour>
        <pt x="436" y="0" on="1"/>
        <pt x="436" y="970" on="1"/>
        <pt x="50" y="970" on="1"/>
        <pt x="50" y="1134" on="1"/>
        <pt x="436" y="1134" on="1"/>
        <pt x="436" y="1298" on="1"/>
        <pt x="50" y="1298" on="1"/>
        <pt x="50" y="1462" on="1"/>
        <pt x="620" y="1462" on="1"/>
        <pt x="620" y="884" on="1"/>
        <pt x="662" y="848" on="0"/>
        <pt x="787" y="798" on="0"/>
        <pt x="862" y="798" on="1"/>
        <pt x="996" y="798" on="0"/>
        <pt x="1052" y="861" on="1"/>
        <pt x="1108" y="925" on="0"/>
        <pt x="1108" y="1063" on="1"/>
        <pt x="1108" y="1462" on="1"/>
        <pt x="1678" y="1462" on="1"/>
        <pt x="1678" y="1298" on="1"/>
        <pt x="1292" y="1298" on="1"/>
        <pt x="1292" y="1028" on="1"/>
        <pt x="1292" y="818" on="0"/>
        <pt x="1084" y="627" on="0"/>
        <pt x="884" y="627" on="1"/>
        <pt x="809" y="627" on="0"/>
        <pt x="669" y="664" on="0"/>
        <pt x="620" y="697" on="1"/>
        <pt x="620" y="0" on="1"/>
      </contour>
    </TTGlyph>
    <TTGlyph name="glyph00127" xMin="100" yMin="0" xMax="1165" yMax="1462">
      <contour>
        <pt x="100" y="1124" on="1"/>
        <pt x="419" y="1124" on="1"/>
        <pt x="419" y="1298" on="1"/>
        <pt x="100" y="1298" on="1"/>
        <pt x="100" y="1462" on="1"/>
        <pt x="603" y="1462" on="1"/>
        <pt x="603" y="1288" on="1"/>
        <pt x="1061" y="1288" on="1"/>
        <pt x="1061" y="1124" on="1"/>
        <pt x="603" y="1124" on="1"/>
        <pt x="603" y="1012" on="1"/>
        <pt x="680" y="1035" on="0"/>
        <pt x="757" y="1035" on="1"/>
        <pt x="957" y="1035" on="0"/>
        <pt x="1165" y="844" on="0"/>
        <pt x="1165" y="634" on="1"/>
        <pt x="1165" y="349" on="1"/>
        <pt x="981" y="349" on="1"/>
        <pt x="981" y="599" on="1"/>
        <pt x="981" y="737" on="0"/>
        <pt x="925" y="801" on="1"/>
        <pt x="869" y="864" on="0"/>
        <pt x="735" y="864" on="1"/>
        <pt x="660" y="864" on="0"/>
        <pt x="603" y="845" on="1"/>
        <pt x="603" y="0" on="1"/>
        <pt x="419" y="0" on="1"/>
        <pt x="419" y="960" on="1"/>
        <pt x="100" y="960" on="1"/>
      </contour>
    </TTGlyph>
    <TTGlyph name="glyph00128" xMin="100" yMin="0" xMax="1165" yMax="1462">
      <contour>
        <pt x="100" y="796" on="1"/>
        <pt x="419" y="796" on="1"/>
        <pt x="419" y="960" on="1"/>
        <pt x="100" y="960" on="1"/>
        <pt x="100" y="1124" on="1"/>
        <pt x="419" y="1124" on="1"/>
        <pt x="419" y="1298" on="1"/>
        <pt x="100" y="1298" on="1"/>
        <pt x="100" y="1462" on="1"/>
        <pt x="603" y="1462" on="1"/>
        <pt x="603" y="1288" on="1"/>
        <pt x="1061" y="1288" on="1"/>
        <pt x="1061" y="1124" on="1"/>
        <pt x="603" y="1124" on="1"/>
        <pt x="603" y="1012" on="1"/>
        <pt x="680" y="1035" on="0"/>
        <pt x="757" y="1035" on="1"/>
        <pt x="957" y="1035" on="0"/>
        <pt x="1165" y="844" on="0"/>
        <pt x="1165" y="634" on="1"/>
        <pt x="1165" y="349" on="1"/>
        <pt x="981" y="349" on="1"/>
        <pt x="981" y="599" on="1"/>
        <pt x="981" y="737" on="0"/>
        <pt x="925" y="801" on="1"/>
        <pt x="869" y="864" on="0"/>
        <pt x="735" y="864" on="1"/>
        <pt x="660" y="864" on="0"/>
        <pt x="603" y="845" on="1"/>
        <pt x="603" y="0" on="1"/>
        <pt x="419" y="0" on="1"/>
        <pt x="419" y="632" on="1"/>
        <pt x="100" y="632" on="1"/>
      </contour>
    </TTGlyph>
    <TTGlyph name="glyph00129" xMin="160" yMin="-325" xMax="895" yMax="1462">
      <contour>
        <pt x="731" y="-325" on="1"/>
        <pt x="731" y="5" on="1"/>
        <pt x="591" y="19" on="0"/>
        <pt x="377" y="128" on="0"/>
        <pt x="233" y="313" on="0"/>
        <pt x="160" y="571" on="0"/>
        <pt x="160" y="733" on="1"/>
        <pt x="160" y="903" on="0"/>
        <pt x="255" y="1174" on="0"/>
        <pt x="436" y="1362" on="0"/>
        <pt x="697" y="1462" on="0"/>
        <pt x="862" y="1462" on="1"/>
        <pt x="895" y="1462" on="1"/>
        <pt x="895" y="1298" on="1"/>
        <pt x="860" y="1298" on="1"/>
        <pt x="740" y="1298" on="0"/>
        <pt x="552" y="1221" on="0"/>
        <pt x="422" y="1076" on="0"/>
        <pt x="354" y="865" on="0"/>
        <pt x="354" y="731" on="1"/>
        <pt x="354" y="596" on="0"/>
        <pt x="419" y="385" on="0"/>
        <pt x="546" y="240" on="0"/>
        <pt x="734" y="164" on="0"/>
        <pt x="858" y="164" on="1"/>
        <pt x="895" y="164" on="1"/>
        <pt x="895" y="-325" on="1"/>
      </contour>
    </TTGlyph>
    <TTGlyph name="glyph00130" xMin="160" yMin="-325" xMax="895" yMax="1462">
      <contour>
        <pt x="441" y="-325" on="1"/>
        <pt x="441" y="98" on="1"/>
        <pt x="300" y="184" on="0"/>
        <pt x="160" y="507" on="0"/>
        <pt x="160" y="733" on="1"/>
        <pt x="160" y="903" on="0"/>
        <pt x="255" y="1174" on="0"/>
        <pt x="436" y="1362" on="0"/>
        <pt x="697" y="1462" on="0"/>
        <pt x="862" y="1462" on="1"/>
        <pt x="895" y="1462" on="1"/>
        <pt x="895" y="1298" on="1"/>
        <pt x="860" y="1298" on="1"/>
        <pt x="740" y="1298" on="0"/>
        <pt x="552" y="1221" on="0"/>
        <pt x="422" y="1076" on="0"/>
        <pt x="354" y="865" on="0"/>
        <pt x="354" y="731" on="1"/>
        <pt x="354" y="596" on="0"/>
        <pt x="419" y="385" on="0"/>
        <pt x="546" y="240" on="0"/>
        <pt x="734" y="164" on="0"/>
        <pt x="858" y="164" on="1"/>
        <pt x="895" y="164" on="1"/>
        <pt x="895" y="-325" on="1"/>
        <pt x="731" y="-325" on="1"/>
        <pt x="731" y="5" on="1"/>
        <pt x="697" y="8" on="0"/>
        <pt x="634" y="19" on="0"/>
        <pt x="605" y="27" on="1"/>
        <pt x="605" y="-325" on="1"/>
      </contour>
    </TTGlyph>
    <TTGlyph name="glyph00131" xMin="35" yMin="56" xMax="1641" yMax="1412">
      <contour>
        <pt x="35" y="1405" on="1"/>
        <pt x="736" y="1405" on="1"/>
        <pt x="761" y="1408" on="0"/>
        <pt x="812" y="1412" on="0"/>
        <pt x="838" y="1412" on="1"/>
        <pt x="864" y="1412" on="0"/>
        <pt x="913" y="1408" on="0"/>
        <pt x="938" y="1405" on="1"/>
        <pt x="1641" y="1405" on="1"/>
        <pt x="1641" y="1241" on="1"/>
        <pt x="1297" y="1241" on="1"/>
        <pt x="1399" y="1150" on="0"/>
        <pt x="1516" y="891" on="0"/>
        <pt x="1516" y="734" on="1"/>
        <pt x="1516" y="596" on="0"/>
        <pt x="1418" y="350" on="0"/>
        <pt x="1240" y="164" on="0"/>
        <pt x="990" y="56" on="0"/>
        <pt x="838" y="56" on="1"/>
        <pt x="743" y="56" on="0"/>
        <pt x="569" y="102" on="0"/>
        <pt x="418" y="186" on="0"/>
        <pt x="295" y="307" on="0"/>
        <pt x="208" y="458" on="0"/>
        <pt x="160" y="635" on="0"/>
        <pt x="160" y="734" on="1"/>
        <pt x="160" y="886" on="0"/>
        <pt x="275" y="1147" on="0"/>
        <pt x="378" y="1241" on="1"/>
        <pt x="35" y="1241" on="1"/>
      </contour>
      <contour>
        <pt x="355" y="735" on="1"/>
        <pt x="355" y="633" on="0"/>
        <pt x="427" y="450" on="0"/>
        <pt x="556" y="310" on="0"/>
        <pt x="733" y="228" on="0"/>
        <pt x="838" y="228" on="1"/>
        <pt x="937" y="228" on="0"/>
        <pt x="1112" y="306" on="0"/>
        <pt x="1244" y="443" on="0"/>
        <pt x="1321" y="628" on="0"/>
        <pt x="1321" y="735" on="1"/>
        <pt x="1321" y="835" on="0"/>
        <pt x="1249" y="1017" on="0"/>
        <pt x="1120" y="1157" on="0"/>
        <pt x="943" y="1240" on="0"/>
        <pt x="838" y="1240" on="1"/>
        <pt x="740" y="1240" on="0"/>
        <pt x="565" y="1163" on="0"/>
        <pt x="433" y="1028" on="0"/>
        <pt x="355" y="843" on="0"/>
      </contour>
    </TTGlyph>
    <TTGlyph name="glyph00132" xMin="35" yMin="56" xMax="1641" yMax="1412">
      <contour>
        <pt x="35" y="1077" on="1"/>
        <pt x="248" y="1077" on="1"/>
        <pt x="300" y="1171" on="0"/>
        <pt x="378" y="1241" on="1"/>
        <pt x="35" y="1241" on="1"/>
        <pt x="35" y="1405" on="1"/>
        <pt x="736" y="1405" on="1"/>
        <pt x="761" y="1408" on="0"/>
        <pt x="812" y="1412" on="0"/>
        <pt x="838" y="1412" on="1"/>
        <pt x="864" y="1412" on="0"/>
        <pt x="913" y="1408" on="0"/>
        <pt x="938" y="1405" on="1"/>
        <pt x="1641" y="1405" on="1"/>
        <pt x="1641" y="1241" on="1"/>
        <pt x="1297" y="1241" on="1"/>
        <pt x="1399" y="1150" on="0"/>
        <pt x="1516" y="891" on="0"/>
        <pt x="1516" y="734" on="1"/>
        <pt x="1516" y="596" on="0"/>
        <pt x="1418" y="350" on="0"/>
        <pt x="1240" y="164" on="0"/>
        <pt x="990" y="56" on="0"/>
        <pt x="838" y="56" on="1"/>
        <pt x="743" y="56" on="0"/>
        <pt x="569" y="102" on="0"/>
        <pt x="418" y="186" on="0"/>
        <pt x="295" y="307" on="0"/>
        <pt x="208" y="458" on="0"/>
        <pt x="160" y="635" on="0"/>
        <pt x="160" y="734" on="1"/>
        <pt x="160" y="781" on="0"/>
        <pt x="171" y="870" on="0"/>
        <pt x="182" y="913" on="1"/>
        <pt x="35" y="913" on="1"/>
      </contour>
      <contour>
        <pt x="355" y="735" on="1"/>
        <pt x="355" y="633" on="0"/>
        <pt x="427" y="450" on="0"/>
        <pt x="556" y="310" on="0"/>
        <pt x="733" y="228" on="0"/>
        <pt x="838" y="228" on="1"/>
        <pt x="937" y="228" on="0"/>
        <pt x="1112" y="306" on="0"/>
        <pt x="1244" y="443" on="0"/>
        <pt x="1321" y="628" on="0"/>
        <pt x="1321" y="735" on="1"/>
        <pt x="1321" y="835" on="0"/>
        <pt x="1249" y="1017" on="0"/>
        <pt x="1120" y="1157" on="0"/>
        <pt x="943" y="1240" on="0"/>
        <pt x="838" y="1240" on="1"/>
        <pt x="740" y="1240" on="0"/>
        <pt x="565" y="1163" on="0"/>
        <pt x="433" y="1028" on="0"/>
        <pt x="355" y="843" on="0"/>
      </contour>
    </TTGlyph>
    <TTGlyph name="glyph00133" xMin="160" yMin="-325" xMax="1516" yMax="1412">
      <contour>
        <pt x="756" y="-325" on="1"/>
        <pt x="756" y="60" on="1"/>
        <pt x="628" y="74" on="0"/>
        <pt x="410" y="185" on="0"/>
        <pt x="251" y="362" on="0"/>
        <pt x="160" y="597" on="0"/>
        <pt x="160" y="734" on="1"/>
        <pt x="160" y="874" on="0"/>
        <pt x="260" y="1121" on="0"/>
        <pt x="440" y="1305" on="0"/>
        <pt x="689" y="1412" on="0"/>
        <pt x="838" y="1412" on="1"/>
        <pt x="932" y="1412" on="0"/>
        <pt x="1106" y="1366" on="0"/>
        <pt x="1257" y="1281" on="0"/>
        <pt x="1380" y="1160" on="0"/>
        <pt x="1468" y="1010" on="0"/>
        <pt x="1516" y="832" on="0"/>
        <pt x="1516" y="734" on="1"/>
        <pt x="1516" y="605" on="0"/>
        <pt x="1431" y="374" on="0"/>
        <pt x="1275" y="192" on="0"/>
        <pt x="1055" y="75" on="0"/>
        <pt x="920" y="60" on="1"/>
        <pt x="920" y="-325" on="1"/>
      </contour>
      <contour>
        <pt x="355" y="735" on="1"/>
        <pt x="355" y="633" on="0"/>
        <pt x="427" y="450" on="0"/>
        <pt x="556" y="310" on="0"/>
        <pt x="733" y="228" on="0"/>
        <pt x="838" y="228" on="1"/>
        <pt x="937" y="228" on="0"/>
        <pt x="1112" y="306" on="0"/>
        <pt x="1244" y="443" on="0"/>
        <pt x="1321" y="628" on="0"/>
        <pt x="1321" y="735" on="1"/>
        <pt x="1321" y="835" on="0"/>
        <pt x="1249" y="1017" on="0"/>
        <pt x="1120" y="1157" on="0"/>
        <pt x="943" y="1240" on="0"/>
        <pt x="838" y="1240" on="1"/>
        <pt x="740" y="1240" on="0"/>
        <pt x="565" y="1163" on="0"/>
        <pt x="433" y="1028" on="0"/>
        <pt x="355" y="843" on="0"/>
      </contour>
    </TTGlyph>
    <TTGlyph name="glyph00134" xMin="160" yMin="-325" xMax="1516" yMax="1412">
      <contour>
        <pt x="901" y="-325" on="1"/>
        <pt x="901" y="59" on="1"/>
        <pt x="869" y="56" on="0"/>
        <pt x="838" y="56" on="1"/>
        <pt x="821" y="56" on="0"/>
        <pt x="791" y="56" on="0"/>
        <pt x="775" y="58" on="1"/>
        <pt x="775" y="-325" on="1"/>
        <pt x="611" y="-325" on="1"/>
        <pt x="611" y="92" on="1"/>
        <pt x="512" y="125" on="0"/>
        <pt x="346" y="246" on="0"/>
        <pt x="226" y="412" on="0"/>
        <pt x="160" y="617" on="0"/>
        <pt x="160" y="734" on="1"/>
        <pt x="160" y="874" on="0"/>
        <pt x="260" y="1121" on="0"/>
        <pt x="440" y="1305" on="0"/>
        <pt x="689" y="1412" on="0"/>
        <pt x="838" y="1412" on="1"/>
        <pt x="932" y="1412" on="0"/>
        <pt x="1106" y="1366" on="0"/>
        <pt x="1257" y="1281" on="0"/>
        <pt x="1380" y="1160" on="0"/>
        <pt x="1468" y="1010" on="0"/>
        <pt x="1516" y="832" on="0"/>
        <pt x="1516" y="734" on="1"/>
        <pt x="1516" y="624" on="0"/>
        <pt x="1453" y="421" on="0"/>
        <pt x="1335" y="252" on="0"/>
        <pt x="1168" y="125" on="0"/>
        <pt x="1065" y="91" on="1"/>
        <pt x="1065" y="-325" on="1"/>
      </contour>
      <contour>
        <pt x="355" y="735" on="1"/>
        <pt x="355" y="633" on="0"/>
        <pt x="427" y="450" on="0"/>
        <pt x="556" y="310" on="0"/>
        <pt x="733" y="228" on="0"/>
        <pt x="838" y="228" on="1"/>
        <pt x="937" y="228" on="0"/>
        <pt x="1112" y="306" on="0"/>
        <pt x="1244" y="443" on="0"/>
        <pt x="1321" y="628" on="0"/>
        <pt x="1321" y="735" on="1"/>
        <pt x="1321" y="835" on="0"/>
        <pt x="1249" y="1017" on="0"/>
        <pt x="1120" y="1157" on="0"/>
        <pt x="943" y="1240" on="0"/>
        <pt x="838" y="1240" on="1"/>
        <pt x="740" y="1240" on="0"/>
        <pt x="565" y="1163" on="0"/>
        <pt x="433" y="1028" on="0"/>
        <pt x="355" y="843" on="0"/>
      </contour>
    </TTGlyph>
    <TTGlyph name="glyph00135" xMin="130" yMin="-325" xMax="1099" yMax="1462">
      <contour>
        <pt x="549" y="-325" on="1"/>
        <pt x="549" y="-20" on="1"/>
        <pt x="452" y="-10" on="0"/>
        <pt x="297" y="70" on="0"/>
        <pt x="188" y="193" on="0"/>
        <pt x="130" y="351" on="0"/>
        <pt x="130" y="440" on="1"/>
        <pt x="130" y="524" on="0"/>
        <pt x="194" y="677" on="0"/>
        <pt x="305" y="799" on="0"/>
        <pt x="456" y="882" on="0"/>
        <pt x="543" y="896" on="1"/>
        <pt x="543" y="1462" on="1"/>
        <pt x="727" y="1462" on="1"/>
        <pt x="727" y="742" on="1"/>
        <pt x="635" y="742" on="1"/>
        <pt x="570" y="742" on="0"/>
        <pt x="457" y="693" on="0"/>
        <pt x="373" y="609" on="0"/>
        <pt x="325" y="496" on="0"/>
        <pt x="325" y="433" on="1"/>
        <pt x="325" y="366" on="0"/>
        <pt x="368" y="260" on="0"/>
        <pt x="448" y="187" on="0"/>
        <pt x="563" y="148" on="0"/>
        <pt x="635" y="148" on="1"/>
        <pt x="765" y="148" on="0"/>
        <pt x="915" y="241" on="0"/>
        <pt x="915" y="331" on="1"/>
        <pt x="915" y="391" on="0"/>
        <pt x="861" y="450" on="0"/>
        <pt x="818" y="450" on="1"/>
        <pt x="712" y="450" on="0"/>
        <pt x="669" y="318" on="1"/>
        <pt x="498" y="398" on="1"/>
        <pt x="533" y="494" on="0"/>
        <pt x="685" y="612" on="0"/>
        <pt x="804" y="612" on="1"/>
        <pt x="870" y="612" on="0"/>
        <pt x="979" y="572" on="0"/>
        <pt x="1056" y="498" on="0"/>
        <pt x="1099" y="394" on="0"/>
        <pt x="1099" y="331" on="1"/>
        <pt x="1099" y="256" on="0"/>
        <pt x="1047" y="135" on="0"/>
        <pt x="948" y="46" on="0"/>
        <pt x="804" y="-10" on="0"/>
        <pt x="713" y="-19" on="1"/>
        <pt x="713" y="-325" on="1"/>
      </contour>
    </TTGlyph>
    <TTGlyph name="glyph00136" xMin="130" yMin="-325" xMax="1099" yMax="1462">
      <contour>
        <pt x="694" y="-325" on="1"/>
        <pt x="694" y="-20" on="1"/>
        <pt x="674" y="-22" on="0"/>
        <pt x="634" y="-24" on="0"/>
        <pt x="614" y="-24" on="1"/>
        <pt x="602" y="-24" on="0"/>
        <pt x="579" y="-23" on="0"/>
        <pt x="568" y="-22" on="1"/>
        <pt x="568" y="-325" on="1"/>
        <pt x="404" y="-325" on="1"/>
        <pt x="404" y="17" on="1"/>
        <pt x="339" y="44" on="0"/>
        <pt x="238" y="130" on="0"/>
        <pt x="167" y="239" on="0"/>
        <pt x="130" y="369" on="0"/>
        <pt x="130" y="440" on="1"/>
        <pt x="130" y="524" on="0"/>
        <pt x="194" y="677" on="0"/>
        <pt x="305" y="799" on="0"/>
        <pt x="456" y="882" on="0"/>
        <pt x="543" y="896" on="1"/>
        <pt x="543" y="1462" on="1"/>
        <pt x="727" y="1462" on="1"/>
        <pt x="727" y="742" on="1"/>
        <pt x="635" y="742" on="1"/>
        <pt x="570" y="742" on="0"/>
        <pt x="457" y="693" on="0"/>
        <pt x="373" y="609" on="0"/>
        <pt x="325" y="496" on="0"/>
        <pt x="325" y="433" on="1"/>
        <pt x="325" y="366" on="0"/>
        <pt x="368" y="260" on="0"/>
        <pt x="448" y="187" on="0"/>
        <pt x="563" y="148" on="0"/>
        <pt x="635" y="148" on="1"/>
        <pt x="765" y="148" on="0"/>
        <pt x="915" y="241" on="0"/>
        <pt x="915" y="331" on="1"/>
        <pt x="915" y="391" on="0"/>
        <pt x="861" y="450" on="0"/>
        <pt x="818" y="450" on="1"/>
        <pt x="712" y="450" on="0"/>
        <pt x="669" y="318" on="1"/>
        <pt x="498" y="398" on="1"/>
        <pt x="533" y="494" on="0"/>
        <pt x="685" y="612" on="0"/>
        <pt x="804" y="612" on="1"/>
        <pt x="870" y="612" on="0"/>
        <pt x="979" y="572" on="0"/>
        <pt x="1056" y="498" on="0"/>
        <pt x="1099" y="394" on="0"/>
        <pt x="1099" y="331" on="1"/>
        <pt x="1099" y="213" on="0"/>
        <pt x="974" y="52" on="0"/>
        <pt x="858" y="12" on="1"/>
        <pt x="858" y="-325" on="1"/>
      </contour>
    </TTGlyph>
    <TTGlyph name="glyph00137" xMin="100" yMin="-325" xMax="1002" yMax="1462">
      <contour>
        <pt x="838" y="-325" on="1"/>
        <pt x="838" y="0" on="1"/>
        <pt x="100" y="0" on="1"/>
        <pt x="100" y="164" on="1"/>
        <pt x="459" y="164" on="1"/>
        <pt x="459" y="1298" on="1"/>
        <pt x="100" y="1298" on="1"/>
        <pt x="100" y="1462" on="1"/>
        <pt x="1002" y="1462" on="1"/>
        <pt x="1002" y="1298" on="1"/>
        <pt x="643" y="1298" on="1"/>
        <pt x="643" y="164" on="1"/>
        <pt x="1002" y="164" on="1"/>
        <pt x="1002" y="-325" on="1"/>
      </contour>
    </TTGlyph>
    <TTGlyph name="glyph00138" xMin="100" yMin="-325" xMax="1002" yMax="1462">
      <contour>
        <pt x="838" y="-325" on="1"/>
        <pt x="838" y="0" on="1"/>
        <pt x="712" y="0" on="1"/>
        <pt x="712" y="-325" on="1"/>
        <pt x="548" y="-325" on="1"/>
        <pt x="548" y="0" on="1"/>
        <pt x="100" y="0" on="1"/>
        <pt x="100" y="164" on="1"/>
        <pt x="459" y="164" on="1"/>
        <pt x="459" y="1298" on="1"/>
        <pt x="100" y="1298" on="1"/>
        <pt x="100" y="1462" on="1"/>
        <pt x="1002" y="1462" on="1"/>
        <pt x="1002" y="1298" on="1"/>
        <pt x="643" y="1298" on="1"/>
        <pt x="643" y="164" on="1"/>
        <pt x="1002" y="164" on="1"/>
        <pt x="1002" y="-325" on="1"/>
      </contour>
    </TTGlyph>
    <TTGlyph name="glyph00139" xMin="35" yMin="56" xMax="1641" yMax="1412">
      <contour>
        <pt x="35" y="1405" on="1"/>
        <pt x="736" y="1405" on="1"/>
        <pt x="761" y="1408" on="0"/>
        <pt x="812" y="1412" on="0"/>
        <pt x="838" y="1412" on="1"/>
        <pt x="864" y="1412" on="0"/>
        <pt x="913" y="1408" on="0"/>
        <pt x="938" y="1405" on="1"/>
        <pt x="1641" y="1405" on="1"/>
        <pt x="1641" y="1241" on="1"/>
        <pt x="1297" y="1241" on="1"/>
        <pt x="1399" y="1150" on="0"/>
        <pt x="1516" y="891" on="0"/>
        <pt x="1516" y="734" on="1"/>
        <pt x="1516" y="596" on="0"/>
        <pt x="1418" y="350" on="0"/>
        <pt x="1240" y="164" on="0"/>
        <pt x="990" y="56" on="0"/>
        <pt x="838" y="56" on="1"/>
        <pt x="743" y="56" on="0"/>
        <pt x="569" y="102" on="0"/>
        <pt x="418" y="186" on="0"/>
        <pt x="295" y="307" on="0"/>
        <pt x="208" y="458" on="0"/>
        <pt x="160" y="635" on="0"/>
        <pt x="160" y="734" on="1"/>
        <pt x="160" y="886" on="0"/>
        <pt x="275" y="1147" on="0"/>
        <pt x="378" y="1241" on="1"/>
        <pt x="35" y="1241" on="1"/>
      </contour>
      <contour>
        <pt x="355" y="735" on="1"/>
        <pt x="355" y="633" on="0"/>
        <pt x="427" y="450" on="0"/>
        <pt x="556" y="310" on="0"/>
        <pt x="733" y="228" on="0"/>
        <pt x="838" y="228" on="1"/>
        <pt x="937" y="228" on="0"/>
        <pt x="1112" y="306" on="0"/>
        <pt x="1244" y="443" on="0"/>
        <pt x="1321" y="628" on="0"/>
        <pt x="1321" y="735" on="1"/>
        <pt x="1321" y="835" on="0"/>
        <pt x="1249" y="1017" on="0"/>
        <pt x="1120" y="1157" on="0"/>
        <pt x="943" y="1240" on="0"/>
        <pt x="838" y="1240" on="1"/>
        <pt x="740" y="1240" on="0"/>
        <pt x="565" y="1163" on="0"/>
        <pt x="433" y="1028" on="0"/>
        <pt x="355" y="843" on="0"/>
      </contour>
      <contour>
        <pt x="711" y="741" on="1"/>
        <pt x="711" y="807" on="0"/>
        <pt x="773" y="880" on="0"/>
        <pt x="836" y="880" on="1"/>
        <pt x="899" y="880" on="0"/>
        <pt x="965" y="808" on="0"/>
        <pt x="965" y="741" on="1"/>
        <pt x="965" y="677" on="0"/>
        <pt x="897" y="602" on="0"/>
        <pt x="836" y="602" on="1"/>
        <pt x="776" y="602" on="0"/>
        <pt x="711" y="675" on="0"/>
      </contour>
    </TTGlyph>
    <TTGlyph name="glyph00140" xMin="35" yMin="56" xMax="1641" yMax="1412">
      <contour>
        <pt x="35" y="1077" on="1"/>
        <pt x="248" y="1077" on="1"/>
        <pt x="300" y="1171" on="0"/>
        <pt x="378" y="1241" on="1"/>
        <pt x="35" y="1241" on="1"/>
        <pt x="35" y="1405" on="1"/>
        <pt x="736" y="1405" on="1"/>
        <pt x="761" y="1408" on="0"/>
        <pt x="812" y="1412" on="0"/>
        <pt x="838" y="1412" on="1"/>
        <pt x="864" y="1412" on="0"/>
        <pt x="913" y="1408" on="0"/>
        <pt x="938" y="1405" on="1"/>
        <pt x="1641" y="1405" on="1"/>
        <pt x="1641" y="1241" on="1"/>
        <pt x="1297" y="1241" on="1"/>
        <pt x="1399" y="1150" on="0"/>
        <pt x="1516" y="891" on="0"/>
        <pt x="1516" y="734" on="1"/>
        <pt x="1516" y="596" on="0"/>
        <pt x="1418" y="350" on="0"/>
        <pt x="1240" y="164" on="0"/>
        <pt x="990" y="56" on="0"/>
        <pt x="838" y="56" on="1"/>
        <pt x="743" y="56" on="0"/>
        <pt x="569" y="102" on="0"/>
        <pt x="418" y="186" on="0"/>
        <pt x="295" y="307" on="0"/>
        <pt x="208" y="458" on="0"/>
        <pt x="160" y="635" on="0"/>
        <pt x="160" y="734" on="1"/>
        <pt x="160" y="781" on="0"/>
        <pt x="171" y="870" on="0"/>
        <pt x="182" y="913" on="1"/>
        <pt x="35" y="913" on="1"/>
      </contour>
      <contour>
        <pt x="355" y="735" on="1"/>
        <pt x="355" y="633" on="0"/>
        <pt x="427" y="450" on="0"/>
        <pt x="556" y="310" on="0"/>
        <pt x="733" y="228" on="0"/>
        <pt x="838" y="228" on="1"/>
        <pt x="937" y="228" on="0"/>
        <pt x="1112" y="306" on="0"/>
        <pt x="1244" y="443" on="0"/>
        <pt x="1321" y="628" on="0"/>
        <pt x="1321" y="735" on="1"/>
        <pt x="1321" y="835" on="0"/>
        <pt x="1249" y="1017" on="0"/>
        <pt x="1120" y="1157" on="0"/>
        <pt x="943" y="1240" on="0"/>
        <pt x="838" y="1240" on="1"/>
        <pt x="740" y="1240" on="0"/>
        <pt x="565" y="1163" on="0"/>
        <pt x="433" y="1028" on="0"/>
        <pt x="355" y="843" on="0"/>
      </contour>
      <contour>
        <pt x="711" y="741" on="1"/>
        <pt x="711" y="807" on="0"/>
        <pt x="773" y="880" on="0"/>
        <pt x="836" y="880" on="1"/>
        <pt x="899" y="880" on="0"/>
        <pt x="965" y="808" on="0"/>
        <pt x="965" y="741" on="1"/>
        <pt x="965" y="677" on="0"/>
        <pt x="897" y="602" on="0"/>
        <pt x="836" y="602" on="1"/>
        <pt x="776" y="602" on="0"/>
        <pt x="711" y="675" on="0"/>
      </contour>
    </TTGlyph>
    <TTGlyph name="glyph00141" xMin="160" yMin="-325" xMax="1516" yMax="1412">
      <contour>
        <pt x="756" y="-325" on="1"/>
        <pt x="756" y="60" on="1"/>
        <pt x="628" y="74" on="0"/>
        <pt x="410" y="185" on="0"/>
        <pt x="251" y="362" on="0"/>
        <pt x="160" y="597" on="0"/>
        <pt x="160" y="734" on="1"/>
        <pt x="160" y="874" on="0"/>
        <pt x="260" y="1121" on="0"/>
        <pt x="440" y="1305" on="0"/>
        <pt x="689" y="1412" on="0"/>
        <pt x="838" y="1412" on="1"/>
        <pt x="932" y="1412" on="0"/>
        <pt x="1106" y="1366" on="0"/>
        <pt x="1257" y="1281" on="0"/>
        <pt x="1380" y="1160" on="0"/>
        <pt x="1468" y="1010" on="0"/>
        <pt x="1516" y="832" on="0"/>
        <pt x="1516" y="734" on="1"/>
        <pt x="1516" y="605" on="0"/>
        <pt x="1431" y="374" on="0"/>
        <pt x="1275" y="192" on="0"/>
        <pt x="1055" y="75" on="0"/>
        <pt x="920" y="60" on="1"/>
        <pt x="920" y="-325" on="1"/>
      </contour>
      <contour>
        <pt x="355" y="735" on="1"/>
        <pt x="355" y="633" on="0"/>
        <pt x="427" y="450" on="0"/>
        <pt x="556" y="310" on="0"/>
        <pt x="733" y="228" on="0"/>
        <pt x="838" y="228" on="1"/>
        <pt x="937" y="228" on="0"/>
        <pt x="1112" y="306" on="0"/>
        <pt x="1244" y="443" on="0"/>
        <pt x="1321" y="628" on="0"/>
        <pt x="1321" y="735" on="1"/>
        <pt x="1321" y="835" on="0"/>
        <pt x="1249" y="1017" on="0"/>
        <pt x="1120" y="1157" on="0"/>
        <pt x="943" y="1240" on="0"/>
        <pt x="838" y="1240" on="1"/>
        <pt x="740" y="1240" on="0"/>
        <pt x="565" y="1163" on="0"/>
        <pt x="433" y="1028" on="0"/>
        <pt x="355" y="843" on="0"/>
      </contour>
      <contour>
        <pt x="711" y="741" on="1"/>
        <pt x="711" y="807" on="0"/>
        <pt x="773" y="880" on="0"/>
        <pt x="836" y="880" on="1"/>
        <pt x="899" y="880" on="0"/>
        <pt x="965" y="808" on="0"/>
        <pt x="965" y="741" on="1"/>
        <pt x="965" y="677" on="0"/>
        <pt x="897" y="602" on="0"/>
        <pt x="836" y="602" on="1"/>
        <pt x="776" y="602" on="0"/>
        <pt x="711" y="675" on="0"/>
      </contour>
    </TTGlyph>
    <TTGlyph name="glyph00142" xMin="160" yMin="-325" xMax="1516" yMax="1412">
      <contour>
        <pt x="901" y="-325" on="1"/>
        <pt x="901" y="59" on="1"/>
        <pt x="869" y="56" on="0"/>
        <pt x="838" y="56" on="1"/>
        <pt x="821" y="56" on="0"/>
        <pt x="791" y="56" on="0"/>
        <pt x="775" y="58" on="1"/>
        <pt x="775" y="-325" on="1"/>
        <pt x="611" y="-325" on="1"/>
        <pt x="611" y="92" on="1"/>
        <pt x="512" y="125" on="0"/>
        <pt x="346" y="246" on="0"/>
        <pt x="226" y="412" on="0"/>
        <pt x="160" y="617" on="0"/>
        <pt x="160" y="734" on="1"/>
        <pt x="160" y="874" on="0"/>
        <pt x="260" y="1121" on="0"/>
        <pt x="440" y="1305" on="0"/>
        <pt x="689" y="1412" on="0"/>
        <pt x="838" y="1412" on="1"/>
        <pt x="932" y="1412" on="0"/>
        <pt x="1106" y="1366" on="0"/>
        <pt x="1257" y="1281" on="0"/>
        <pt x="1380" y="1160" on="0"/>
        <pt x="1468" y="1010" on="0"/>
        <pt x="1516" y="832" on="0"/>
        <pt x="1516" y="734" on="1"/>
        <pt x="1516" y="624" on="0"/>
        <pt x="1453" y="421" on="0"/>
        <pt x="1335" y="252" on="0"/>
        <pt x="1168" y="125" on="0"/>
        <pt x="1065" y="91" on="1"/>
        <pt x="1065" y="-325" on="1"/>
      </contour>
      <contour>
        <pt x="355" y="735" on="1"/>
        <pt x="355" y="633" on="0"/>
        <pt x="427" y="450" on="0"/>
        <pt x="556" y="310" on="0"/>
        <pt x="733" y="228" on="0"/>
        <pt x="838" y="228" on="1"/>
        <pt x="937" y="228" on="0"/>
        <pt x="1112" y="306" on="0"/>
        <pt x="1244" y="443" on="0"/>
        <pt x="1321" y="628" on="0"/>
        <pt x="1321" y="735" on="1"/>
        <pt x="1321" y="835" on="0"/>
        <pt x="1249" y="1017" on="0"/>
        <pt x="1120" y="1157" on="0"/>
        <pt x="943" y="1240" on="0"/>
        <pt x="838" y="1240" on="1"/>
        <pt x="740" y="1240" on="0"/>
        <pt x="565" y="1163" on="0"/>
        <pt x="433" y="1028" on="0"/>
        <pt x="355" y="843" on="0"/>
      </contour>
      <contour>
        <pt x="711" y="741" on="1"/>
        <pt x="711" y="807" on="0"/>
        <pt x="773" y="880" on="0"/>
        <pt x="836" y="880" on="1"/>
        <pt x="899" y="880" on="0"/>
        <pt x="965" y="808" on="0"/>
        <pt x="965" y="741" on="1"/>
        <pt x="965" y="677" on="0"/>
        <pt x="897" y="602" on="0"/>
        <pt x="836" y="602" on="1"/>
        <pt x="776" y="602" on="0"/>
        <pt x="711" y="675" on="0"/>
      </contour>
    </TTGlyph>
    <TTGlyph name="glyph00143" xMin="50" yMin="0" xMax="1444" yMax="1462">
      <contour>
        <pt x="436" y="0" on="1"/>
        <pt x="436" y="1138" on="1"/>
        <pt x="50" y="1138" on="1"/>
        <pt x="50" y="1302" on="1"/>
        <pt x="436" y="1302" on="1"/>
        <pt x="436" y="1462" on="1"/>
        <pt x="1444" y="1462" on="1"/>
        <pt x="1444" y="1298" on="1"/>
        <pt x="1105" y="1298" on="1"/>
        <pt x="1221" y="1184" on="0"/>
        <pt x="1322" y="903" on="0"/>
        <pt x="1322" y="733" on="1"/>
        <pt x="1322" y="377" on="0"/>
        <pt x="1150" y="189" on="1"/>
        <pt x="977" y="0" on="0"/>
        <pt x="650" y="0" on="1"/>
      </contour>
      <contour>
        <pt x="620" y="164" on="1"/>
        <pt x="624" y="164" on="1"/>
        <pt x="746" y="164" on="0"/>
        <pt x="934" y="239" on="0"/>
        <pt x="1062" y="383" on="0"/>
        <pt x="1128" y="594" on="0"/>
        <pt x="1128" y="731" on="1"/>
        <pt x="1128" y="999" on="0"/>
        <pt x="994" y="1148" on="1"/>
        <pt x="860" y="1298" on="0"/>
        <pt x="620" y="1298" on="1"/>
      </contour>
    </TTGlyph>
    <TTGlyph name="glyph00144" xMin="50" yMin="0" xMax="1444" yMax="1462">
      <contour>
        <pt x="50" y="1462" on="1"/>
        <pt x="1444" y="1462" on="1"/>
        <pt x="1444" y="1298" on="1"/>
        <pt x="1105" y="1298" on="1"/>
        <pt x="1167" y="1237" on="0"/>
        <pt x="1250" y="1109" on="0"/>
        <pt x="1301" y="970" on="0"/>
        <pt x="1322" y="818" on="0"/>
        <pt x="1322" y="733" on="1"/>
        <pt x="1322" y="377" on="0"/>
        <pt x="1150" y="189" on="1"/>
        <pt x="977" y="0" on="0"/>
        <pt x="650" y="0" on="1"/>
        <pt x="436" y="0" on="1"/>
        <pt x="436" y="970" on="1"/>
        <pt x="50" y="970" on="1"/>
        <pt x="50" y="1134" on="1"/>
        <pt x="436" y="1134" on="1"/>
        <pt x="436" y="1298" on="1"/>
        <pt x="50" y="1298" on="1"/>
      </contour>
      <contour>
        <pt x="620" y="164" on="1"/>
        <pt x="624" y="164" on="1"/>
        <pt x="746" y="164" on="0"/>
        <pt x="934" y="239" on="0"/>
        <pt x="1062" y="383" on="0"/>
        <pt x="1128" y="594" on="0"/>
        <pt x="1128" y="731" on="1"/>
        <pt x="1128" y="999" on="0"/>
        <pt x="994" y="1148" on="1"/>
        <pt x="860" y="1298" on="0"/>
        <pt x="620" y="1298" on="1"/>
      </contour>
    </TTGlyph>
    <TTGlyph name="glyph00145" xMin="100" yMin="-325" xMax="1002" yMax="1462">
      <contour>
        <pt x="838" y="-325" on="1"/>
        <pt x="838" y="0" on="1"/>
        <pt x="100" y="0" on="1"/>
        <pt x="100" y="164" on="1"/>
        <pt x="459" y="164" on="1"/>
        <pt x="459" y="1462" on="1"/>
        <pt x="643" y="1462" on="1"/>
        <pt x="643" y="164" on="1"/>
        <pt x="1002" y="164" on="1"/>
        <pt x="1002" y="-325" on="1"/>
      </contour>
    </TTGlyph>
    <TTGlyph name="glyph00146" xMin="100" yMin="-325" xMax="1002" yMax="1462">
      <contour>
        <pt x="838" y="-325" on="1"/>
        <pt x="838" y="0" on="1"/>
        <pt x="712" y="0" on="1"/>
        <pt x="712" y="-325" on="1"/>
        <pt x="548" y="-325" on="1"/>
        <pt x="548" y="0" on="1"/>
        <pt x="100" y="0" on="1"/>
        <pt x="100" y="164" on="1"/>
        <pt x="459" y="164" on="1"/>
        <pt x="459" y="1462" on="1"/>
        <pt x="643" y="1462" on="1"/>
        <pt x="643" y="164" on="1"/>
        <pt x="1002" y="164" on="1"/>
        <pt x="1002" y="-325" on="1"/>
      </contour>
    </TTGlyph>
    <TTGlyph name="glyph00147" xMin="200" yMin="-325" xMax="1087" yMax="1462">
      <contour>
        <pt x="560" y="-325" on="1"/>
        <pt x="560" y="-20" on="1"/>
        <pt x="460" y="-10" on="0"/>
        <pt x="323" y="58" on="0"/>
        <pt x="238" y="187" on="0"/>
        <pt x="200" y="381" on="0"/>
        <pt x="200" y="516" on="1"/>
        <pt x="200" y="1462" on="1"/>
        <pt x="384" y="1462" on="1"/>
        <pt x="384" y="510" on="1"/>
        <pt x="384" y="404" on="0"/>
        <pt x="406" y="265" on="0"/>
        <pt x="463" y="182" on="0"/>
        <pt x="561" y="148" on="0"/>
        <pt x="638" y="148" on="1"/>
        <pt x="714" y="148" on="0"/>
        <pt x="816" y="185" on="0"/>
        <pt x="878" y="270" on="0"/>
        <pt x="903" y="409" on="0"/>
        <pt x="903" y="511" on="1"/>
        <pt x="903" y="517" on="1"/>
        <pt x="1087" y="517" on="1"/>
        <pt x="1087" y="511" on="1"/>
        <pt x="1087" y="379" on="0"/>
        <pt x="1048" y="189" on="0"/>
        <pt x="962" y="61" on="0"/>
        <pt x="823" y="-8" on="0"/>
        <pt x="724" y="-19" on="1"/>
        <pt x="724" y="-325" on="1"/>
      </contour>
    </TTGlyph>
    <TTGlyph name="glyph00148" xMin="200" yMin="-325" xMax="1087" yMax="1462">
      <contour>
        <pt x="705" y="-325" on="1"/>
        <pt x="705" y="-21" on="1"/>
        <pt x="672" y="-24" on="0"/>
        <pt x="637" y="-24" on="1"/>
        <pt x="622" y="-24" on="0"/>
        <pt x="593" y="-23" on="0"/>
        <pt x="579" y="-22" on="1"/>
        <pt x="579" y="-325" on="1"/>
        <pt x="415" y="-325" on="1"/>
        <pt x="415" y="14" on="1"/>
        <pt x="358" y="40" on="0"/>
        <pt x="277" y="119" on="0"/>
        <pt x="224" y="237" on="0"/>
        <pt x="200" y="403" on="0"/>
        <pt x="200" y="516" on="1"/>
        <pt x="200" y="1462" on="1"/>
        <pt x="384" y="1462" on="1"/>
        <pt x="384" y="510" on="1"/>
        <pt x="384" y="404" on="0"/>
        <pt x="406" y="265" on="0"/>
        <pt x="463" y="182" on="0"/>
        <pt x="561" y="148" on="0"/>
        <pt x="638" y="148" on="1"/>
        <pt x="714" y="148" on="0"/>
        <pt x="816" y="185" on="0"/>
        <pt x="878" y="270" on="0"/>
        <pt x="903" y="409" on="0"/>
        <pt x="903" y="511" on="1"/>
        <pt x="903" y="517" on="1"/>
        <pt x="1087" y="517" on="1"/>
        <pt x="1087" y="511" on="1"/>
        <pt x="1087" y="401" on="0"/>
        <pt x="1062" y="238" on="0"/>
        <pt x="1010" y="121" on="0"/>
        <pt x="927" y="42" on="0"/>
        <pt x="869" y="17" on="1"/>
        <pt x="869" y="-325" on="1"/>
      </contour>
    </TTGlyph>
    <TTGlyph name="glyph00149" xMin="200" yMin="-325" xMax="1050" yMax="1462">
      <contour>
        <pt x="546" y="-325" on="1"/>
        <pt x="546" y="-20" on="1"/>
        <pt x="368" y="-3" on="0"/>
        <pt x="200" y="226" on="0"/>
        <pt x="200" y="441" on="1"/>
        <pt x="200" y="1462" on="1"/>
        <pt x="384" y="1462" on="1"/>
        <pt x="384" y="441" on="1"/>
        <pt x="384" y="361" on="0"/>
        <pt x="408" y="250" on="0"/>
        <pt x="463" y="180" on="0"/>
        <pt x="551" y="148" on="0"/>
        <pt x="615" y="148" on="1"/>
        <pt x="856" y="148" on="0"/>
        <pt x="856" y="418" on="1"/>
        <pt x="856" y="467" on="0"/>
        <pt x="827" y="551" on="0"/>
        <pt x="774" y="613" on="0"/>
        <pt x="701" y="647" on="0"/>
        <pt x="657" y="647" on="1"/>
        <pt x="602" y="647" on="0"/>
        <pt x="543" y="630" on="1"/>
        <pt x="467" y="784" on="1"/>
        <pt x="551" y="819" on="0"/>
        <pt x="638" y="819" on="1"/>
        <pt x="733" y="819" on="0"/>
        <pt x="885" y="760" on="0"/>
        <pt x="992" y="654" on="0"/>
        <pt x="1050" y="504" on="0"/>
        <pt x="1050" y="414" on="1"/>
        <pt x="1050" y="332" on="0"/>
        <pt x="1002" y="189" on="0"/>
        <pt x="913" y="76" on="0"/>
        <pt x="788" y="0" on="0"/>
        <pt x="710" y="-15" on="1"/>
        <pt x="710" y="-325" on="1"/>
      </contour>
    </TTGlyph>
    <TTGlyph name="glyph00150" xMin="200" yMin="-325" xMax="1050" yMax="1462">
      <contour>
        <pt x="691" y="-325" on="1"/>
        <pt x="691" y="-18" on="1"/>
        <pt x="653" y="-24" on="0"/>
        <pt x="615" y="-24" on="1"/>
        <pt x="601" y="-24" on="0"/>
        <pt x="577" y="-23" on="0"/>
        <pt x="565" y="-22" on="1"/>
        <pt x="565" y="-325" on="1"/>
        <pt x="401" y="-325" on="1"/>
        <pt x="401" y="17" on="1"/>
        <pt x="298" y="65" on="0"/>
        <pt x="200" y="275" on="0"/>
        <pt x="200" y="441" on="1"/>
        <pt x="200" y="1462" on="1"/>
        <pt x="384" y="1462" on="1"/>
        <pt x="384" y="441" on="1"/>
        <pt x="384" y="361" on="0"/>
        <pt x="408" y="250" on="0"/>
        <pt x="463" y="180" on="0"/>
        <pt x="551" y="148" on="0"/>
        <pt x="615" y="148" on="1"/>
        <pt x="856" y="148" on="0"/>
        <pt x="856" y="418" on="1"/>
        <pt x="856" y="467" on="0"/>
        <pt x="827" y="551" on="0"/>
        <pt x="774" y="613" on="0"/>
        <pt x="701" y="647" on="0"/>
        <pt x="657" y="647" on="1"/>
        <pt x="602" y="647" on="0"/>
        <pt x="543" y="630" on="1"/>
        <pt x="467" y="784" on="1"/>
        <pt x="551" y="819" on="0"/>
        <pt x="638" y="819" on="1"/>
        <pt x="733" y="819" on="0"/>
        <pt x="885" y="760" on="0"/>
        <pt x="992" y="654" on="0"/>
        <pt x="1050" y="504" on="0"/>
        <pt x="1050" y="414" on="1"/>
        <pt x="1050" y="292" on="0"/>
        <pt x="947" y="97" on="0"/>
        <pt x="855" y="40" on="1"/>
        <pt x="855" y="-325" on="1"/>
      </contour>
    </TTGlyph>
    <TTGlyph name="glyph00151" xMin="50" yMin="144" xMax="1893" yMax="1336">
      <contour>
        <pt x="380" y="144" on="1"/>
        <pt x="380" y="1172" on="1"/>
        <pt x="50" y="1172" on="1"/>
        <pt x="50" y="1336" on="1"/>
        <pt x="1893" y="1336" on="1"/>
        <pt x="1893" y="1172" on="1"/>
        <pt x="1563" y="1172" on="1"/>
        <pt x="1563" y="144" on="1"/>
      </contour>
      <contour>
        <pt x="564" y="308" on="1"/>
        <pt x="1379" y="308" on="1"/>
        <pt x="1379" y="1172" on="1"/>
        <pt x="564" y="1172" on="1"/>
      </contour>
    </TTGlyph>
    <TTGlyph name="glyph00152" xMin="50" yMin="144" xMax="1893" yMax="1336">
      <contour>
        <pt x="380" y="144" on="1"/>
        <pt x="380" y="844" on="1"/>
        <pt x="50" y="844" on="1"/>
        <pt x="50" y="1008" on="1"/>
        <pt x="380" y="1008" on="1"/>
        <pt x="380" y="1172" on="1"/>
        <pt x="50" y="1172" on="1"/>
        <pt x="50" y="1336" on="1"/>
        <pt x="1893" y="1336" on="1"/>
        <pt x="1893" y="1172" on="1"/>
        <pt x="1563" y="1172" on="1"/>
        <pt x="1563" y="144" on="1"/>
      </contour>
      <contour>
        <pt x="564" y="308" on="1"/>
        <pt x="1379" y="308" on="1"/>
        <pt x="1379" y="1172" on="1"/>
        <pt x="564" y="1172" on="1"/>
      </contour>
    </TTGlyph>
    <TTGlyph name="glyph00153" xMin="200" yMin="-225" xMax="1383" yMax="1336">
      <contour>
        <pt x="709" y="-225" on="1"/>
        <pt x="709" y="144" on="1"/>
        <pt x="200" y="144" on="1"/>
        <pt x="200" y="1336" on="1"/>
        <pt x="1383" y="1336" on="1"/>
        <pt x="1383" y="144" on="1"/>
        <pt x="873" y="144" on="1"/>
        <pt x="873" y="-225" on="1"/>
      </contour>
      <contour>
        <pt x="384" y="308" on="1"/>
        <pt x="1199" y="308" on="1"/>
        <pt x="1199" y="1172" on="1"/>
        <pt x="384" y="1172" on="1"/>
      </contour>
    </TTGlyph>
    <TTGlyph name="glyph00154" xMin="200" yMin="-225" xMax="1383" yMax="1336">
      <contour>
        <pt x="854" y="-225" on="1"/>
        <pt x="854" y="144" on="1"/>
        <pt x="728" y="144" on="1"/>
        <pt x="728" y="-225" on="1"/>
        <pt x="564" y="-225" on="1"/>
        <pt x="564" y="144" on="1"/>
        <pt x="200" y="144" on="1"/>
        <pt x="200" y="1336" on="1"/>
        <pt x="1383" y="1336" on="1"/>
        <pt x="1383" y="144" on="1"/>
        <pt x="1018" y="144" on="1"/>
        <pt x="1018" y="-225" on="1"/>
      </contour>
      <contour>
        <pt x="384" y="308" on="1"/>
        <pt x="1199" y="308" on="1"/>
        <pt x="1199" y="1172" on="1"/>
        <pt x="384" y="1172" on="1"/>
      </contour>
    </TTGlyph>
    <TTGlyph name="glyph00155" xMin="50" yMin="-24" xMax="1932" yMax="1462">
      <contour>
        <pt x="1362" y="1462" on="1"/>
        <pt x="1932" y="1462" on="1"/>
        <pt x="1932" y="1298" on="1"/>
        <pt x="1541" y="1298" on="1"/>
        <pt x="1532" y="1221" on="0"/>
        <pt x="1485" y="1097" on="0"/>
        <pt x="1395" y="983" on="0"/>
        <pt x="1254" y="872" on="0"/>
        <pt x="1151" y="809" on="1"/>
        <pt x="1298" y="712" on="0"/>
        <pt x="1428" y="491" on="0"/>
        <pt x="1428" y="357" on="1"/>
        <pt x="1428" y="266" on="0"/>
        <pt x="1370" y="124" on="0"/>
        <pt x="1257" y="27" on="0"/>
        <pt x="1093" y="-24" on="0"/>
        <pt x="987" y="-24" on="1"/>
        <pt x="883" y="-24" on="0"/>
        <pt x="722" y="27" on="0"/>
        <pt x="612" y="125" on="0"/>
        <pt x="555" y="267" on="0"/>
        <pt x="555" y="357" on="1"/>
        <pt x="555" y="494" on="0"/>
        <pt x="689" y="713" on="0"/>
        <pt x="833" y="806" on="1"/>
        <pt x="668" y="904" on="0"/>
        <pt x="592" y="982" on="1"/>
        <pt x="529" y="1048" on="0"/>
        <pt x="452" y="1201" on="0"/>
        <pt x="440" y="1298" on="1"/>
        <pt x="50" y="1298" on="1"/>
        <pt x="50" y="1462" on="1"/>
        <pt x="620" y="1462" on="1"/>
        <pt x="620" y="1380" on="1"/>
        <pt x="620" y="1284" on="0"/>
        <pt x="682" y="1145" on="0"/>
        <pt x="786" y="1037" on="0"/>
        <pt x="920" y="949" on="0"/>
        <pt x="991" y="905" on="1"/>
        <pt x="1062" y="949" on="0"/>
        <pt x="1196" y="1037" on="0"/>
        <pt x="1299" y="1145" on="0"/>
        <pt x="1362" y="1285" on="0"/>
        <pt x="1362" y="1380" on="1"/>
      </contour>
      <contour>
        <pt x="994" y="716" on="1"/>
        <pt x="870" y="639" on="0"/>
        <pt x="749" y="469" on="0"/>
        <pt x="749" y="365" on="1"/>
        <pt x="749" y="255" on="0"/>
        <pt x="876" y="148" on="0"/>
        <pt x="987" y="148" on="1"/>
        <pt x="1104" y="148" on="0"/>
        <pt x="1233" y="254" on="0"/>
        <pt x="1233" y="365" on="1"/>
        <pt x="1233" y="469" on="0"/>
        <pt x="1117" y="638" on="0"/>
      </contour>
    </TTGlyph>
    <TTGlyph name="glyph00156" xMin="50" yMin="-24" xMax="1932" yMax="1462">
      <contour>
        <pt x="50" y="1134" on="1"/>
        <pt x="486" y="1134" on="1"/>
        <pt x="469" y="1171" on="0"/>
        <pt x="445" y="1252" on="0"/>
        <pt x="440" y="1298" on="1"/>
        <pt x="50" y="1298" on="1"/>
        <pt x="50" y="1462" on="1"/>
        <pt x="620" y="1462" on="1"/>
        <pt x="620" y="1380" on="1"/>
        <pt x="620" y="1284" on="0"/>
        <pt x="682" y="1145" on="0"/>
        <pt x="786" y="1037" on="0"/>
        <pt x="920" y="949" on="0"/>
        <pt x="991" y="905" on="1"/>
        <pt x="1062" y="949" on="0"/>
        <pt x="1196" y="1037" on="0"/>
        <pt x="1299" y="1145" on="0"/>
        <pt x="1362" y="1285" on="0"/>
        <pt x="1362" y="1380" on="1"/>
        <pt x="1362" y="1462" on="1"/>
        <pt x="1932" y="1462" on="1"/>
        <pt x="1932" y="1298" on="1"/>
        <pt x="1541" y="1298" on="1"/>
        <pt x="1532" y="1221" on="0"/>
        <pt x="1485" y="1097" on="0"/>
        <pt x="1395" y="983" on="0"/>
        <pt x="1254" y="872" on="0"/>
        <pt x="1151" y="809" on="1"/>
        <pt x="1298" y="712" on="0"/>
        <pt x="1428" y="491" on="0"/>
        <pt x="1428" y="357" on="1"/>
        <pt x="1428" y="266" on="0"/>
        <pt x="1370" y="124" on="0"/>
        <pt x="1257" y="27" on="0"/>
        <pt x="1093" y="-24" on="0"/>
        <pt x="987" y="-24" on="1"/>
        <pt x="883" y="-24" on="0"/>
        <pt x="722" y="27" on="0"/>
        <pt x="612" y="125" on="0"/>
        <pt x="555" y="267" on="0"/>
        <pt x="555" y="357" on="1"/>
        <pt x="555" y="494" on="0"/>
        <pt x="689" y="713" on="0"/>
        <pt x="833" y="806" on="1"/>
        <pt x="680" y="897" on="0"/>
        <pt x="604" y="970" on="1"/>
        <pt x="50" y="970" on="1"/>
      </contour>
      <contour>
        <pt x="994" y="716" on="1"/>
        <pt x="870" y="639" on="0"/>
        <pt x="749" y="469" on="0"/>
        <pt x="749" y="365" on="1"/>
        <pt x="749" y="255" on="0"/>
        <pt x="876" y="148" on="0"/>
        <pt x="987" y="148" on="1"/>
        <pt x="1104" y="148" on="0"/>
        <pt x="1233" y="254" on="0"/>
        <pt x="1233" y="365" on="1"/>
        <pt x="1233" y="469" on="0"/>
        <pt x="1117" y="638" on="0"/>
      </contour>
    </TTGlyph>
    <TTGlyph name="glyph00157" xMin="160" yMin="-325" xMax="1270" yMax="1462">
      <contour>
        <pt x="633" y="-325" on="1"/>
        <pt x="633" y="-20" on="1"/>
        <pt x="461" y="-2" on="0"/>
        <pt x="279" y="192" on="0"/>
        <pt x="279" y="357" on="1"/>
        <pt x="279" y="494" on="0"/>
        <pt x="413" y="713" on="0"/>
        <pt x="557" y="806" on="1"/>
        <pt x="475" y="855" on="0"/>
        <pt x="354" y="943" on="0"/>
        <pt x="316" y="982" on="1"/>
        <pt x="240" y="1061" on="0"/>
        <pt x="160" y="1254" on="0"/>
        <pt x="160" y="1380" on="1"/>
        <pt x="160" y="1462" on="1"/>
        <pt x="344" y="1462" on="1"/>
        <pt x="344" y="1380" on="1"/>
        <pt x="344" y="1284" on="0"/>
        <pt x="406" y="1145" on="0"/>
        <pt x="510" y="1037" on="0"/>
        <pt x="644" y="949" on="0"/>
        <pt x="715" y="905" on="1"/>
        <pt x="786" y="949" on="0"/>
        <pt x="920" y="1037" on="0"/>
        <pt x="1023" y="1145" on="0"/>
        <pt x="1086" y="1285" on="0"/>
        <pt x="1086" y="1380" on="1"/>
        <pt x="1086" y="1462" on="1"/>
        <pt x="1270" y="1462" on="1"/>
        <pt x="1270" y="1380" on="1"/>
        <pt x="1270" y="1283" on="0"/>
        <pt x="1228" y="1130" on="0"/>
        <pt x="1134" y="998" on="0"/>
        <pt x="984" y="875" on="0"/>
        <pt x="875" y="809" on="1"/>
        <pt x="1022" y="712" on="0"/>
        <pt x="1152" y="491" on="0"/>
        <pt x="1152" y="357" on="1"/>
        <pt x="1152" y="193" on="0"/>
        <pt x="969" y="0" on="0"/>
        <pt x="797" y="-19" on="1"/>
        <pt x="797" y="-325" on="1"/>
      </contour>
      <contour>
        <pt x="718" y="716" on="1"/>
        <pt x="594" y="639" on="0"/>
        <pt x="473" y="469" on="0"/>
        <pt x="473" y="365" on="1"/>
        <pt x="473" y="255" on="0"/>
        <pt x="600" y="148" on="0"/>
        <pt x="711" y="148" on="1"/>
        <pt x="828" y="148" on="0"/>
        <pt x="957" y="254" on="0"/>
        <pt x="957" y="365" on="1"/>
        <pt x="957" y="469" on="0"/>
        <pt x="841" y="638" on="0"/>
      </contour>
    </TTGlyph>
    <TTGlyph name="glyph00158" xMin="160" yMin="-325" xMax="1270" yMax="1462">
      <contour>
        <pt x="778" y="-325" on="1"/>
        <pt x="778" y="-21" on="1"/>
        <pt x="745" y="-24" on="0"/>
        <pt x="711" y="-24" on="1"/>
        <pt x="680" y="-24" on="0"/>
        <pt x="652" y="-21" on="1"/>
        <pt x="652" y="-325" on="1"/>
        <pt x="488" y="-325" on="1"/>
        <pt x="488" y="15" on="1"/>
        <pt x="385" y="59" on="0"/>
        <pt x="279" y="232" on="0"/>
        <pt x="279" y="357" on="1"/>
        <pt x="279" y="494" on="0"/>
        <pt x="413" y="713" on="0"/>
        <pt x="557" y="806" on="1"/>
        <pt x="475" y="855" on="0"/>
        <pt x="354" y="943" on="0"/>
        <pt x="316" y="982" on="1"/>
        <pt x="240" y="1061" on="0"/>
        <pt x="160" y="1254" on="0"/>
        <pt x="160" y="1380" on="1"/>
        <pt x="160" y="1462" on="1"/>
        <pt x="344" y="1462" on="1"/>
        <pt x="344" y="1380" on="1"/>
        <pt x="344" y="1284" on="0"/>
        <pt x="406" y="1145" on="0"/>
        <pt x="510" y="1037" on="0"/>
        <pt x="644" y="949" on="0"/>
        <pt x="715" y="905" on="1"/>
        <pt x="786" y="949" on="0"/>
        <pt x="920" y="1037" on="0"/>
        <pt x="1023" y="1145" on="0"/>
        <pt x="1086" y="1285" on="0"/>
        <pt x="1086" y="1380" on="1"/>
        <pt x="1086" y="1462" on="1"/>
        <pt x="1270" y="1462" on="1"/>
        <pt x="1270" y="1380" on="1"/>
        <pt x="1270" y="1283" on="0"/>
        <pt x="1228" y="1130" on="0"/>
        <pt x="1134" y="998" on="0"/>
        <pt x="984" y="875" on="0"/>
        <pt x="875" y="809" on="1"/>
        <pt x="1022" y="712" on="0"/>
        <pt x="1152" y="491" on="0"/>
        <pt x="1152" y="357" on="1"/>
        <pt x="1152" y="232" on="0"/>
        <pt x="1045" y="60" on="0"/>
        <pt x="942" y="17" on="1"/>
        <pt x="942" y="-325" on="1"/>
      </contour>
      <contour>
        <pt x="718" y="716" on="1"/>
        <pt x="594" y="639" on="0"/>
        <pt x="473" y="469" on="0"/>
        <pt x="473" y="365" on="1"/>
        <pt x="473" y="255" on="0"/>
        <pt x="600" y="148" on="0"/>
        <pt x="711" y="148" on="1"/>
        <pt x="828" y="148" on="0"/>
        <pt x="957" y="254" on="0"/>
        <pt x="957" y="365" on="1"/>
        <pt x="957" y="469" on="0"/>
        <pt x="841" y="638" on="0"/>
      </contour>
    </TTGlyph>
    <TTGlyph name="glyph00159" xMin="130" yMin="-325" xMax="1522" yMax="1462">
      <contour>
        <pt x="1046" y="-325" on="1"/>
        <pt x="1046" y="-20" on="1"/>
        <pt x="898" y="-4" on="0"/>
        <pt x="826" y="85" on="1"/>
        <pt x="735" y="-24" on="0"/>
        <pt x="531" y="-24" on="1"/>
        <pt x="426" y="-24" on="0"/>
        <pt x="274" y="28" on="0"/>
        <pt x="177" y="141" on="0"/>
        <pt x="130" y="319" on="0"/>
        <pt x="130" y="446" on="1"/>
        <pt x="130" y="515" on="1"/>
        <pt x="314" y="515" on="1"/>
        <pt x="314" y="446" on="1"/>
        <pt x="314" y="362" on="0"/>
        <pt x="335" y="248" on="0"/>
        <pt x="383" y="178" on="0"/>
        <pt x="462" y="148" on="0"/>
        <pt x="520" y="148" on="1"/>
        <pt x="580" y="148" on="0"/>
        <pt x="662" y="179" on="0"/>
        <pt x="712" y="246" on="0"/>
        <pt x="734" y="352" on="0"/>
        <pt x="734" y="426" on="1"/>
        <pt x="734" y="1462" on="1"/>
        <pt x="918" y="1462" on="1"/>
        <pt x="918" y="426" on="1"/>
        <pt x="918" y="348" on="0"/>
        <pt x="939" y="242" on="0"/>
        <pt x="988" y="177" on="0"/>
        <pt x="1070" y="148" on="0"/>
        <pt x="1132" y="148" on="1"/>
        <pt x="1190" y="148" on="0"/>
        <pt x="1269" y="178" on="0"/>
        <pt x="1317" y="248" on="0"/>
        <pt x="1338" y="362" on="0"/>
        <pt x="1338" y="446" on="1"/>
        <pt x="1338" y="515" on="1"/>
        <pt x="1522" y="515" on="1"/>
        <pt x="1522" y="446" on="1"/>
        <pt x="1522" y="333" on="0"/>
        <pt x="1485" y="167" on="0"/>
        <pt x="1408" y="55" on="0"/>
        <pt x="1290" y="-8" on="0"/>
        <pt x="1210" y="-18" on="1"/>
        <pt x="1210" y="-325" on="1"/>
      </contour>
    </TTGlyph>
    <TTGlyph name="glyph00160" xMin="130" yMin="-325" xMax="1522" yMax="1462">
      <contour>
        <pt x="1191" y="-325" on="1"/>
        <pt x="1191" y="-20" on="1"/>
        <pt x="1174" y="-22" on="0"/>
        <pt x="1139" y="-24" on="0"/>
        <pt x="1121" y="-24" on="1"/>
        <pt x="1106" y="-24" on="0"/>
        <pt x="1079" y="-23" on="0"/>
        <pt x="1065" y="-22" on="1"/>
        <pt x="1065" y="-325" on="1"/>
        <pt x="901" y="-325" on="1"/>
        <pt x="901" y="23" on="1"/>
        <pt x="857" y="47" on="0"/>
        <pt x="826" y="85" on="1"/>
        <pt x="735" y="-24" on="0"/>
        <pt x="531" y="-24" on="1"/>
        <pt x="426" y="-24" on="0"/>
        <pt x="274" y="28" on="0"/>
        <pt x="177" y="141" on="0"/>
        <pt x="130" y="319" on="0"/>
        <pt x="130" y="446" on="1"/>
        <pt x="130" y="515" on="1"/>
        <pt x="314" y="515" on="1"/>
        <pt x="314" y="446" on="1"/>
        <pt x="314" y="362" on="0"/>
        <pt x="335" y="248" on="0"/>
        <pt x="383" y="178" on="0"/>
        <pt x="462" y="148" on="0"/>
        <pt x="520" y="148" on="1"/>
        <pt x="580" y="148" on="0"/>
        <pt x="662" y="179" on="0"/>
        <pt x="712" y="246" on="0"/>
        <pt x="734" y="352" on="0"/>
        <pt x="734" y="426" on="1"/>
        <pt x="734" y="1462" on="1"/>
        <pt x="918" y="1462" on="1"/>
        <pt x="918" y="426" on="1"/>
        <pt x="918" y="348" on="0"/>
        <pt x="939" y="242" on="0"/>
        <pt x="988" y="177" on="0"/>
        <pt x="1070" y="148" on="0"/>
        <pt x="1132" y="148" on="1"/>
        <pt x="1190" y="148" on="0"/>
        <pt x="1269" y="178" on="0"/>
        <pt x="1317" y="248" on="0"/>
        <pt x="1338" y="362" on="0"/>
        <pt x="1338" y="446" on="1"/>
        <pt x="1338" y="515" on="1"/>
        <pt x="1522" y="515" on="1"/>
        <pt x="1522" y="446" on="1"/>
        <pt x="1522" y="278" on="0"/>
        <pt x="1439" y="77" on="0"/>
        <pt x="1355" y="27" on="1"/>
        <pt x="1355" y="-325" on="1"/>
      </contour>
    </TTGlyph>
    <TTGlyph name="glyph00161" xMin="100" yMin="-325" xMax="1300" yMax="1462">
      <contour>
        <pt x="773" y="-325" on="1"/>
        <pt x="773" y="-19" on="1"/>
        <pt x="692" y="-10" on="0"/>
        <pt x="569" y="42" on="0"/>
        <pt x="483" y="134" on="0"/>
        <pt x="431" y="268" on="0"/>
        <pt x="420" y="359" on="1"/>
        <pt x="100" y="359" on="1"/>
        <pt x="100" y="523" on="1"/>
        <pt x="596" y="523" on="1"/>
        <pt x="596" y="515" on="1"/>
        <pt x="596" y="414" on="0"/>
        <pt x="621" y="274" on="0"/>
        <pt x="683" y="188" on="0"/>
        <pt x="785" y="150" on="0"/>
        <pt x="862" y="150" on="1"/>
        <pt x="937" y="150" on="0"/>
        <pt x="1036" y="186" on="0"/>
        <pt x="1093" y="271" on="0"/>
        <pt x="1116" y="411" on="0"/>
        <pt x="1116" y="514" on="1"/>
        <pt x="1116" y="1462" on="1"/>
        <pt x="1300" y="1462" on="1"/>
        <pt x="1300" y="520" on="1"/>
        <pt x="1300" y="384" on="0"/>
        <pt x="1261" y="189" on="0"/>
        <pt x="1174" y="59" on="0"/>
        <pt x="1036" y="-10" on="0"/>
        <pt x="937" y="-20" on="1"/>
        <pt x="937" y="-325" on="1"/>
      </contour>
    </TTGlyph>
    <TTGlyph name="glyph00162" xMin="100" yMin="-325" xMax="1300" yMax="1462">
      <contour>
        <pt x="918" y="-325" on="1"/>
        <pt x="918" y="-22" on="1"/>
        <pt x="904" y="-23" on="0"/>
        <pt x="877" y="-24" on="0"/>
        <pt x="863" y="-24" on="1"/>
        <pt x="825" y="-24" on="0"/>
        <pt x="792" y="-21" on="1"/>
        <pt x="792" y="-325" on="1"/>
        <pt x="628" y="-325" on="1"/>
        <pt x="628" y="18" on="1"/>
        <pt x="582" y="39" on="0"/>
        <pt x="512" y="98" on="0"/>
        <pt x="461" y="181" on="0"/>
        <pt x="429" y="289" on="0"/>
        <pt x="420" y="359" on="1"/>
        <pt x="100" y="359" on="1"/>
        <pt x="100" y="523" on="1"/>
        <pt x="596" y="523" on="1"/>
        <pt x="596" y="515" on="1"/>
        <pt x="596" y="414" on="0"/>
        <pt x="621" y="274" on="0"/>
        <pt x="683" y="188" on="0"/>
        <pt x="785" y="150" on="0"/>
        <pt x="862" y="150" on="1"/>
        <pt x="937" y="150" on="0"/>
        <pt x="1036" y="186" on="0"/>
        <pt x="1093" y="271" on="0"/>
        <pt x="1116" y="411" on="0"/>
        <pt x="1116" y="514" on="1"/>
        <pt x="1116" y="1462" on="1"/>
        <pt x="1300" y="1462" on="1"/>
        <pt x="1300" y="520" on="1"/>
        <pt x="1300" y="408" on="0"/>
        <pt x="1275" y="241" on="0"/>
        <pt x="1222" y="120" on="0"/>
        <pt x="1139" y="40" on="0"/>
        <pt x="1082" y="15" on="1"/>
        <pt x="1082" y="-325" on="1"/>
      </contour>
    </TTGlyph>
    <TTGlyph name="glyph00163" xMin="130" yMin="-325" xMax="912" yMax="1462">
      <contour>
        <pt x="439" y="-325" on="1"/>
        <pt x="439" y="-16" on="1"/>
        <pt x="368" y="-2" on="0"/>
        <pt x="254" y="68" on="0"/>
        <pt x="173" y="166" on="0"/>
        <pt x="130" y="286" on="0"/>
        <pt x="130" y="351" on="1"/>
        <pt x="130" y="416" on="0"/>
        <pt x="173" y="534" on="0"/>
        <pt x="252" y="631" on="0"/>
        <pt x="362" y="700" on="0"/>
        <pt x="429" y="716" on="1"/>
        <pt x="429" y="1462" on="1"/>
        <pt x="613" y="1462" on="1"/>
        <pt x="613" y="717" on="1"/>
        <pt x="679" y="701" on="0"/>
        <pt x="789" y="632" on="0"/>
        <pt x="868" y="535" on="0"/>
        <pt x="912" y="416" on="0"/>
        <pt x="912" y="351" on="1"/>
        <pt x="912" y="286" on="0"/>
        <pt x="868" y="166" on="0"/>
        <pt x="787" y="68" on="0"/>
        <pt x="673" y="-2" on="0"/>
        <pt x="603" y="-16" on="1"/>
        <pt x="603" y="-325" on="1"/>
      </contour>
      <contour>
        <pt x="314" y="351" on="1"/>
        <pt x="314" y="307" on="0"/>
        <pt x="346" y="230" on="0"/>
        <pt x="401" y="172" on="0"/>
        <pt x="477" y="138" on="0"/>
        <pt x="521" y="138" on="1"/>
        <pt x="564" y="138" on="0"/>
        <pt x="640" y="172" on="0"/>
        <pt x="696" y="230" on="0"/>
        <pt x="728" y="307" on="0"/>
        <pt x="728" y="351" on="1"/>
        <pt x="728" y="395" on="0"/>
        <pt x="696" y="473" on="0"/>
        <pt x="641" y="531" on="0"/>
        <pt x="565" y="565" on="0"/>
        <pt x="521" y="565" on="1"/>
        <pt x="477" y="565" on="0"/>
        <pt x="401" y="531" on="0"/>
        <pt x="346" y="473" on="0"/>
        <pt x="314" y="395" on="0"/>
      </contour>
    </TTGlyph>
    <TTGlyph name="glyph00164" xMin="130" yMin="-325" xMax="912" yMax="1462">
      <contour>
        <pt x="584" y="-325" on="1"/>
        <pt x="584" y="-19" on="1"/>
        <pt x="568" y="-21" on="0"/>
        <pt x="537" y="-24" on="0"/>
        <pt x="521" y="-24" on="1"/>
        <pt x="504" y="-24" on="0"/>
        <pt x="473" y="-21" on="0"/>
        <pt x="458" y="-19" on="1"/>
        <pt x="458" y="-325" on="1"/>
        <pt x="294" y="-325" on="1"/>
        <pt x="294" y="44" on="1"/>
        <pt x="216" y="97" on="0"/>
        <pt x="130" y="257" on="0"/>
        <pt x="130" y="351" on="1"/>
        <pt x="130" y="416" on="0"/>
        <pt x="173" y="534" on="0"/>
        <pt x="252" y="631" on="0"/>
        <pt x="362" y="700" on="0"/>
        <pt x="429" y="716" on="1"/>
        <pt x="429" y="1462" on="1"/>
        <pt x="613" y="1462" on="1"/>
        <pt x="613" y="717" on="1"/>
        <pt x="679" y="701" on="0"/>
        <pt x="789" y="632" on="0"/>
        <pt x="868" y="535" on="0"/>
        <pt x="912" y="416" on="0"/>
        <pt x="912" y="351" on="1"/>
        <pt x="912" y="258" on="0"/>
        <pt x="825" y="97" on="0"/>
        <pt x="748" y="45" on="1"/>
        <pt x="748" y="-325" on="1"/>
      </contour>
      <contour>
        <pt x="314" y="351" on="1"/>
        <pt x="314" y="307" on="0"/>
        <pt x="346" y="230" on="0"/>
        <pt x="401" y="172" on="0"/>
        <pt x="477" y="138" on="0"/>
        <pt x="521" y="138" on="1"/>
        <pt x="564" y="138" on="0"/>
        <pt x="640" y="172" on="0"/>
        <pt x="696" y="230" on="0"/>
        <pt x="728" y="307" on="0"/>
        <pt x="728" y="351" on="1"/>
        <pt x="728" y="395" on="0"/>
        <pt x="696" y="473" on="0"/>
        <pt x="641" y="531" on="0"/>
        <pt x="565" y="565" on="0"/>
        <pt x="521" y="565" on="1"/>
        <pt x="477" y="565" on="0"/>
        <pt x="401" y="531" on="0"/>
        <pt x="346" y="473" on="0"/>
        <pt x="314" y="395" on="0"/>
      </contour>
    </TTGlyph>
    <TTGlyph name="glyph00165" xMin="200" yMin="-325" xMax="1087" yMax="1462">
      <contour>
        <pt x="560" y="-325" on="1"/>
        <pt x="560" y="-20" on="1"/>
        <pt x="460" y="-10" on="0"/>
        <pt x="323" y="58" on="0"/>
        <pt x="238" y="187" on="0"/>
        <pt x="200" y="381" on="0"/>
        <pt x="200" y="516" on="1"/>
        <pt x="200" y="1462" on="1"/>
        <pt x="384" y="1462" on="1"/>
        <pt x="384" y="918" on="1"/>
        <pt x="904" y="1088" on="1"/>
        <pt x="954" y="934" on="1"/>
        <pt x="384" y="748" on="1"/>
        <pt x="384" y="510" on="1"/>
        <pt x="384" y="404" on="0"/>
        <pt x="406" y="265" on="0"/>
        <pt x="463" y="182" on="0"/>
        <pt x="561" y="148" on="0"/>
        <pt x="638" y="148" on="1"/>
        <pt x="714" y="148" on="0"/>
        <pt x="816" y="185" on="0"/>
        <pt x="878" y="270" on="0"/>
        <pt x="903" y="409" on="0"/>
        <pt x="903" y="511" on="1"/>
        <pt x="903" y="517" on="1"/>
        <pt x="1087" y="517" on="1"/>
        <pt x="1087" y="511" on="1"/>
        <pt x="1087" y="379" on="0"/>
        <pt x="1048" y="189" on="0"/>
        <pt x="962" y="61" on="0"/>
        <pt x="823" y="-8" on="0"/>
        <pt x="724" y="-19" on="1"/>
        <pt x="724" y="-325" on="1"/>
      </contour>
    </TTGlyph>
    <TTGlyph name="glyph00166" xMin="200" yMin="-325" xMax="1087" yMax="1462">
      <contour>
        <pt x="705" y="-325" on="1"/>
        <pt x="705" y="-21" on="1"/>
        <pt x="672" y="-24" on="0"/>
        <pt x="637" y="-24" on="1"/>
        <pt x="622" y="-24" on="0"/>
        <pt x="593" y="-23" on="0"/>
        <pt x="579" y="-22" on="1"/>
        <pt x="579" y="-325" on="1"/>
        <pt x="415" y="-325" on="1"/>
        <pt x="415" y="14" on="1"/>
        <pt x="358" y="40" on="0"/>
        <pt x="277" y="119" on="0"/>
        <pt x="224" y="237" on="0"/>
        <pt x="200" y="403" on="0"/>
        <pt x="200" y="516" on="1"/>
        <pt x="200" y="1462" on="1"/>
        <pt x="384" y="1462" on="1"/>
        <pt x="384" y="918" on="1"/>
        <pt x="904" y="1088" on="1"/>
        <pt x="954" y="934" on="1"/>
        <pt x="384" y="748" on="1"/>
        <pt x="384" y="510" on="1"/>
        <pt x="384" y="404" on="0"/>
        <pt x="406" y="265" on="0"/>
        <pt x="463" y="182" on="0"/>
        <pt x="561" y="148" on="0"/>
        <pt x="638" y="148" on="1"/>
        <pt x="714" y="148" on="0"/>
        <pt x="816" y="185" on="0"/>
        <pt x="878" y="270" on="0"/>
        <pt x="903" y="409" on="0"/>
        <pt x="903" y="511" on="1"/>
        <pt x="903" y="517" on="1"/>
        <pt x="1087" y="517" on="1"/>
        <pt x="1087" y="511" on="1"/>
        <pt x="1087" y="401" on="0"/>
        <pt x="1062" y="238" on="0"/>
        <pt x="1010" y="121" on="0"/>
        <pt x="927" y="42" on="0"/>
        <pt x="869" y="17" on="1"/>
        <pt x="869" y="-325" on="1"/>
      </contour>
    </TTGlyph>
</ttFont>
